<?xml version="1.0" encoding="utf-8"?>
<!-- Generator: Adobe Illustrator 16.0.4, SVG Export Plug-In . SVG Version: 6.00 Build 0)  -->
<!DOCTYPE svg PUBLIC "-//W3C//DTD SVG 1.1//EN" "http://www.w3.org/Graphics/SVG/1.1/DTD/svg11.dtd">
<svg version="1.1" id="Layer_1" xmlns="http://www.w3.org/2000/svg" xmlns:xlink="http://www.w3.org/1999/xlink" x="0px" y="0px"
	 width="126.297px" height="53.174px" viewBox="0 0 126.297 53.174" enable-background="new 0 0 126.297 53.174"
	 xml:space="preserve">
<g>
	<g>
		<path fill="#FFFFFF" d="M77.138,26.27l-0.272-0.444l-1.761-2.923l-0.256-0.417l-1.764-2.934l-0.241-0.392
			c0-0.004-0.004-0.013-0.004-0.02l-1.789-2.952l-0.228-0.383l-1.791-2.966c-0.008-0.009-0.013-0.02-0.021-0.021
			c-0.022-0.026-0.056-0.039-0.082-0.039h-0.337c-0.027,0-0.057,0.013-0.079,0.033c-0.008,0.008-0.017,0.02-0.02,0.031l-0.039,0.069
			l-1.984,3.277l-0.035,0.057l-2.002,3.306l-0.013,0.029l-2.015,3.322c-0.005,0-0.012,0.02-0.012,0.024l-1.51,2.484l-0.118,0.206
			l-0.395,0.653c-0.021,0.039-0.021,0.08-0.003,0.113c0.02,0.037,0.059,0.058,0.098,0.058h1.595c0.042,0,0.079-0.021,0.1-0.055
			l1.124-1.891H74.22l1.147,1.891c0.017,0.034,0.052,0.055,0.091,0.055h1.585c0.044,0,0.077-0.021,0.095-0.058
			C77.161,26.35,77.161,26.309,77.138,26.27z M70.501,22.85l-4.007,0.002h-2.217l1.113-1.84l0.814-1.345l1.205-1.984l0.837-1.381
			l0.516-0.846l0.51,0.846l0.57,0.947l1.456,2.418l0.554,0.918l1.37,2.265H70.501z"/>
	</g>
	<g>
		<path fill="#FFFFFF" d="M86.892,26.329c0,0.065-0.051,0.111-0.112,0.111H85.42c-0.053,0-0.103-0.058-0.105-0.119l-0.054-1.195
			l-0.096-2.145l-0.116-2.513l-0.034-0.857l-0.04-0.727l-0.018-0.563l-0.439,0.953l-0.181,0.378l-1.387,3.009l-0.009,0.027
			l-0.155,0.333l-0.019,0.039c0,0.005-0.006,0.005-0.006,0.011c0,0,0,0,0,0.002l-0.351,0.759c-0.015,0.04-0.053,0.066-0.102,0.066
			h-0.327c-0.043,0-0.082-0.026-0.101-0.066l-0.363-0.828l-1.282-2.918c0-0.008-0.004-0.011-0.004-0.018l-0.182-0.409l-0.581-1.32
			l-0.056,1.28l-0.103,2.32l-0.048,1.02l-0.035,0.862l-0.113,2.511C79.107,26.398,79.062,26.44,79,26.44h-1.353
			c-0.029,0-0.055-0.014-0.08-0.036c-0.021-0.022-0.03-0.047-0.03-0.083l0.084-1.938l0.062-1.43l0.051-1.267l0.086-2.076
			l0.108-2.453l0.039-0.919l0.035-0.819l0.106-2.535c0.003-0.055,0.053-0.106,0.11-0.106h0.306c0.047,0,0.084,0.028,0.102,0.068
			l0.909,2.002l0.619,1.364l1.119,2.454l0.402,0.896l0.521,1.151l0.521-1.151l0.793-1.726l0.737-1.624l1-2.192l0.54-1.174
			c0.015-0.04,0.056-0.068,0.098-0.068h0.326c0.059,0,0.104,0.051,0.11,0.106l0.117,2.805l0.023,0.562l0.021,0.484l0.122,2.864
			l0.139,3.322l0.005,0.055v0.027L86.892,26.329z"/>
	</g>
	<g>
		<path fill="#FFFFFF" d="M94.958,12.779c0.067,0,0.122,0.051,0.122,0.111v9.236c0,0.324-0.021,0.605-0.053,0.866
			c-0.026,0.298-0.069,0.559-0.133,0.803c-0.309,1.361-1.055,2.276-2.146,2.656c-0.151,0.052-0.309,0.096-0.498,0.129l-0.083,0.015
			l-0.08,0.013c-0.19,0.028-0.393,0.039-0.597,0.039c-0.461,0-0.881-0.067-1.255-0.196c-0.675-0.238-1.217-0.669-1.609-1.297
			c0-0.007-0.001-0.011-0.004-0.016c-0.357-0.571-0.582-1.298-0.656-2.149c-0.036-0.263-0.048-0.545-0.048-0.862V12.89
			c0-0.06,0.049-0.111,0.116-0.111h1.445c0.07,0,0.126,0.051,0.126,0.111v9.177c0,0.04,0,0.082,0.003,0.129
			c0,0.271,0.013,0.53,0.056,0.772c0.013,0.176,0.048,0.35,0.09,0.513c0,0.002,0.01,0.013,0.01,0.022
			c0.241,0.949,0.787,1.448,1.611,1.487c0.034,0.006,0.063,0.006,0.1,0.006h0.016c1.061,0,1.662-0.661,1.84-2.026
			c0.044-0.27,0.062-0.572,0.062-0.903V12.89c0-0.06,0.055-0.111,0.121-0.111H94.958z"/>
	</g>
	<g>
		<path fill="#FFFFFF" d="M104.413,14.456v5.036h3.04c0.065,0,0.113,0.049,0.113,0.109v1.417c0,0.062-0.048,0.112-0.113,0.112h-3.04
			v3.639h3.04c0.065,0,0.113,0.046,0.113,0.107v1.454c0,0.065-0.048,0.111-0.113,0.111h-4.604c-0.062,0-0.109-0.046-0.109-0.111
			V12.89c0-0.06,0.048-0.111,0.109-0.111h4.604c0.065,0,0.113,0.051,0.113,0.111v1.455c0,0.061-0.048,0.11-0.113,0.11H104.413z"/>
	</g>
	<g>
		<path fill="#FFFFFF" d="M110.884,14.456v5.036h3.039c0.063,0,0.113,0.049,0.113,0.109v1.417c0,0.062-0.05,0.112-0.113,0.112
			h-3.039v3.639h3.039c0.063,0,0.113,0.046,0.113,0.107v1.454c0,0.065-0.05,0.111-0.113,0.111h-4.605
			c-0.062,0-0.108-0.046-0.108-0.111V12.89c0-0.06,0.046-0.111,0.108-0.111h4.605c0.063,0,0.113,0.051,0.113,0.111v1.455
			c0,0.061-0.05,0.11-0.113,0.11H110.884z"/>
	</g>
	<g>
		<path fill="#FFFFFF" d="M77.131,28.513l-0.225,0.373l-1.802,2.984l-0.222,0.362l-1.804,2.975l-0.215,0.37l-1.82,3.002
			l-0.207,0.342l-1.811,2.999c-0.021,0.031-0.059,0.053-0.1,0.053h-0.334c-0.041,0-0.077-0.021-0.098-0.053l-0.036-0.058
			l-1.982-3.278l-0.039-0.064l-1.998-3.304l-0.027-0.031l-2.01-3.321l-0.014-0.024l-2.016-3.326
			c-0.022-0.036-0.022-0.08-0.005-0.116c0.022-0.034,0.059-0.051,0.098-0.051h1.604c0.041,0,0.077,0.017,0.096,0.051l1.211,1.989
			l0.833,1.366l1.196,1.97l0.845,1.377l1.19,1.951l0.86,1.421l0.46,0.756l0.464-0.756l0.611-1.006l1.442-2.366l0.588-0.97
			l1.447-2.373l0.587-0.963l1.46-2.396c0.016-0.034,0.06-0.051,0.095-0.051h1.58c0.039,0,0.074,0.017,0.095,0.051
			C77.152,28.433,77.152,28.477,77.131,28.513z"/>
	</g>
	<g>
		<path fill="#FFFFFF" d="M100.429,28.346c0.062,0,0.109,0.048,0.109,0.109v8.355c0,0.619-0.081,1.215-0.245,1.769
			c-0.189,0.635-0.479,1.2-0.855,1.688c-0.676,0.875-1.61,1.477-2.711,1.741c-0.106,0.028-0.217,0.05-0.313,0.063
			c-0.03,0.011-0.067,0.017-0.091,0.017h-0.005c-0.282,0.049-0.582,0.075-0.903,0.075c-0.438,0-0.877-0.053-1.3-0.155
			c-0.549-0.132-1.042-0.342-1.479-0.623c-1.003-0.631-1.719-1.605-2.079-2.809c-0.037-0.138-0.075-0.272-0.104-0.421
			c-0.096-0.439-0.145-0.892-0.145-1.345v-8.356c0-0.061,0.049-0.108,0.11-0.108h1.451c0.061,0,0.112,0.048,0.112,0.108v8.356
			c0,0.623,0.111,1.196,0.324,1.69c0.252,0.604,0.662,1.106,1.191,1.446c0.54,0.36,1.187,0.541,1.917,0.541h0.009
			c0.046,0,0.083,0,0.126-0.004c0.712-0.021,1.343-0.218,1.878-0.584c0.422-0.287,0.752-0.674,0.997-1.146
			c0.047-0.07,0.077-0.144,0.121-0.254c0.118-0.263,0.205-0.571,0.264-0.913c0.044-0.257,0.061-0.522,0.061-0.777v-8.356
			c0-0.061,0.051-0.108,0.113-0.108H100.429z"/>
	</g>
	<path fill="#FFFFFF" d="M101.58,12.775c0.057,0,0.103,0.046,0.103,0.102v1.508c0,0.056-0.046,0.102-0.103,0.102h-1.431
		c-1.164,0-1.898,0.343-1.898,1.467c0,2.132,2.866,4.362,2.866,7.055c0,1.996-1.298,3.392-3.449,3.392h-2.086
		c-0.058,0-0.104-0.047-0.104-0.104v-1.465c0-0.056,0.046-0.102,0.103-0.102h1.643c1.297,0,2.229-0.48,2.229-1.855
		c0-2.036-2.871-4.286-2.871-7.093c0-1.784,1.222-3.006,3.025-3.006H101.58z"/>
	<path fill="#FFFFFF" d="M89.157,33.681c-0.021-0.064-0.033-0.136-0.057-0.207c-0.238-0.883-0.653-1.698-1.207-2.405
		c-0.028-0.043-0.066-0.079-0.091-0.114c-0.025-0.027-0.053-0.062-0.08-0.096c-0.169-0.201-0.354-0.389-0.548-0.585
		c-0.048-0.04-0.099-0.09-0.167-0.154c-0.862-0.771-1.932-1.323-3.066-1.587h-0.008l-0.026-0.004
		c-0.518-0.12-1.042-0.179-1.583-0.179c-0.49,0-0.958,0.041-1.405,0.136c-1.091,0.22-2.132,0.708-3.017,1.422
		c-0.303,0.24-0.57,0.502-0.834,0.794c-0.1,0.112-0.187,0.218-0.273,0.337c-0.684,0.863-1.149,1.898-1.358,2.973
		c-0.082,0.436-0.124,0.887-0.124,1.349c0,0.432,0.026,0.839,0.107,1.238c0.199,1.13,0.672,2.193,1.363,3.083
		c0.086,0.106,0.175,0.205,0.257,0.308l0.006,0.007c0.007,0.007,0.017,0.012,0.017,0.012c0.219,0.256,0.471,0.506,0.791,0.771
		c0.027,0.028,0.062,0.05,0.099,0.08l0.036,0.026c0.86,0.665,1.819,1.114,2.866,1.338h0.06c0.443,0.101,0.912,0.15,1.41,0.15
		c0.541,0,1.065-0.064,1.554-0.186h0.044c0.012-0.006,0.02-0.006,0.033-0.015c1.121-0.253,2.19-0.804,3.078-1.585l0.094-0.099
		c0.183-0.163,0.359-0.348,0.559-0.573c0.013-0.022,0.037-0.044,0.043-0.05c0.031-0.041,0.057-0.079,0.083-0.113l0.046-0.056
		l0.019-0.017c0.59-0.748,1.009-1.597,1.257-2.532c0.004-0.036,0.014-0.07,0.024-0.112c0.126-0.526,0.201-1.086,0.201-1.656v-0.035
		C89.358,34.78,89.296,34.225,89.157,33.681z M87.685,35.372c0,0.436-0.056,0.86-0.154,1.27c-0.008,0.033-0.013,0.054-0.02,0.073
		c-0.193,0.716-0.515,1.369-0.958,1.935l-0.014,0.014l-0.029,0.044c-0.021,0.03-0.04,0.058-0.062,0.084
		c-0.008,0.01-0.027,0.02-0.034,0.034c-0.153,0.177-0.286,0.32-0.435,0.439l-0.072,0.078c-0.67,0.595-1.483,1.013-2.341,1.211
		c0,0-0.012,0-0.021,0.007h-0.038c-0.366,0.092-0.771,0.138-1.179,0.138c-0.381,0-0.738-0.037-1.076-0.11h-0.043
		c-0.804-0.17-1.534-0.509-2.19-1.018l-0.021-0.023c-0.023-0.019-0.053-0.034-0.075-0.057c-0.242-0.205-0.438-0.396-0.601-0.588
		c-0.008-0.005-0.008-0.005-0.015-0.013l-0.009-0.009c-0.063-0.07-0.13-0.144-0.188-0.231c-0.532-0.68-0.894-1.486-1.042-2.342
		c-0.058-0.315-0.086-0.616-0.086-0.948c0-0.355,0.036-0.696,0.101-1.029c0.151-0.821,0.509-1.6,1.031-2.261
		c0.073-0.095,0.139-0.175,0.208-0.259c0.197-0.221,0.406-0.415,0.637-0.611c0.674-0.542,1.466-0.908,2.3-1.073
		c0.332-0.07,0.693-0.105,1.07-0.105c0.408,0,0.812,0.043,1.201,0.135c0,0,0.016,0.007,0.024,0.007h0.003
		c0.866,0.2,1.68,0.615,2.338,1.211c0.048,0.041,0.09,0.077,0.126,0.11c0.15,0.144,0.286,0.292,0.419,0.446
		c0.02,0.022,0.045,0.052,0.054,0.074c0.023,0.026,0.055,0.055,0.074,0.091c0.422,0.535,0.737,1.161,0.918,1.833
		c0.025,0.049,0.032,0.108,0.045,0.149c0.105,0.419,0.154,0.841,0.154,1.268V35.372z"/>
	<g>
		<g>
			<g>
				<path fill="#FFFFFF" d="M68.312,48.895c-0.344,0.187-0.777,0.059-0.967-0.288l-0.03-0.055L43.631,9.08
					c-0.031-0.041-0.056-0.076-0.079-0.114c-0.011-0.024-0.022-0.045-0.031-0.064l-3.654-6.085L10.246,52.201
					c-0.032,0.054-0.074,0.102-0.117,0.145c-0.02,0.021-0.043,0.042-0.066,0.061c-0.125,0.095-0.276,0.142-0.43,0.142
					c-0.046,0-0.094-0.004-0.137-0.01h-0.01c-0.049-0.011-0.089-0.027-0.133-0.047c-0.029-0.014-0.057-0.027-0.086-0.046
					c-0.024-0.014-0.049-0.03-0.07-0.047c-0.005-0.005-0.015-0.011-0.019-0.016c-0.041-0.031-0.078-0.068-0.11-0.108v-0.004
					c-0.114-0.149-0.161-0.333-0.143-0.515c0-0.009,0.004-0.02,0.004-0.026c0-0.012,0-0.021,0.004-0.03
					c0.006-0.036,0.021-0.071,0.033-0.111c-0.004-0.004,0-0.009,0.007-0.012c0.007-0.033,0.028-0.066,0.046-0.103v-0.003
					l0.063-0.105L39.177,1.191l0.075-0.13c0.13-0.217,0.36-0.345,0.615-0.345c0.156,0,0.306,0.052,0.428,0.137
					c0.026,0.018,0.048,0.038,0.064,0.06c0.021,0.015,0.034,0.03,0.049,0.047c0.008,0.015,0.025,0.029,0.035,0.044
					c0.012,0.014,0.027,0.033,0.037,0.051l4.271,7.13c0.02,0.022,0.035,0.043,0.048,0.066l23.799,39.672
					C68.783,48.272,68.656,48.704,68.312,48.895z"/>
			</g>
			<g>
				<path fill="#FFFFFF" d="M66.39,51.451L40.47,8.252c-0.022-0.035-0.042-0.071-0.065-0.095c-0.025-0.029-0.051-0.051-0.072-0.072
					c-0.043-0.038-0.087-0.07-0.132-0.091c-0.027-0.011-0.055-0.027-0.079-0.036c-0.027-0.017-0.054-0.024-0.089-0.028
					c-0.023-0.005-0.048-0.01-0.071-0.016c-0.01-0.01-0.022-0.01-0.037-0.005h-0.007c-0.021-0.004-0.047-0.004-0.07-0.004
					c-0.034,0-0.061,0-0.094,0.004h-0.021c-0.022,0.005-0.047,0.012-0.065,0.021h-0.006c-0.019,0.003-0.034,0.007-0.051,0.017
					c-0.004-0.006-0.009,0-0.015,0.005c-0.028,0.006-0.053,0.02-0.076,0.035c-0.078,0.037-0.148,0.094-0.203,0.161
					c-0.031,0.027-0.058,0.067-0.083,0.104l-2.147,3.58l-0.034,0.058v0.003l-8.58,14.311c-0.009,0.015-0.018,0.029-0.028,0.039
					c-0.128,0.204-0.146,0.463-0.047,0.689c0.013,0.021,0.023,0.048,0.04,0.071l8.645,14.406c0.126,0.213,0.359,0.347,0.614,0.347
					c0.253,0,0.478-0.134,0.613-0.347l8.028-13.402l1.332,2.215l-9.979,16.64l-10.15-16.917c0-0.005-0.008-0.005-0.008-0.008
					l-0.038-0.058c-0.014-0.029-0.03-0.057-0.051-0.081c-0.017-0.023-0.039-0.042-0.061-0.066c-0.024-0.024-0.042-0.043-0.066-0.062
					c-0.024-0.021-0.047-0.037-0.078-0.048c-0.052-0.028-0.106-0.052-0.165-0.066c-0.008-0.003-0.013-0.01-0.021-0.003
					c-0.018-0.012-0.037-0.016-0.061-0.016c0,0-0.005-0.005-0.011,0c-0.013-0.005-0.027-0.011-0.045-0.005h-0.052
					c-0.03,0-0.057,0.005-0.085,0.005c-0.034,0-0.066,0.009-0.094,0.019c-0.03,0.008-0.059,0.02-0.086,0.028c0,0-0.01,0-0.015,0.007
					c-0.036,0.012-0.068,0.031-0.095,0.05c-0.047,0.029-0.097,0.066-0.133,0.11c-0.024,0.023-0.042,0.047-0.062,0.076
					c-0.021,0.022-0.038,0.052-0.052,0.081l-0.812,1.36l-1.306,2.185l-4.287,7.148c-0.021,0.019-0.039,0.043-0.055,0.071
					c-0.021,0.033-0.043,0.07-0.055,0.109l-2.03,3.389l-0.066,0.113c-0.134,0.22-0.134,0.494-0.011,0.718
					c0.128,0.223,0.365,0.361,0.622,0.361h0.104l12.444,0.006l1.302,2.172H16.098c-0.254,0-0.502,0.152-0.628,0.371l-2.135,3.562
					c-0.199,0.34-0.091,0.777,0.245,0.978c0.118,0.069,0.245,0.103,0.368,0.103c0.244,0,0.478-0.122,0.614-0.347l1.939-3.242h16.508
					l0.836,1.385c0.816,1.354,2.297,2.192,3.878,2.192h0.021c1.586-0.011,3.074-0.861,3.877-2.232l0.792-1.345H58.91l1.955,3.257
					c0.127,0.21,0.361,0.343,0.606,0.343h0.007c0.394,0,0.709-0.317,0.709-0.712c0-0.153-0.047-0.294-0.123-0.411l-2.154-3.584
					l-2.14-3.558c-0.127-0.214-0.36-0.348-0.606-0.348h-0.191l-11.555-0.005l1.312-2.191h8.258h0.008
					c0.391,0,0.711-0.319,0.711-0.713c0-0.166-0.055-0.322-0.156-0.439l-4.279-7.132c-0.003-0.01-0.017-0.034-0.021-0.041
					c-0.132-0.197-0.357-0.31-0.595-0.31c-0.247-0.011-0.461,0.112-0.593,0.31c-0.011,0.012-0.02,0.025-0.03,0.041l-4.269,7.125
					c-0.017,0.028-0.034,0.051-0.051,0.079l-2.112,3.547l-0.031,0.045v0.001c-0.008,0.011-0.017,0.016-0.018,0.025l-2.125,3.553
					c-0.012,0.011-0.021,0.026-0.03,0.039l-1.003,1.703c-0.551,0.938-1.569,1.523-2.656,1.525h-0.015
					c-1.077,0-2.096-0.573-2.656-1.503l-9.505-15.759l1.32-2.219l9.728,16.195c0.009,0.018,0.02,0.028,0.025,0.044
					c0.027,0.047,0.055,0.085,0.086,0.119c0.012,0.02,0.026,0.038,0.038,0.051c0.016,0.019,0.032,0.034,0.047,0.05l0.032,0.034
					c0.015,0.015,0.028,0.02,0.041,0.033c0.022,0.023,0.048,0.039,0.072,0.06c0.021,0.011,0.036,0.018,0.054,0.029
					c0.006,0.009,0.009,0.015,0.02,0.02c0.018,0.011,0.031,0.017,0.049,0.027h0.006c0.019,0.009,0.039,0.024,0.058,0.032
					c0.021,0.012,0.042,0.021,0.068,0.028c0.04,0.021,0.084,0.038,0.125,0.049c0.023,0.009,0.046,0.016,0.073,0.02
					c0.004,0.005,0.007,0.005,0.016,0.005c0,0.004,0.008,0.004,0.013,0c0.005,0.004,0.014,0.004,0.014,0.004
					c0.044,0.008,0.087,0.02,0.133,0.02c0.092,0.011,0.186,0.011,0.274,0c0.049-0.012,0.095-0.02,0.139-0.032h0.013
					c0.033-0.01,0.058-0.016,0.082-0.029c0.038-0.01,0.071-0.024,0.104-0.038c0.148-0.065,0.282-0.154,0.367-0.247
					c0.085-0.086,0.147-0.17,0.192-0.249L49.037,30.71l0.051-0.091c0.004-0.005,0.023-0.036,0.028-0.044
					c0.08-0.142,0.109-0.297,0.092-0.45c-0.005-0.032-0.015-0.064-0.026-0.095c-0.018-0.062-0.042-0.122-0.076-0.181L38.523,12.21
					l1.33-2.22l25.32,42.21c0.007,0.006,0.012,0.016,0.017,0.021c0.037,0.049,0.074,0.093,0.11,0.13
					c0.128,0.107,0.297,0.18,0.479,0.18c0.396,0,0.713-0.324,0.713-0.716C66.492,51.689,66.455,51.56,66.39,51.451z M50.656,35.207
					l3.071,5.125h-6.141L50.656,35.207z M44.568,45.372l12.188,0.007l1.301,2.162H43.27L44.568,45.372z M29.952,43.942
					l-10.438-0.004l1.31-2.183h7.818L29.952,43.942z M27.804,40.332h-6.125l3.048-5.098L27.804,40.332z M46.336,26.615l0.005,0.011
					h-0.01L46.336,26.615z M45.501,26.615l-7.806,13.041l-7.816-13.019l7.81-13.037L45.501,26.615z"/>
			</g>
		</g>
		<path fill="#FFFFFF" d="M36.142,1.762L8.076,48.618c-0.137,0.229-0.383,0.356-0.632,0.356c-0.12,0-0.24-0.025-0.347-0.09
			c-0.338-0.199-0.461-0.612-0.268-0.954l0.018-0.035L34.919,1.032c0.203-0.338,0.64-0.45,0.979-0.248
			C36.236,0.99,36.344,1.427,36.142,1.762z"/>
	</g>
	<path fill="#FFFFFF" d="M107.017,28.34c0.057,0,0.103,0.046,0.103,0.103v1.507c0,0.057-0.046,0.103-0.103,0.103h-1.431
		c-1.163,0-1.898,0.342-1.898,1.467c0,2.132,2.867,4.362,2.867,7.056c0,1.995-1.299,3.392-3.45,3.392h-2.084
		c-0.058,0-0.104-0.047-0.104-0.104v-1.466c0-0.057,0.046-0.103,0.103-0.103h1.642c1.296,0,2.23-0.479,2.23-1.855
		c0-2.035-2.872-4.285-2.872-7.092c0-1.784,1.221-3.006,3.024-3.006H107.017z"/>
</g>
</svg>
