<!DOCTYPE svg PUBLIC "-//W3C//DTD SVG 1.1//EN" "http://www.w3.org/Graphics/SVG/1.1/DTD/svg11.dtd">
<svg version="1.1" id="Layer_1" xmlns="http://www.w3.org/2000/svg" xmlns:xlink="http://www.w3.org/1999/xlink" x="0px" y="0px"
	 width="150px" height="118.341px" viewBox="0 0 150 118.341" enable-background="new 0 0 150 118.341" xml:space="preserve">
<g>
	<path fill="#231F20" d="M27.935,53.622H0.255v-5.791h27.679V53.622z M26.545,40.419H1.297V1.042h6.949v33.297h18.298V40.419z
		 M55.208,34.918c-1.853,4.169-5.906,6.08-11.06,6.08c-8.05,0-14.419-4.69-14.419-14.824V1.042h6.949v23.916
		c0,6.66,3.417,9.902,8.918,9.902c5.56,0,9.207-3.301,9.207-9.902V1.042h6.949v39.377h-6.544V34.918z M107.613,26.464
		c-1.795,9.323-8.976,14.708-18.588,14.708c-12.335,0-20.615-8.455-20.615-20.789C68.41,8.397,76.633,0,88.62,0
		c7.006,0,12.971,3.069,16.562,8.339l-5.039,5.212c-2.721-3.822-6.717-5.965-11.522-5.965c-7.992,0-13.261,5.501-13.261,13.666
		c0,8.165,5.212,13.724,13.55,13.724c5.906,0,10.191-3.069,11.639-8.512H107.613z M107.555,40.419l16.734-39.377h8.165L150,40.419
		h-6.659l-3.648-7.586l-24.668,7.586H107.555z M136.855,26.869l-5.096-10.771l-2.953-6.66l-2.838,6.66l-7.644,16.967L136.855,26.869
		z"/>
	<g>
		<path fill="#231F20" d="M0.601,72.347h2.705c0.015,0.386,0.097,0.751,0.247,1.097s0.364,0.653,0.642,0.922
			c0.278,0.27,0.627,0.479,1.048,0.627c0.421,0.149,0.902,0.224,1.444,0.224c0.461,0,0.871-0.053,1.229-0.158
			c0.358-0.106,0.662-0.251,0.911-0.438c0.249-0.186,0.434-0.41,0.554-0.672c0.121-0.263,0.181-0.543,0.181-0.842
			c0-0.255-0.05-0.49-0.149-0.705c-0.1-0.215-0.269-0.419-0.508-0.612c-0.239-0.193-0.574-0.372-1.004-0.536
			c-0.43-0.164-0.969-0.322-1.616-0.476c-0.911-0.304-1.71-0.571-2.398-0.801c-0.688-0.229-1.245-0.539-1.67-0.926
			s-0.741-0.826-0.946-1.316c-0.205-0.491-0.308-1.046-0.308-1.665c0-0.642,0.125-1.235,0.375-1.778s0.612-1.018,1.086-1.422
			s1.046-0.72,1.715-0.946c0.669-0.226,1.412-0.339,2.228-0.339c0.57,0,1.113,0.06,1.628,0.18c0.515,0.12,1.005,0.293,1.469,0.519
			c0.464,0.226,0.896,0.506,1.294,0.84c0.398,0.335,0.755,0.709,1.069,1.124l-1.303,2.45c-0.271-0.33-0.566-0.625-0.888-0.885
			c-0.322-0.26-0.671-0.483-1.048-0.67c-0.376-0.187-0.766-0.33-1.168-0.429c-0.402-0.099-0.812-0.148-1.229-0.148
			c-0.402,0-0.763,0.042-1.081,0.126S4.526,64.89,4.311,65.04c-0.216,0.151-0.377,0.334-0.483,0.551
			c-0.106,0.217-0.159,0.456-0.159,0.714c0,0.245,0.046,0.46,0.14,0.646c0.094,0.186,0.263,0.364,0.506,0.536
			s0.591,0.321,1.041,0.45c0.45,0.129,1.006,0.288,1.667,0.476c0.981,0.205,1.804,0.451,2.469,0.739s1.197,0.622,1.597,1
			c0.4,0.379,0.689,0.802,0.867,1.268c0.178,0.466,0.267,0.995,0.267,1.586c0,0.707-0.13,1.344-0.389,1.912
			c-0.259,0.567-0.636,1.046-1.129,1.436c-0.493,0.391-1.089,0.692-1.787,0.906c-0.698,0.213-1.475,0.32-2.33,0.32
			c-1.005,0-1.887-0.139-2.646-0.418c-0.76-0.278-1.387-0.661-1.882-1.149c-0.495-0.487-0.862-1.046-1.101-1.677
			C0.72,73.707,0.601,73.043,0.601,72.347z"/>
		<path fill="#231F20" d="M13.829,69.522c0-1.16,0.187-2.223,0.561-3.188c0.374-0.965,0.915-1.806,1.622-2.521
			c0.708-0.716,1.541-1.266,2.501-1.652c0.96-0.385,2.02-0.578,3.178-0.578c0.674,0,1.323,0.072,1.946,0.216
			s1.211,0.356,1.765,0.636c0.554,0.281,1.06,0.625,1.518,1.035s0.859,0.869,1.204,1.378l-1.958,2.03
			c-0.271-0.373-0.568-0.702-0.891-0.987c-0.322-0.285-0.67-0.527-1.044-0.724c-0.374-0.198-0.775-0.348-1.204-0.45
			s-0.874-0.153-1.336-0.153c-0.762,0-1.464,0.126-2.105,0.378c-0.642,0.252-1.191,0.611-1.649,1.075
			c-0.458,0.465-0.807,1.028-1.044,1.69c-0.238,0.662-0.357,1.381-0.357,2.156c0,0.797,0.119,1.521,0.357,2.172
			c0.238,0.651,0.59,1.213,1.055,1.685s1.024,0.834,1.677,1.086c0.652,0.252,1.378,0.378,2.177,0.378
			c0.572,0,1.102-0.07,1.589-0.209c0.488-0.139,0.925-0.352,1.314-0.638s0.722-0.636,1-1.05c0.279-0.414,0.484-0.885,0.616-1.413
			h2.749c-0.168,0.901-0.465,1.706-0.891,2.413c-0.425,0.708-0.953,1.309-1.583,1.804c-0.63,0.495-1.347,0.871-2.149,1.127
			s-1.669,0.385-2.601,0.385c-1.188,0-2.272-0.196-3.254-0.587c-0.982-0.392-1.831-0.946-2.545-1.664
			c-0.715-0.717-1.263-1.572-1.644-2.563S13.829,70.708,13.829,69.522z"/>
		<path fill="#231F20" d="M31.192,77.306V61.989h2.705v6.487h7.158v-6.487h2.705v15.317h-2.705v-6.41h-7.158v6.41H31.192z"/>
		<path fill="#231F20" d="M46.344,69.522c0-1.16,0.19-2.223,0.572-3.188c0.381-0.965,0.925-1.806,1.633-2.521
			c0.707-0.716,1.545-1.266,2.512-1.652c0.968-0.385,2.03-0.578,3.189-0.578c1.142,0,2.199,0.193,3.173,0.578
			c0.974,0.386,1.812,0.936,2.515,1.652c0.702,0.715,1.244,1.558,1.625,2.527c0.381,0.969,0.571,2.03,0.571,3.183
			c0,1.186-0.19,2.275-0.571,3.267s-0.923,1.846-1.625,2.563c-0.703,0.718-1.539,1.272-2.509,1.664
			c-0.971,0.392-2.03,0.587-3.179,0.587c-1.144,0-2.203-0.196-3.178-0.587c-0.976-0.392-1.816-0.946-2.523-1.664
			c-0.708-0.717-1.252-1.572-1.633-2.563C46.534,71.797,46.344,70.708,46.344,69.522z M49.049,69.862
			c0,0.775,0.122,1.494,0.368,2.156c0.246,0.662,0.598,1.229,1.056,1.701s1.01,0.834,1.655,1.086
			c0.645,0.252,1.352,0.378,2.122,0.378c0.762,0,1.466-0.126,2.11-0.378c0.646-0.252,1.2-0.615,1.666-1.086s0.823-1.037,1.072-1.695
			c0.249-0.659,0.374-1.386,0.374-2.184c0-0.775-0.125-1.491-0.374-2.146c-0.249-0.654-0.606-1.214-1.072-1.679
			c-0.466-0.464-1.021-0.823-1.666-1.075c-0.645-0.252-1.349-0.378-2.11-0.378c-0.763,0-1.469,0.126-2.117,0.378
			s-1.202,0.615-1.66,1.086s-0.81,1.035-1.056,1.689C49.171,68.372,49.049,69.087,49.049,69.862z"/>
		<path fill="#231F20" d="M63.815,69.522c0-1.16,0.191-2.223,0.572-3.188s0.925-1.806,1.633-2.521
			c0.707-0.716,1.545-1.266,2.513-1.652c0.968-0.385,2.03-0.578,3.188-0.578c1.142,0,2.199,0.193,3.173,0.578
			c0.974,0.386,1.812,0.936,2.515,1.652c0.703,0.715,1.244,1.558,1.625,2.527c0.381,0.969,0.571,2.03,0.571,3.183
			c0,1.186-0.19,2.275-0.571,3.267s-0.922,1.846-1.625,2.563c-0.703,0.718-1.539,1.272-2.509,1.664s-2.029,0.587-3.179,0.587
			c-1.144,0-2.203-0.196-3.178-0.587s-1.816-0.946-2.523-1.664c-0.708-0.717-1.252-1.572-1.633-2.563S63.815,70.708,63.815,69.522z
			 M66.521,69.862c0,0.775,0.123,1.494,0.368,2.156c0.246,0.662,0.598,1.229,1.056,1.701s1.01,0.834,1.655,1.086
			c0.645,0.252,1.353,0.378,2.122,0.378c0.762,0,1.466-0.126,2.111-0.378c0.645-0.252,1.2-0.615,1.666-1.086
			c0.465-0.472,0.822-1.037,1.071-1.695c0.25-0.659,0.374-1.386,0.374-2.184c0-0.775-0.124-1.491-0.374-2.146
			c-0.249-0.654-0.606-1.214-1.071-1.679c-0.466-0.464-1.021-0.823-1.666-1.075c-0.646-0.252-1.35-0.378-2.111-0.378
			c-0.763,0-1.468,0.126-2.117,0.378c-0.648,0.252-1.202,0.615-1.66,1.086s-0.81,1.035-1.056,1.689
			C66.644,68.372,66.521,69.087,66.521,69.862z"/>
		<path fill="#231F20" d="M82.212,77.306V61.989h2.704v12.953h7.114v2.364H82.212z"/>
		<path fill="#231F20" d="M0.656,89.902c0-1.16,0.191-2.223,0.572-3.188c0.381-0.965,0.926-1.806,1.633-2.522
			c0.708-0.715,1.545-1.266,2.513-1.651c0.968-0.386,2.03-0.578,3.189-0.578c1.142,0,2.199,0.192,3.173,0.578
			c0.974,0.385,1.812,0.936,2.515,1.651c0.703,0.716,1.244,1.559,1.625,2.527c0.381,0.969,0.571,2.03,0.571,3.183
			c0,1.186-0.19,2.274-0.571,3.267c-0.381,0.992-0.922,1.846-1.625,2.563c-0.703,0.718-1.539,1.272-2.509,1.664
			c-0.97,0.392-2.03,0.587-3.179,0.587c-1.144,0-2.203-0.196-3.178-0.587c-0.975-0.392-1.816-0.946-2.524-1.664
			c-0.707-0.717-1.251-1.572-1.633-2.563C0.847,92.177,0.656,91.088,0.656,89.902z M3.361,90.243c0,0.775,0.123,1.494,0.369,2.156
			c0.245,0.662,0.597,1.229,1.055,1.701s1.01,0.834,1.655,1.086c0.645,0.252,1.353,0.379,2.123,0.379
			c0.762,0,1.466-0.126,2.111-0.379c0.645-0.252,1.2-0.614,1.666-1.086c0.465-0.472,0.823-1.037,1.072-1.696
			c0.249-0.658,0.374-1.386,0.374-2.184c0-0.775-0.125-1.49-0.374-2.145c-0.25-0.655-0.607-1.214-1.072-1.679
			c-0.466-0.464-1.021-0.823-1.666-1.075s-1.349-0.379-2.111-0.379c-0.763,0-1.468,0.126-2.117,0.379
			c-0.649,0.252-1.203,0.615-1.661,1.086s-0.81,1.035-1.055,1.689C3.483,88.752,3.361,89.467,3.361,90.243z"/>
		<path fill="#231F20" d="M19.052,97.687V82.37h10.226v2.979h-7.521v4.024h6.048v2.364h-6.048v5.949H19.052z"/>
		<path fill="#231F20" d="M2.86,118.066H0l6.192-15.31h3.332l6.079,15.31h-2.544l-1.418-3.333h-7.34L2.86,118.066z M9.006,108.61
			l-1.013-2.567l-1.036,2.567l-1.644,3.76h5.314L9.006,108.61z M20.312,118.066H17.61v-15.31h5.426c3.422,0,5.561,2.071,5.561,5.156
			c0,2.657-1.621,4.143-4.053,4.503l4.548,5.651h-2.995l-4.728-5.381h-1.059V118.066z M20.312,110.457h2.814
			c1.801,0,2.792-0.766,2.792-2.319c0-1.576-0.991-2.409-2.792-2.409h-2.814V110.457z M37.471,105.638v12.428h-2.702v-12.428h-4.548
			v-2.882h11.753v2.882H37.471z"/>
		<path fill="#231F20" d="M43.139,113.107h2.705c0.015,0.385,0.097,0.751,0.247,1.097s0.364,0.653,0.643,0.922
			c0.277,0.269,0.627,0.478,1.048,0.627c0.421,0.149,0.902,0.224,1.443,0.224c0.461,0,0.871-0.053,1.229-0.159
			c0.358-0.105,0.662-0.251,0.911-0.438c0.249-0.186,0.434-0.41,0.554-0.672c0.121-0.262,0.182-0.543,0.182-0.842
			c0-0.255-0.05-0.49-0.149-0.705c-0.099-0.215-0.269-0.419-0.508-0.612c-0.239-0.193-0.573-0.372-1.004-0.536
			s-0.969-0.323-1.616-0.476c-0.911-0.304-1.71-0.571-2.398-0.801c-0.688-0.23-1.244-0.539-1.67-0.926
			c-0.425-0.387-0.74-0.826-0.945-1.316c-0.205-0.491-0.308-1.046-0.308-1.666c0-0.642,0.125-1.234,0.375-1.778
			s0.612-1.018,1.087-1.422c0.474-0.405,1.045-0.72,1.715-0.946c0.669-0.226,1.412-0.34,2.228-0.34c0.57,0,1.113,0.061,1.629,0.181
			c0.515,0.12,1.005,0.293,1.469,0.518c0.464,0.226,0.896,0.506,1.294,0.841s0.755,0.709,1.069,1.124l-1.303,2.45
			c-0.271-0.33-0.567-0.625-0.889-0.885c-0.322-0.26-0.671-0.484-1.048-0.671c-0.377-0.187-0.767-0.33-1.168-0.429
			c-0.402-0.099-0.813-0.148-1.229-0.148c-0.403,0-0.764,0.042-1.082,0.126c-0.317,0.084-0.585,0.201-0.801,0.352
			s-0.377,0.334-0.482,0.551c-0.106,0.217-0.159,0.455-0.159,0.714c0,0.246,0.046,0.46,0.141,0.646
			c0.094,0.186,0.262,0.364,0.506,0.536c0.243,0.171,0.591,0.321,1.041,0.45s1.006,0.287,1.667,0.476
			c0.981,0.205,1.805,0.451,2.469,0.739c0.665,0.288,1.197,0.622,1.598,1c0.399,0.379,0.688,0.802,0.866,1.268
			c0.178,0.466,0.267,0.995,0.267,1.586c0,0.707-0.129,1.344-0.389,1.912c-0.26,0.567-0.636,1.046-1.129,1.436
			c-0.494,0.39-1.09,0.692-1.787,0.906c-0.698,0.214-1.475,0.321-2.33,0.321c-1.005,0-1.888-0.14-2.646-0.418
			c-0.76-0.278-1.387-0.661-1.882-1.149c-0.496-0.488-0.862-1.046-1.101-1.677C43.258,114.467,43.139,113.803,43.139,113.107z"/>
	</g>
</g>
</svg>
