<?xml version="1.0" encoding="utf-8"?>
<!-- Generator: Adobe Illustrator 19.1.0, SVG Export Plug-In . SVG Version: 6.00 Build 0)  -->
<svg version="1.1"
	 id="svg34644" xmlns:cc="http://creativecommons.org/ns#" xmlns:dc="http://purl.org/dc/elements/1.1/" xmlns:rdf="http://www.w3.org/1999/02/22-rdf-syntax-ns#" xmlns:svg="http://www.w3.org/2000/svg" xmlns:sodipodi="http://sodipodi.sourceforge.net/DTD/sodipodi-0.dtd" xmlns:inkscape="http://www.inkscape.org/namespaces/inkscape" sodipodi:docname="peetjes_fixed.svg" inkscape:version="0.91 r13725"
	 xmlns="http://www.w3.org/2000/svg" xmlns:xlink="http://www.w3.org/1999/xlink" x="0px" y="0px" viewBox="-42 446 649 206.1"
	 style="enable-background:new -42 446 649 206.1;" xml:space="preserve">
<style type="text/css">
	.st0{fill:#767676;}
</style>
<sodipodi:namedview  bordercolor="#666666" inkscape:zoom="0.35" inkscape:cx="375" pagecolor="#ffffff" id="base" borderopacity="1.0" inkscape:cy="520" showgrid="false" inkscape:window-maximized="1" inkscape:window-y="0" inkscape:current-layer="layer1" inkscape:pageshadow="2" inkscape:document-units="px" inkscape:pageopacity="0.0" inkscape:window-height="1051" inkscape:window-width="1920" inkscape:window-x="0">
	</sodipodi:namedview>
<g id="layer1" inkscape:label="Layer 1" inkscape:groupmode="layer">
	<path id="XMLID_6876_" inkscape:connector-curvature="0" class="st0" d="M727.3,499.9c-3.1-2.9-6-3.4-7.5-3.4c-0.1,0-0.2,0-0.2,0
		l-3.3,0c3.1-2.2,5-5.8,5-9.9c0-6.7-5.5-12.2-12.2-12.1c-6.7,0-12.2,5.5-12.1,12.2c0,4,2,7.6,5,9.8l-3.3,0c-0.1,0-0.2,0-0.2,0
		c-0.2,0-0.5,0-0.7,0.1l-0.1-0.1c-0.9-5.9-3.3-9.3-5.6-11.5c-2.2-2.2-4.3-3.1-5.7-3.4c-0.3-0.1-0.7-0.2-1.1-0.2l-3.3,0
		c3.1-2.2,5-5.8,5-9.9c0-6.7-5.5-12.2-12.2-12.1s-12.2,5.5-12.1,12.2c0,4,2,7.6,5,9.8l-3.3,0c-0.4,0-0.7,0.1-1.1,0.2
		c-1.3,0.3-3.5,1-5.7,3.3c-3.1,3.2-5.9,10.4-7.5,17.3c-2-2.9-5.3-4.8-9.1-4.8c-5.2,0-9.5,3.5-10.7,8.3c-1-1.8-3.5-4.6-4.8-5.9
		c-3.1-2.9-6-3.4-7.5-3.4c-0.1,0-0.2,0-0.2,0l-3.3,0c3.1-2.2,5-5.8,5-9.9c0-6.7-5.5-12.2-12.2-12.1c-6.7,0-12.2,5.5-12.1,12.2
		c0,4,2,7.6,5,9.8l-3.3,0c-0.1,0-0.2,0-0.2,0c-1.5,0-4.5,0.5-7.5,3.4c-0.7,0.7-1.4,1.5-2,2.3c-4.2-4.1-10.4-4.1-10.4-4.1
		c3.1-2.4,5.1-6.1,5.1-10.3c0-7.2-5.8-13-13-13c-4.9,0-9.2,2.7-11.4,6.8c-3.2-2.1-9.8-3.8-11.9-4.3c2.2-2.8,3.6-6.3,3.5-10.2
		c0-9-7.2-16.2-16.2-16.3c-9,0-16.2,7.2-16.3,16.2c0,3.8,1.3,7.3,3.5,10.1c-3,0.7-9.8,2.5-15.2,7.6c0.1-6.1-5.1-11.1-11.3-10.4
		c-4.8,0.5-8.7,4.3-9.1,9.1c-0.4,3.8,1.4,7.3,4.2,9.3c-0.7,0.1-1.3,0.4-1.9,0.5c-1.4,0.5-3.7,1.7-6.1,4.3c-2.1-7.4-4.5-10.3-7.1-13
		c-2.2-2.2-4.3-3.1-5.7-3.4c-0.3-0.1-0.7-0.2-1.1-0.2l-3.3,0c3.1-2.2,5-5.8,5-9.9c0-6.7-5.5-12.2-12.2-12.1
		c-6.7,0-12.2,5.5-12.1,12.2c0,4,2,7.6,5,9.8l-3.3,0c-0.4,0-0.7,0.1-1.1,0.2c-1.3,0.3-3.5,1-5.7,3.3c-3.4,3.5-5.9,9.2-7.5,17
		c0,0-2.6-1.2-8-1.8c2.6-2.1,4.3-5.4,4.4-9.1c0-6.4-5.2-11.6-11.6-11.7c-6.4,0-11.6,5.2-11.7,11.6c0,3.9,1.9,7.3,4.7,9.4
		c-0.9,0.2-1.7,0.3-1.9,0.5c-1.3,0.2-8.1,3.1-12.4,7.7c-1.8-3.5-5.5-6-9.8-5.9c-4.8,0-8.8,3-10.4,7.3c-1.2-2.6-4.8-8.6-6.6-10.2
		c-3.1-2.9-6-3.4-7.5-3.4c-0.1,0-0.2,0-0.2,0l-3.3,0c3.1-2.2,5-5.8,5-9.9c0-6.7-5.5-12.2-12.2-12.1c-6.7,0-12.2,5.5-12.1,12.2
		c0,4,2,7.6,5,9.8l-3.3,0c-0.1,0-0.2,0-0.2,0c-1.5,0-4.5,0.5-7.5,3.4c-4.6,4.3-7.4,12.1-8.4,23.3c-6.4-17.4-17.1-21.9-19.2-22.2
		c-0.3,0-1-0.2-2-0.4c2.9-2.1,4.7-5.6,4.8-9.3c0-6.4-5.2-11.6-11.6-11.7c-6.4,0-11.6,5.2-11.7,11.6c0,3.9,1.9,7.2,4.7,9.4
		c-0.9,0.2-1.7,0.3-1.9,0.5c-1.4,0.2-5.8,1.4-10.4,7c-1.5-5.7-3.7-10-6.6-12.7c-3.1-2.9-6-3.4-7.5-3.4c-0.1,0-0.2,0-0.2,0l-3.3,0
		c3.1-2.2,5-5.8,5-9.9c0-6.7-5.5-12.2-12.2-12.1c-6.7,0-12.2,5.5-12.1,12.2c0,0.9,0.1,2.9,0.3,4.4c0,0-2.9-3.8-5.2-6.1
		c-2.2-2.2-4.3-3.1-5.7-3.4c-0.3-0.1-0.7-0.2-1.1-0.2l-3.3,0c3.1-2.2,5-5.8,5-9.9c0-6.7-5.5-12.2-12.2-12.1
		c-6.7,0-12.2,5.5-12.1,12.2c0,4,2,7.6,5,9.8l-3.3,0c-0.4,0-0.7,0.1-1.1,0.2c-1.3,0.3-3.5,1-5.7,3.3c-3.1,3.2-5.9,10.4-7.5,17.3
		c-2-2.9-5.3-4.8-9.1-4.8c-5.2,0-9.5,3.5-10.7,8.3c-1-1.8-3.5-4.6-4.8-5.9c-3.1-2.9-6-3.4-7.5-3.4c-0.1,0-0.2,0-0.2,0l-3.3,0
		c3.1-2.2,5-5.8,5-9.9c0-6.7-5.5-12.2-12.2-12.1c-6.7,0-12.2,5.5-12.1,12.2c0,4,2,7.6,5,9.8l-3.3,0c-0.1,0-0.2,0-0.2,0
		c-1.5,0-4.5,0.5-7.5,3.4c-0.7,0.7-1.4,1.5-2,2.3c-4.2-4.1-10.4-4.1-10.4-4.1c3.1-2.4,5.1-6.1,5.1-10.3c0-7.2-5.8-13-13-13
		c-4.9,0-9.2,2.7-11.4,6.8c-3.2-2.1-9.8-3.8-11.9-4.3c2.2-2.8,3.6-6.3,3.5-10.2c0-9-7.2-16.2-16.2-16.3c-9,0-16.2,7.2-16.3,16.2
		c0,3.8,1.3,7.3,3.5,10.1c-3.3,0.7-11.7,3-17.3,9.8c-2.5,3-6.1,9.2-8.2,15.4c-1.3-0.6-2.7-0.9-4.2-0.8c-3.2,0-6,1.4-8,3.6
		c-2.5-13.3-5.5-17-8.8-20.4c-2.2-2.2-4.3-3.1-5.7-3.4c-0.3-0.1-0.7-0.2-1.1-0.2l-3.3,0c3.1-2.2,5-5.8,5-9.9
		c0-6.7-5.5-12.2-12.2-12.1c-6.7,0-12.2,5.5-12.1,12.2c0,4,2,7.6,5,9.8c0,0-3.8,0.1-5.8,0.8c-2.9,1.1-5.7,4-15.4,11.1
		c0,0-0.1,1.5-0.1-2.2c0-6.4-5.2-11.6-11.6-11.7c-6.4,0-11.6,5.2-11.7,11.6c0,3.9,1.9,7.2,4.7,9.4c-0.9,0.2-1.7,0.3-1.9,0.5
		c-1.3,0.2-8.1,3.1-12.4,7.7c-1.8-3.5-5.5-6-9.8-5.9c-4.8,0-8.8,3-10.4,7.3c-1.2-2.6-4.8-8.6-6.6-10.2c-3.1-2.9-6-3.4-7.5-3.4
		c-0.1,0-0.2,0-0.2,0l-3.3,0c3.1-2.2,5-5.8,5-9.9c0-6.7-5.5-12.2-12.2-12.1c-6.7,0-12.2,5.5-12.1,12.2c0,4,2,7.6,5,9.8l-3.3,0
		c-0.1,0-0.2,0-0.2,0c-1.5,0-4.5,0.5-7.5,3.4c-4.6,4.3-7.4,12.1-8.4,23.3c-6.4-17.4-17.1-21.9-19.2-22.2c-0.3,0-1-0.2-2-0.4
		c2.9-2.1,4.7-5.6,4.8-9.3c0-6.4-5.2-11.6-11.6-11.7c-6.4,0-11.6,5.2-11.7,11.6c0,3.9,1.9,7.2,4.7,9.4c-0.9,0.2-1.7,0.3-1.9,0.5
		c-2.8,0.5-17.7,4.7-22.6,41.6c-0.3,1.9,1.1,3.7,3,4c1.9,0.3,3.7-1.1,4-3c2.2-17,6.6-25.9,10.4-30.6l-9.3,145.7l922,5.2l0.1-123.7
		l-0.4-0.4l0.4,0.4C736.2,517.4,733.3,505.6,727.3,499.9L727.3,499.9z"/>
</g>
</svg>
