<?xml version="1.0" encoding="UTF-8" standalone="no"?>
<!-- Created with Inkscape (http://www.inkscape.org/) -->

<svg
   xmlns:dc="http://purl.org/dc/elements/1.1/"
   xmlns:cc="http://creativecommons.org/ns#"
   xmlns:rdf="http://www.w3.org/1999/02/22-rdf-syntax-ns#"
   xmlns:svg="http://www.w3.org/2000/svg"
   xmlns="http://www.w3.org/2000/svg"
   xmlns:sodipodi="http://sodipodi.sourceforge.net/DTD/sodipodi-0.dtd"
   xmlns:inkscape="http://www.inkscape.org/namespaces/inkscape"
   width="210mm"
   height="297mm"
   viewBox="0 0 744.09448819 1052.3622047"
   id="svg34644"
   version="1.1"
   inkscape:version="0.91 r13725"
   sodipodi:docname="peetjes_fixed.svg">
  <defs
     id="defs34646" />
  <sodipodi:namedview
     id="base"
     pagecolor="#ffffff"
     bordercolor="#666666"
     borderopacity="1.0"
     inkscape:pageopacity="0.0"
     inkscape:pageshadow="2"
     inkscape:zoom="0.35"
     inkscape:cx="375"
     inkscape:cy="520"
     inkscape:document-units="px"
     inkscape:current-layer="layer1"
     showgrid="false"
     inkscape:window-width="1920"
     inkscape:window-height="1051"
     inkscape:window-x="0"
     inkscape:window-y="0"
     inkscape:window-maximized="1" />
  <metadata
     id="metadata34649">
    <rdf:RDF>
      <cc:Work
         rdf:about="">
        <dc:format>image/svg+xml</dc:format>
        <dc:type
           rdf:resource="http://purl.org/dc/dcmitype/StillImage" />
        <dc:title></dc:title>
      </cc:Work>
    </rdf:RDF>
  </metadata>
  <g
     inkscape:label="Layer 1"
     inkscape:groupmode="layer"
     id="layer1">
    <path
       d="m 901.63902,577.99082 c -4.3,-3 -8,-3.1 -9.9,-2.9 -0.1,0 -0.2,0 -0.3,0 l -4.1,0.6 c 3.4,-3.3 5.2,-8 4.5,-13.1 -1.2,-8.3 -8.9,-14.1 -17.2,-12.9 -8.3,1.2 -14.1,8.9 -12.9,17.2 0.7,5 3.8,9.1 7.9,11.3 l -4.1,0.6 c -0.1,0 -0.2,0 -0.3,0.1 -0.3,0 -0.6,0.1 -0.9,0.2 l -0.1,-0.1 c -2.1,-7.2 -5.7,-10.9 -8.9,-13.3 -3.1,-2.4 -5.9,-3.1 -7.6,-3.2 -0.4,-0.1 -0.9,-0.1 -1.4,0 l -4.1,0.6 c 3.4,-3.3 5.2,-8 4.5,-13.1 -1.2,-8.3 -8.9,-14.1 -17.1999,-12.9 -8.3,1.2 -14.1,8.9 -12.9,17.2 0.7,5 3.8,9.1 7.9,11.3 l -4.1,0.6 c -0.5,0.1 -0.9,0.2 -1.3,0.4 -1.6,0.6 -4.1,1.9 -6.5,5.1 -3.3,4.5 -5.5,13.9 -6.3,22.7 l 0,0 c -3,-3.2 -7.4,-5 -12.1,-4.4 -6.4,0.9 -11.1,6 -11.8,12.2 -1.6,-2 -5.2,-5.1 -7,-6.4 -4.3,-3 -8.00003,-3.1 -9.90003,-2.9 -0.1,0 -0.2,0 -0.3,0 l -4.1,0.6 c 3.4,-3.3 5.2,-8 4.5,-13.1 -1.2,-8.3 -8.9,-14.1 -17.2,-12.9 -8.3,1.2 -14.1,8.9 -12.9,17.2 0.7,5 3.8,9.1 7.9,11.3 l -4.1,0.6 c -0.1,0 -0.2,0 -0.3,0.1 -1.9,0.3 -5.5,1.4 -8.7,5.5 -0.8,1 -1.5,2.1 -2.1,3.2 l 0,0 c -5.9,-4.3 -13.6,-3.2 -13.6,-3.2 l 0,0 c 3.4,-3.5 5.3,-8.4 4.5,-13.7 -1.2,-8.9 -9.4,-15.1 -18.3,-13.8 -6.1,0.9 -10.9,5 -12.9,10.4 -4.3,-2 -12.8,-3 -15.5,-3.2 2.3,-3.8 3.3,-8.4 2.6,-13.2 -1.6,-11.1 -11.8,-18.8 -22.9,-17.3 -11.1,1.6 -18.8,11.8 -17.3,22.9 0.7,4.7 2.9,8.8 6.1,11.9 -3.6,1.4 -11.7,4.8 -17.5,12.1 -0.9,-7.6 -8.2,-12.8 -15.8,-10.9 -5.8,1.4 -10,6.9 -9.7,12.9 0.2,4.8 3,8.8 6.8,10.8 -0.9,0.3 -1.6,0.7 -2.2,1 -1.7,0.9 -4.3,2.7 -6.8,6.4 -3.9,-8.8 -7.4,-11.9 -11,-14.8 -3.1,-2.4 -5.9,-3.1 -7.6,-3.2 -0.4,-0.1 -0.9,-0.1 -1.4,0 l -4.1,0.6 c 3.4,-3.3 5.2,-8 4.5,-13.1 -1.2,-8.3 -8.9,-14.1 -17.2,-12.9 -8.3,1.2 -14.1,8.9 -12.9,17.2 0.7,5 3.8,9.1 7.9,11.3 l -4.1,0.6 c -0.5,0.1 -0.9,0.2 -1.3,0.4 -1.6,0.6 -4.1,1.9 -6.5,5.1 -3.6,4.9 -5.7,12.4 -6.3,22.4 0,0 -3.4,-1 -10.2,-0.8 2.9,-3.1 4.4,-7.4 3.8,-12 -1.1,-7.9 -8.5,-13.5 -16.4,-12.4 -7.9,1.1 -13.5,8.5 -12.4,16.4 0.7,4.8 3.6,8.7 7.5,10.8 -1.1,0.4 -2,0.7 -2.3,0.9 -1.6,0.5 -9.5,5.2 -14,11.7 l 0,0 c -2.9,-4 -7.9,-6.4 -13.2,-5.6 -5.9,0.8 -10.4,5.3 -11.6,10.8 l 0,0 c -2,-3 -7.5,-9.8 -9.9,-11.5 -4.3,-3 -8,-3.1 -9.9,-2.9 -0.1,0 -0.2,0 -0.3,0 l -4.1,0.6 c 3.4,-3.3 5.2,-8 4.5,-13.1 -1.2,-8.3 -8.9,-14.1 -17.2,-12.9 -8.3,1.2 -14.1,8.9 -12.9,17.2 0.7,5 3.8,9.1 7.9,11.3 l -4.1,0.6 c -0.1,0 -0.2,0 -0.3,0.1 -1.9,0.3 -5.5,1.4 -8.7,5.5 -4.9,6.1 -7,16.2 -6.3,30.3 l 0,0 c -10.9,-20.4 -25,-24.1 -27.7,-24.1 -0.4,0 -1.3,-0.1 -2.5,-0.2 3.2,-3.1 4.9,-7.7 4.3,-12.4 -1.1,-7.9 -8.5,-13.5 -16.4,-12.4 -7.9,1.1 -13.5,8.5 -12.4,16.4 0.7,4.8 3.6,8.6 7.5,10.8 -1.1,0.4 -2,0.7 -2.3,0.9 -1.7,0.5 -6.9,2.7 -11.6,10.5 -2.8,-6.8 -6.3,-11.7 -10.4,-14.6 -4.3,-3 -8,-3.1 -9.9,-2.9 -0.1,0 -0.2,0 -0.3,0 l -4.1,0.6 c 3.4,-3.3 5.2,-8 4.5,-13.1 -1.2,-8.3 -8.9,-14.1 -17.2,-12.9 -8.3,1.2 -14.1,8.9 -12.9,17.2 0.2,1.1 0.6,3.6 1.2,5.4 0,0 -4.3,-4.2 -7.5,-6.7 -3.1,-2.4 -5.9,-3.1 -7.6,-3.2 -0.4,-0.1 -0.9,-0.1 -1.4,0 l -4.1,0.6 c 3.4,-3.3 5.2,-8 4.5,-13.1 -1.2,-8.3 -8.9,-14.1 -17.2,-12.9 -8.3,1.2 -14.1,8.9 -12.9,17.2 0.7,5 3.8,9.1 7.9,11.3 l -4.1,0.6 c -0.5,0.1 -0.9,0.2 -1.3,0.4 -1.6,0.6 -4.1,1.9 -6.5,5.1 -3.3,4.5 -5.5,13.9 -6.3,22.7 l 0,0 c -3,-3.2 -7.4,-5 -12.1,-4.4 -6.4,0.9 -11.1,6 -11.8,12.2 -1.6,-2 -5.2,-5.1 -7,-6.4 -4.3,-3 -8,-3.1 -9.9,-2.9 -0.1,0 -0.2,0 -0.3,0 l -4.10001,0.6 c 3.4,-3.3 5.20001,-8 4.50001,-13.1 -1.20001,-8.3 -8.90001,-14.1 -17.20001,-12.9 -8.3,1.2 -14.1,8.9 -12.9,17.2 0.7,5 3.8,9.1 7.9,11.3 l -4.1,0.6 c -0.1,0 -0.2,0 -0.3,0.1 -1.9,0.3 -5.5,1.4 -8.7,5.5 -0.8,1 -1.5,2.1 -2.1,3.2 l 0,0 c -5.9,-4.3 -13.6,-3.2 -13.6,-3.2 l 0,0 c 3.4,-3.5 5.3,-8.4 4.5,-13.7 -1.2,-8.9 -9.4,-15.1 -18.3,-13.8 -6.1,0.9 -10.9,5 -12.9,10.4 -4.3,-2 -12.8,-3 -15.5,-3.2 2.3,-3.8 3.3,-8.4 2.6,-13.2 -1.6,-11.1 -11.799996,-18.8 -22.899996,-17.3 -11.1,1.6 -18.8,11.8 -17.3,22.9 0.7,4.7 2.9,8.8 6.1,11.9 -4,1.5 -13.9,5.8 -19.7,15.2 -2.6,4.2 -5.9,12.4 -7.4,20.5 -1.7,-0.5 -3.5,-0.6 -5.3,-0.3 -3.9,0.6 -7.2,2.8 -9.3,5.8 -5.4,-16 -9.8,-20.1 -14.4,-23.7 -3.1,-2.4 -5.9,-3.1 -7.5999999,-3.2 -0.4,-0.1 -0.9,-0.1 -1.4,0 l -4.1,0.6 c 3.4,-3.3 5.2,-8 4.5,-13.1 -1.2,-8.3 -8.89999996,-14.1 -17.199997,-12.9 -8.3000001,1.2 -14.1000001,8.9 -12.9000001,17.2 0.7,5 3.8,9.1 7.9,11.3 0,0 -4.7,0.8 -7,2 -3.4,1.9 -6.4,5.9 -17.1,16.4 0,0 0.2,1.9 -0.5,-2.7 -1.1,-7.9 -8.5,-13.5 -16.4,-12.4 -7.9,1.1 -13.5,8.5 -12.4,16.4 0.7,4.8 3.6,8.6 7.5,10.8 -1.1,0.4 -2,0.7 -2.3,0.9 -1.6,0.5 -9.5,5.2 -14,11.7 l 0,0 c -2.9,-4 -7.9,-6.4 -13.2,-5.6 -5.9,0.8 -10.4,5.3 -11.599997,10.8 l 0,0 c -2,-3 -7.5,-9.8 -9.9,-11.5 -4.3,-3 -8,-3.1 -9.9,-2.9 -0.1,0 -0.2,0 -0.3,0 l -4.1,0.6 c 3.4,-3.3 5.2,-8 4.5,-13.1 -1.2,-8.3 -8.9,-14.1 -17.2,-12.9 -8.3,1.2 -14.1,8.9 -12.9,17.2 0.7,5 3.8,9.1 7.9,11.3 l -4.1,0.6 c -0.1,0 -0.2,0 -0.3,0.1 -1.9,0.3 -5.5,1.4 -8.7,5.5 -4.9,6.1 -7,16.2 -6.3,30.3 l 0,0 c -10.9,-20.4 -25,-24.1 -27.7,-24.1 -0.4,0 -1.3,-0.1 -2.5,-0.2 3.2,-3.1 4.9,-7.7 4.3,-12.4 -1.1,-7.9 -8.5,-13.5 -16.4,-12.4 -7.9,1.1 -13.5,8.5 -12.4,16.4 0.7,4.8 3.6,8.6 7.5,10.8 -1.1,0.4 -2,0.7 -2.3,0.9 -3.4,1.1 -21.1,8.9 -20.7,55.5 0,2.4 2,4.4 4.4,4.4 2.4,0 4.4,-2 4.4,-4.4 -0.2,-21.4 3.7,-33.2 7.5,-39.7 l 13.9,182 1142.09993,-154.7 -21.5,-153.1 -0.5,-0.4 0.6,0.4 c -3.3,-21.9 -9,-36 -17.4,-42 z"
       id="XMLID_6876_"
       inkscape:connector-curvature="0"
       style="display:inline;fill:#767676" />
  </g>
</svg>
