<?xml version="1.0" encoding="utf-8"?>
<!-- Generator: Adobe Illustrator 19.1.0, SVG Export Plug-In . SVG Version: 6.00 Build 0)  -->
<svg version="1.1" id="Layer_1" xmlns="http://www.w3.org/2000/svg" xmlns:xlink="http://www.w3.org/1999/xlink" x="0px" y="0px"
	 viewBox="270 363.4 401.2 471.5" style="enable-background:new 270 363.4 401.2 471.5;" xml:space="preserve">
<style type="text/css">
	.st0{fill:#E9B54A;}
	.st1{fill:#EAEAE5;}
	.st2{fill:#5794D0;}
	.st3{fill:#F3D79B;}
	.st4{fill:#CB4C44;}
	.st5{fill:none;stroke:#009DE0;stroke-width:3;stroke-miterlimit:10;}
	.st6{fill:#9F3731;}
	.st7{fill:#B89899;}
	.st8{fill:#4C7BAC;}
	.st9{fill:#4E84C1;}
	.st10{fill:#D9B95C;}
	.st11{fill:#F1CB64;}
	.st12{fill:#FFFFFF;}
	.st13{fill:#E4D648;}
	.st14{fill:#4669AE;}
	.st15{fill:#C84134;}
	.st16{fill:#E7B9B6;}
	.st17{fill:#9C3C31;}
</style>
<g>
	<path class="st0" d="M659.3,741.1H282c-6.6,0-12-5.4-12-12V492.8c0-6.6,5.4-12,12-12h377.2c6.6,0,12,5.4,12,12v236.3
		C671.3,735.7,665.9,741.1,659.3,741.1z"/>
	<path class="st1" d="M555,709.6H314.8c-6.6,0-12-5.4-12-12V522.3c0-6.6,5.4-12,12-12H555c6.6,0,12,5.4,12,12v175.3
		C567,704.2,561.6,709.6,555,709.6z"/>
	<g>
		<path class="st2" d="M362.5,363.4l6.4,6.7l6.4,6.7l6.3,6.8l3.2,3.4c1.1,1.1,2.1,2.3,3.1,3.4c3.9,4.8,7.9,9.5,11.8,14.2l11.9,14.2
			l47.5,56.7l-3-0.1l44.6-48.2l11.1-12l5.6-6l2.8-3c0.9-1,1.9-2,2.9-2.9l11.8-11.5c3.9-3.8,7.9-7.6,11.9-11.4
			c-3.4,4.3-6.9,8.5-10.4,12.7l-10.5,12.6c-0.9,1.1-1.7,2.1-2.7,3.1l-2.8,3l-5.6,6l-11.1,12L459.1,478l-1.5,1.7l-1.5-1.7l-47.5-56.7
			l-11.9-14.2c-4-4.7-7.9-9.5-11.9-14.1c-1-1.2-1.9-2.4-2.9-3.6l-2.8-3.7l-5.6-7.4l-5.5-7.4L362.5,363.4z"/>
	</g>
	<ellipse class="st0" cx="452.3" cy="473.9" rx="32.1" ry="20.7"/>
	<polygon class="st0" points="330.3,731.2 302.8,834.9 371.7,731.2 	"/>
	<polygon class="st0" points="538.8,731.2 602.4,834.2 570.6,722.7 	"/>
	<path class="st2" d="M644.2,642.7h-44.8c-6.6,0-12-5.4-12-12V509.9c0-6.6,5.4-12,12-12h44.8c6.6,0,12,5.4,12,12v120.8
		C656.2,637.3,650.8,642.7,644.2,642.7z"/>
	<ellipse class="st3" cx="623.5" cy="536.5" rx="21.1" ry="21.6"/>
	<ellipse class="st3" cx="621.8" cy="604.2" rx="21.1" ry="21.6"/>
	
		<rect x="616.1" y="511.7" transform="matrix(-0.8562 -0.5166 0.5166 -0.8562 877.2429 1320.9114)" class="st4" width="12.6" height="53.3"/>
	
		<rect x="615.3" y="575.8" transform="matrix(-0.8968 0.4424 -0.4424 -0.8968 1445.5793 867.7775)" class="st4" width="12.6" height="53.3"/>
	<line class="st5" x1="587.4" y1="655.3" x2="654.7" y2="658.2"/>
	<line class="st5" x1="590.1" y1="665.8" x2="651.9" y2="665.8"/>
	<line class="st5" x1="587.4" y1="677.4" x2="653.3" y2="677.4"/>
	<line class="st5" x1="587.4" y1="686.7" x2="651.9" y2="686.7"/>
	<line class="st5" x1="590.1" y1="698.9" x2="651.9" y2="698.9"/>
	<polygon class="st4" points="567,668.8 432.5,668.8 462.7,698.2 567,698.2 	"/>
	<polygon class="st2" points="567,670.3 470.9,670.3 429,673 463.6,696.7 567,696.7 	"/>
	<g id="XMLID_6889_">
		<g id="XMLID_7475_">
			<g id="XMLID_7476_">
				<polygon id="XMLID_7477_" class="st6" points="558.4,679.6 550.1,683.3 548.6,686.7 557.6,682.3 				"/>
			</g>
		</g>
		<g id="XMLID_7472_">
			<g id="XMLID_7473_">
				<path id="XMLID_7474_" class="st7" d="M557.1,682.3L557.1,682.3L557.1,682.3L557.1,682.3L557.1,682.3
					C557.2,682.3,557.2,682.3,557.1,682.3C557.2,682.3,557.2,682.3,557.1,682.3C557.2,682.3,557.1,682.3,557.1,682.3"/>
			</g>
		</g>
		<g id="XMLID_7459_">
			<g id="XMLID_7460_">
				<path id="XMLID_7461_" class="st7" d="M551.9,682.6L551.9,682.6L551.9,682.6C551.9,682.5,551.9,682.5,551.9,682.6
					C552,682.5,552,682.6,551.9,682.6C552,682.6,552,682.6,551.9,682.6L551.9,682.6 M551.8,682.7
					C551.8,682.7,551.7,682.7,551.8,682.7C551.7,682.6,551.7,682.6,551.8,682.7C551.8,682.6,551.8,682.6,551.8,682.7
					C551.8,682.6,551.8,682.6,551.8,682.7L551.8,682.7L551.8,682.7 M551.6,682.8L551.6,682.8C551.6,682.7,551.6,682.7,551.6,682.8
					C551.6,682.7,551.6,682.7,551.6,682.8C551.6,682.7,551.6,682.7,551.6,682.8C551.6,682.7,551.6,682.8,551.6,682.8L551.6,682.8
					 M551.4,682.8L551.4,682.8L551.4,682.8L551.4,682.8C551.5,682.8,551.5,682.8,551.4,682.8C551.5,682.8,551.5,682.8,551.4,682.8
					L551.4,682.8 M551.3,682.9C551.3,682.9,551.2,682.9,551.3,682.9C551.2,682.9,551.2,682.9,551.3,682.9
					C551.3,682.8,551.3,682.8,551.3,682.9C551.3,682.8,551.3,682.9,551.3,682.9L551.3,682.9L551.3,682.9 M551.1,683L551.1,683
					C551.1,682.9,551.1,682.9,551.1,683C551.1,682.9,551.1,682.9,551.1,683C551.1,682.9,551.1,682.9,551.1,683L551.1,683L551.1,683
					 M550.9,683.1L550.9,683.1C550.9,683,550.9,683,550.9,683.1C550.9,683,550.9,683,550.9,683.1C551,683,551,683,550.9,683.1
					C551,683,551,683.1,550.9,683.1C551,683.1,550.9,683.1,550.9,683.1 M550.8,683.1L550.8,683.1
					C550.7,683.1,550.7,683.1,550.8,683.1L550.8,683.1L550.8,683.1L550.8,683.1L550.8,683.1 M550.6,683.2L550.6,683.2L550.6,683.2
					C550.6,683.1,550.6,683.1,550.6,683.2C550.6,683.1,550.6,683.2,550.6,683.2L550.6,683.2L550.6,683.2 M550.4,683.2L550.4,683.2
					L550.4,683.2C550.5,683.2,550.5,683.2,550.4,683.2L550.4,683.2L550.4,683.2"/>
			</g>
		</g>
		<g id="XMLID_7456_">
			<g id="XMLID_7457_">
				<polygon id="XMLID_7458_" class="st8" points="549.4,688.3 551.3,690.5 554.2,690.3 552.2,688.2 				"/>
			</g>
		</g>
		<g id="XMLID_7453_">
			<g id="XMLID_7454_">
				<polyline id="XMLID_7455_" class="st9" points="556.8,677 556.6,676.9 557.4,674.9 557.6,675.1 				"/>
			</g>
		</g>
		<g id="XMLID_7450_">
			<g id="XMLID_7451_">
				<polyline id="XMLID_7452_" class="st10" points="557.4,674.9 556,675.1 555.2,677.1 556.6,676.9 556.5,677.3 				"/>
			</g>
		</g>
		<g id="XMLID_7447_">
			<g id="XMLID_7448_">
				<polyline id="XMLID_7449_" class="st10" points="556.8,677 557,677.1 557.9,675 557.6,675.1 				"/>
			</g>
		</g>
		<g id="XMLID_7444_">
			<g id="XMLID_7445_">
				<polyline id="XMLID_7446_" class="st9" points="557.9,675 558.7,676.2 557.9,678.2 557,677.1 556.9,677.4 				"/>
			</g>
		</g>
		<g id="XMLID_7441_">
			<g id="XMLID_7442_">
				<polyline id="XMLID_7443_" class="st2" points="556.7,677.2 556.5,677.1 557.4,675 557.5,675.2 				"/>
			</g>
		</g>
		<g id="XMLID_7438_">
			<g id="XMLID_7439_">
				<polyline id="XMLID_7440_" class="st8" points="554.9,676 554.9,676 555.2,676.4 555.8,676.4 555.5,676 				"/>
			</g>
		</g>
		<g id="XMLID_7435_">
			<g id="XMLID_7436_">
				<polyline id="XMLID_7437_" class="st11" points="557.4,675.1 556,675.3 555.1,677.3 556.5,677.1 556.4,677.5 				"/>
			</g>
		</g>
		<g id="XMLID_7432_">
			<g id="XMLID_7433_">
				<polygon id="XMLID_7434_" class="st11" points="555.8,675.5 555,677.5 556.4,677.3 557.3,675.3 				"/>
			</g>
		</g>
		<g id="XMLID_7429_">
			<g id="XMLID_7430_">
				<polygon id="XMLID_7431_" class="st12" points="556.5,676.8 557.1,675.2 556,675.4 555.4,676.9 				"/>
			</g>
		</g>
		<g id="XMLID_7426_">
			<g id="XMLID_7427_">
				<polygon id="XMLID_7428_" class="st11" points="556.7,675.6 556.5,676.1 556.7,676 556.9,675.6 				"/>
			</g>
		</g>
		<g id="XMLID_7423_">
			<g id="XMLID_7424_">
				<polygon id="XMLID_7425_" class="st11" points="555.5,675.8 555.3,676.2 555.6,676.2 555.8,675.8 				"/>
			</g>
		</g>
		<g id="XMLID_7420_">
			<g id="XMLID_7421_">
				<polygon id="XMLID_7422_" class="st2" points="555.6,676.2 555.8,675.8 555.9,676 555.7,676.4 				"/>
			</g>
		</g>
		<g id="XMLID_7417_">
			<g id="XMLID_7418_">
				<polygon id="XMLID_7419_" class="st2" points="556.7,676 556.9,675.6 557.1,675.8 556.9,676.2 				"/>
			</g>
		</g>
		<g id="XMLID_7414_">
			<g id="XMLID_7415_">
				<polyline id="XMLID_7416_" class="st11" points="556.7,677.2 556.9,677.3 557.8,675.2 557.5,675.2 				"/>
			</g>
		</g>
		<g id="XMLID_7411_">
			<g id="XMLID_7412_">
				<polyline id="XMLID_7413_" class="st8" points="558.8,677.6 558.8,677.6 558.3,677.7 558,677.3 558.5,677.2 				"/>
			</g>
		</g>
		<g id="XMLID_7408_">
			<g id="XMLID_7409_">
				<polyline id="XMLID_7410_" class="st2" points="557.8,675.2 558.6,676.4 557.9,678.4 557,677.2 556.8,677.6 				"/>
			</g>
		</g>
		<g id="XMLID_7405_">
			<g id="XMLID_7406_">
				<polygon id="XMLID_7407_" class="st2" points="558.6,676.6 557.8,678.7 556.9,677.5 557.7,675.5 				"/>
			</g>
		</g>
		<g id="XMLID_7402_">
			<g id="XMLID_7403_">
				<polygon id="XMLID_7404_" class="st12" points="557.2,677.1 557.8,675.5 558.5,676.4 557.9,678 				"/>
			</g>
		</g>
		<g id="XMLID_7399_">
			<g id="XMLID_7400_">
				<polygon id="XMLID_7401_" class="st2" points="557.9,676.1 557.7,676.6 557.5,676.4 557.7,675.9 				"/>
			</g>
		</g>
		<g id="XMLID_7396_">
			<g id="XMLID_7397_">
				<polygon id="XMLID_7398_" class="st2" points="558.6,677 558.4,677.5 558.3,677.3 558.4,676.8 				"/>
			</g>
		</g>
		<g id="XMLID_7393_">
			<g id="XMLID_7394_">
				<polygon id="XMLID_7395_" class="st11" points="558.3,677.3 558.4,676.8 558.2,676.9 558,677.3 				"/>
			</g>
		</g>
		<g id="XMLID_7390_">
			<g id="XMLID_7391_">
				<polygon id="XMLID_7392_" class="st11" points="557.5,676.4 557.7,675.9 557.5,676 557.3,676.4 				"/>
			</g>
		</g>
		<g id="XMLID_7387_">
			<g id="XMLID_7388_">
				<polygon id="XMLID_7389_" class="st8" points="557.6,676.1 557.6,676.1 557.3,675.7 556.8,675.8 557.1,676.2 				"/>
			</g>
		</g>
		<g id="XMLID_7384_">
			<g id="XMLID_7385_">
				<polygon id="XMLID_7386_" class="st13" points="553.1,688.3 553.2,688.4 557.3,678.1 557.1,678.1 				"/>
			</g>
		</g>
		<g id="XMLID_7381_">
			<g id="XMLID_7382_">
				<polygon id="XMLID_7383_" class="st13" points="553.4,688.6 553.5,688.8 557.6,678 557.4,678.1 				"/>
			</g>
		</g>
		<g id="XMLID_7378_">
			<g id="XMLID_7379_">
				<polygon id="XMLID_7380_" class="st13" points="553.7,688.9 553.8,689.1 558,678 557.8,678 				"/>
			</g>
		</g>
		<g id="XMLID_7375_">
			<g id="XMLID_7376_">
				<polygon id="XMLID_7377_" class="st14" points="551.4,687.7 551.6,687.7 555.8,677.6 555.7,677.5 				"/>
			</g>
		</g>
		<g id="XMLID_7372_">
			<g id="XMLID_7373_">
				<polygon id="XMLID_7374_" class="st14" points="551,687.7 551.2,687.7 555.6,677.3 555.5,677.2 				"/>
			</g>
		</g>
		<g id="XMLID_7369_">
			<g id="XMLID_7370_">
				<polygon id="XMLID_7371_" class="st14" points="550.5,687.7 550.7,687.7 555.4,677 555.3,676.9 				"/>
			</g>
		</g>
		<g id="XMLID_7366_">
			<g id="XMLID_7367_">
				<polygon id="XMLID_7368_" class="st2" points="558.3,677.3 557.2,676 552.2,688.2 554.2,690.3 554.2,690.3 558.7,677.9 				"/>
			</g>
		</g>
		<g id="XMLID_7363_">
			<g id="XMLID_7364_">
				<polygon id="XMLID_7365_" class="st11" points="555.6,676.2 554.8,676.3 549.4,688.3 549.4,688.3 552.2,688.2 557.2,676 				"/>
			</g>
		</g>
		<g id="XMLID_7360_">
			<g id="XMLID_7361_">
				<polygon id="XMLID_7362_" class="st11" points="557.5,677 553.1,688.3 553.2,688.4 557.6,677.2 				"/>
			</g>
		</g>
		<g id="XMLID_7357_">
			<g id="XMLID_7358_">
				<polygon id="XMLID_7359_" class="st11" points="557.7,677.3 553.4,688.6 553.5,688.8 557.8,677.5 				"/>
			</g>
		</g>
		<g id="XMLID_7354_">
			<g id="XMLID_7355_">
				<polygon id="XMLID_7356_" class="st11" points="558,677.6 553.7,688.9 553.8,689.1 558.1,677.8 				"/>
			</g>
		</g>
		<g id="XMLID_7351_">
			<g id="XMLID_7352_">
				<polygon id="XMLID_7353_" class="st2" points="556.1,676.6 551.4,687.7 551.6,687.7 556.3,676.5 				"/>
			</g>
		</g>
		<g id="XMLID_7348_">
			<g id="XMLID_7349_">
				<polygon id="XMLID_7350_" class="st2" points="555.8,676.6 551,687.7 551.2,687.7 555.9,676.6 				"/>
			</g>
		</g>
		<g id="XMLID_7345_">
			<g id="XMLID_7346_">
				<polygon id="XMLID_7347_" class="st2" points="555.4,676.7 550.5,687.7 550.7,687.7 555.6,676.6 				"/>
			</g>
		</g>
		<g id="XMLID_7342_">
			<g id="XMLID_7343_">
				<polygon id="XMLID_7344_" class="st15" points="561.1,684.7 558.4,682.3 558.1,683 550.1,683.3 548.6,686.7 556.9,686.4 
					556.6,687.1 				"/>
			</g>
		</g>
		<g id="XMLID_7339_">
			<g id="XMLID_7340_">
				<polygon id="XMLID_7341_" class="st15" points="558.6,679.5 549.7,679.8 550.5,681.1 549,682.5 557.6,682.3 				"/>
			</g>
		</g>
		<g id="XMLID_7336_">
			<g id="XMLID_7337_">
				<rect id="XMLID_7338_" x="557.1" y="686.2" class="st16" width="0.1" height="0.1"/>
			</g>
		</g>
		<g id="XMLID_7331_">
			<g id="XMLID_7332_">
				<path id="XMLID_7333_" class="st16" d="M557.1,686.4L557.1,686.4C557.1,686.4,557,686.4,557.1,686.4
					C557.1,686.3,557.1,686.3,557.1,686.4C557.1,686.3,557.1,686.3,557.1,686.4C557.1,686.3,557.1,686.4,557.1,686.4L557.1,686.4
					 M557,686.6L557,686.6C557,686.6,557,686.5,557,686.6C557,686.5,557,686.5,557,686.6C557,686.5,557,686.5,557,686.6
					C557.1,686.5,557.1,686.5,557,686.6C557.1,686.5,557,686.6,557,686.6"/>
			</g>
		</g>
		<g id="XMLID_7328_">
			<g id="XMLID_7329_">
				<path id="XMLID_7330_" class="st16" d="M557,686.7L557,686.7C556.9,686.7,556.9,686.7,557,686.7
					C556.9,686.7,556.9,686.7,557,686.7L557,686.7L557,686.7L557,686.7L557,686.7L557,686.7"/>
			</g>
		</g>
		<g id="XMLID_7302_">
			<g id="XMLID_7303_">
				<path id="XMLID_7304_" class="st16" d="M560.7,684.8C560.6,684.8,560.6,684.8,560.7,684.8C560.6,684.8,560.6,684.7,560.7,684.8
					C560.6,684.7,560.6,684.7,560.7,684.8C560.7,684.7,560.7,684.7,560.7,684.8L560.7,684.8L560.7,684.8 M560.5,684.9L560.5,684.9
					C560.5,684.8,560.5,684.8,560.5,684.9C560.5,684.8,560.5,684.8,560.5,684.9C560.5,684.8,560.5,684.8,560.5,684.9
					C560.5,684.8,560.5,684.9,560.5,684.9L560.5,684.9 M560.3,685L560.3,685C560.3,684.9,560.3,684.9,560.3,685
					C560.3,684.9,560.3,684.9,560.3,685C560.3,684.9,560.4,684.9,560.3,685C560.4,684.9,560.4,685,560.3,685L560.3,685 M560.2,685
					C560.2,685,560.1,685,560.2,685C560.1,685,560.1,685,560.2,685L560.2,685L560.2,685L560.2,685L560.2,685 M560,685.1L560,685.1
					L560,685.1L560,685.1L560,685.1C560.1,685.1,560,685.1,560,685.1L560,685.1 M559.9,685.2C559.8,685.2,559.8,685.2,559.9,685.2
					C559.8,685.2,559.8,685.2,559.9,685.2C559.8,685.1,559.8,685.1,559.9,685.2C559.9,685.1,559.9,685.2,559.9,685.2L559.9,685.2
					L559.9,685.2 M559.7,685.3L559.7,685.3C559.7,685.3,559.7,685.2,559.7,685.3C559.7,685.2,559.7,685.2,559.7,685.3
					C559.7,685.2,559.7,685.2,559.7,685.3L559.7,685.3L559.7,685.3 M559.5,685.4L559.5,685.4C559.5,685.3,559.5,685.3,559.5,685.4
					C559.5,685.3,559.5,685.3,559.5,685.4C559.5,685.3,559.6,685.3,559.5,685.4C559.6,685.4,559.6,685.4,559.5,685.4L559.5,685.4
					 M559.4,685.5C559.4,685.5,559.3,685.5,559.4,685.5C559.3,685.4,559.3,685.4,559.4,685.5C559.4,685.4,559.4,685.4,559.4,685.5
					C559.4,685.4,559.4,685.4,559.4,685.5C559.4,685.4,559.4,685.5,559.4,685.5L559.4,685.5 M559.2,685.6
					C559.2,685.6,559.2,685.5,559.2,685.6C559.2,685.5,559.2,685.5,559.2,685.6C559.2,685.5,559.2,685.5,559.2,685.6
					C559.2,685.5,559.2,685.5,559.2,685.6C559.2,685.5,559.2,685.5,559.2,685.6C559.2,685.5,559.2,685.6,559.2,685.6 M559.1,685.6
					C559,685.6,559,685.6,559.1,685.6C559,685.6,559,685.6,559.1,685.6C559,685.6,559,685.6,559.1,685.6L559.1,685.6L559.1,685.6
					L559.1,685.6 M558.9,685.7L558.9,685.7L558.9,685.7C558.9,685.7,558.9,685.6,558.9,685.7C558.9,685.6,558.9,685.7,558.9,685.7
					L558.9,685.7L558.9,685.7 M558.7,685.8L558.7,685.8C558.7,685.8,558.7,685.7,558.7,685.8C558.7,685.7,558.7,685.7,558.7,685.8
					C558.7,685.7,558.8,685.7,558.7,685.8C558.8,685.8,558.8,685.8,558.7,685.8L558.7,685.8 M558.6,685.9
					C558.6,685.9,558.5,685.9,558.6,685.9C558.5,685.8,558.5,685.8,558.6,685.9C558.6,685.8,558.6,685.8,558.6,685.9
					C558.6,685.8,558.6,685.8,558.6,685.9L558.6,685.9L558.6,685.9 M558.4,686L558.4,686C558.4,685.9,558.4,685.9,558.4,686
					C558.4,685.9,558.4,685.9,558.4,686C558.4,685.9,558.4,685.9,558.4,686C558.4,685.9,558.4,686,558.4,686L558.4,686 M558.2,686.1
					C558.2,686.1,558.2,686,558.2,686.1C558.2,686,558.2,686,558.2,686.1C558.2,686,558.2,686,558.2,686.1
					C558.3,686,558.3,686,558.2,686.1C558.3,686,558.3,686,558.2,686.1C558.3,686.1,558.3,686.1,558.2,686.1 M558.1,686.1
					L558.1,686.1L558.1,686.1L558.1,686.1L558.1,686.1L558.1,686.1L558.1,686.1 M557.9,686.2L557.9,686.2L557.9,686.2L557.9,686.2
					C557.9,686.2,558,686.2,557.9,686.2C558,686.2,558,686.2,557.9,686.2L557.9,686.2 M557.8,686.3
					C557.8,686.3,557.7,686.3,557.8,686.3C557.7,686.3,557.7,686.2,557.8,686.3C557.8,686.2,557.8,686.2,557.8,686.3
					C557.8,686.2,557.8,686.2,557.8,686.3L557.8,686.3L557.8,686.3 M557.6,686.4L557.6,686.4C557.6,686.4,557.6,686.3,557.6,686.4
					C557.6,686.3,557.6,686.3,557.6,686.4C557.6,686.3,557.6,686.3,557.6,686.4L557.6,686.4L557.6,686.4 M557.4,686.5L557.4,686.5
					C557.4,686.4,557.4,686.4,557.4,686.5C557.4,686.4,557.4,686.4,557.4,686.5C557.5,686.4,557.5,686.4,557.4,686.5
					C557.5,686.4,557.5,686.5,557.4,686.5C557.5,686.5,557.5,686.5,557.4,686.5 M557.3,686.6C557.3,686.6,557.3,686.5,557.3,686.6
					C557.2,686.5,557.3,686.5,557.3,686.6C557.3,686.5,557.3,686.5,557.3,686.6C557.3,686.5,557.3,686.5,557.3,686.6
					C557.3,686.5,557.3,686.5,557.3,686.6L557.3,686.6 M557.1,686.6L557.1,686.6L557.1,686.6L557.1,686.6
					C557.1,686.6,557.2,686.6,557.1,686.6C557.2,686.6,557.2,686.6,557.1,686.6L557.1,686.6"/>
			</g>
		</g>
		<g id="XMLID_7299_">
			<g id="XMLID_7300_">
				<path id="XMLID_7301_" class="st16" d="M560.8,684.7L560.8,684.7L560.8,684.7L560.8,684.7C560.8,684.7,560.8,684.6,560.8,684.7
					C560.8,684.6,560.8,684.7,560.8,684.7L560.8,684.7L560.8,684.7L560.8,684.7"/>
			</g>
		</g>
		<g id="XMLID_7279_">
			<g id="XMLID_7280_">
				<path id="XMLID_7281_" class="st16" d="M558.6,682.7L558.6,682.7C558.5,682.7,558.5,682.6,558.6,682.7
					C558.6,682.6,558.6,682.6,558.6,682.7C558.6,682.6,558.6,682.6,558.6,682.7C558.6,682.6,558.6,682.7,558.6,682.7L558.6,682.7
					 M558.7,682.8L558.7,682.8L558.7,682.8C558.7,682.7,558.7,682.7,558.7,682.8C558.7,682.7,558.7,682.7,558.7,682.8
					C558.7,682.7,558.7,682.8,558.7,682.8L558.7,682.8 M558.8,682.9L558.8,682.9L558.8,682.9C558.8,682.9,558.8,682.8,558.8,682.9
					C558.8,682.8,558.9,682.9,558.8,682.9C558.9,682.9,558.9,682.9,558.8,682.9C558.9,682.9,558.8,682.9,558.8,682.9 M559,683
					L559,683C558.9,683,558.9,683,559,683L559,683L559,683L559,683L559,683 M559.1,683.2L559.1,683.2
					C559.1,683.1,559.1,683.1,559.1,683.2C559.1,683.1,559.1,683.1,559.1,683.2C559.1,683.1,559.1,683.1,559.1,683.2
					C559.1,683.1,559.1,683.1,559.1,683.2L559.1,683.2 M559.2,683.3L559.2,683.3C559.2,683.3,559.2,683.2,559.2,683.3
					C559.2,683.2,559.2,683.2,559.2,683.3C559.2,683.2,559.3,683.2,559.2,683.3C559.3,683.2,559.3,683.3,559.2,683.3
					C559.3,683.3,559.2,683.3,559.2,683.3 M559.4,683.4C559.4,683.4,559.3,683.4,559.4,683.4C559.3,683.4,559.3,683.4,559.4,683.4
					C559.3,683.3,559.4,683.3,559.4,683.4C559.4,683.3,559.4,683.3,559.4,683.4C559.4,683.3,559.4,683.4,559.4,683.4L559.4,683.4
					 M559.5,683.5L559.5,683.5L559.5,683.5C559.5,683.5,559.5,683.4,559.5,683.5C559.5,683.4,559.5,683.5,559.5,683.5L559.5,683.5
					L559.5,683.5 M559.6,683.6L559.6,683.6L559.6,683.6L559.6,683.6L559.6,683.6C559.7,683.6,559.7,683.6,559.6,683.6L559.6,683.6
					 M559.8,683.8C559.8,683.8,559.7,683.8,559.8,683.8C559.7,683.7,559.7,683.7,559.8,683.8C559.7,683.7,559.8,683.7,559.8,683.8
					C559.8,683.7,559.8,683.7,559.8,683.8C559.8,683.7,559.8,683.7,559.8,683.8L559.8,683.8 M559.9,683.9L559.9,683.9
					C559.9,683.9,559.9,683.8,559.9,683.9C559.9,683.8,559.9,683.8,559.9,683.9C559.9,683.8,559.9,683.8,559.9,683.9
					C559.9,683.8,559.9,683.9,559.9,683.9L559.9,683.9 M560,684L560,684L560,684C560,683.9,560,683.9,560,684
					C560,683.9,560,683.9,560,684C560.1,683.9,560.1,684,560,684L560,684 M560.2,684.1C560.1,684.1,560.1,684.1,560.2,684.1
					C560.1,684.1,560.1,684.1,560.2,684.1C560.1,684.1,560.1,684,560.2,684.1C560.2,684,560.2,684.1,560.2,684.1L560.2,684.1
					L560.2,684.1 M560.3,684.2L560.3,684.2C560.2,684.2,560.2,684.2,560.3,684.2L560.3,684.2L560.3,684.2L560.3,684.2L560.3,684.2
					 M560.4,684.4L560.4,684.4C560.4,684.3,560.4,684.3,560.4,684.4C560.4,684.3,560.4,684.3,560.4,684.4
					C560.4,684.3,560.4,684.3,560.4,684.4C560.5,684.3,560.5,684.3,560.4,684.4L560.4,684.4 M560.5,684.5L560.5,684.5
					C560.5,684.5,560.5,684.4,560.5,684.5C560.5,684.4,560.5,684.4,560.5,684.5C560.6,684.4,560.6,684.4,560.5,684.5
					C560.6,684.4,560.6,684.5,560.5,684.5C560.6,684.5,560.6,684.5,560.5,684.5 M560.7,684.6L560.7,684.6
					C560.6,684.6,560.6,684.6,560.7,684.6C560.7,684.5,560.7,684.5,560.7,684.6C560.7,684.5,560.7,684.5,560.7,684.6
					C560.7,684.5,560.7,684.6,560.7,684.6L560.7,684.6"/>
			</g>
		</g>
		<g id="XMLID_7276_">
			<g id="XMLID_7277_">
				<path id="XMLID_7278_" class="st16" d="M558.4,682.6L558.4,682.6C558.4,682.5,558.4,682.5,558.4,682.6
					C558.4,682.5,558.4,682.5,558.4,682.6C558.4,682.5,558.4,682.5,558.4,682.6C558.5,682.5,558.5,682.5,558.4,682.6
					C558.5,682.5,558.5,682.5,558.4,682.6C558.5,682.5,558.5,682.5,558.4,682.6C558.5,682.6,558.5,682.6,558.4,682.6"/>
			</g>
		</g>
		<g id="XMLID_7270_">
			<g id="XMLID_7271_">
				<path id="XMLID_7272_" class="st16" d="M558.4,682.7L558.4,682.7L558.4,682.7C558.4,682.7,558.4,682.6,558.4,682.7
					C558.4,682.6,558.4,682.6,558.4,682.7L558.4,682.7L558.4,682.7 M558.3,682.9L558.3,682.9C558.3,682.9,558.3,682.8,558.3,682.9
					C558.3,682.8,558.3,682.8,558.3,682.9C558.3,682.8,558.3,682.8,558.3,682.9C558.4,682.8,558.4,682.8,558.3,682.9
					C558.4,682.9,558.3,682.9,558.3,682.9 M558.3,683L558.3,683C558.2,683,558.2,683,558.3,683L558.3,683L558.3,683L558.3,683
					L558.3,683"/>
			</g>
		</g>
		<g id="XMLID_7267_">
			<g id="XMLID_7268_">
				<path id="XMLID_7269_" class="st16" d="M558.2,683.2L558.2,683.2L558.2,683.2C558.2,683.1,558.2,683.1,558.2,683.2
					C558.2,683.1,558.2,683.1,558.2,683.2C558.2,683.1,558.2,683.1,558.2,683.2C558.3,683.1,558.3,683.1,558.2,683.2
					C558.3,683.2,558.3,683.2,558.2,683.2L558.2,683.2"/>
			</g>
		</g>
		<g id="XMLID_7221_">
			<g id="XMLID_7222_">
				<path id="XMLID_7223_" class="st16" d="M558,683.2L558,683.2C558,683.1,558,683.1,558,683.2L558,683.2
					C558.1,683.1,558.1,683.1,558,683.2C558.1,683.2,558.1,683.2,558,683.2L558,683.2 M557.9,683.2
					C557.8,683.2,557.8,683.2,557.9,683.2C557.8,683.1,557.8,683.1,557.9,683.2L557.9,683.2C557.9,683.1,557.9,683.1,557.9,683.2
					L557.9,683.2L557.9,683.2 M557.7,683.2C557.7,683.2,557.6,683.2,557.7,683.2C557.6,683.1,557.7,683.1,557.7,683.2L557.7,683.2
					C557.7,683.1,557.7,683.1,557.7,683.2L557.7,683.2L557.7,683.2 M557.5,683.2L557.5,683.2C557.5,683.2,557.5,683.1,557.5,683.2
					C557.5,683.1,557.5,683.1,557.5,683.2C557.5,683.1,557.5,683.1,557.5,683.2L557.5,683.2L557.5,683.2 M557.3,683.2L557.3,683.2
					C557.3,683.2,557.3,683.1,557.3,683.2L557.3,683.2C557.3,683.1,557.3,683.2,557.3,683.2L557.3,683.2L557.3,683.2 M557.1,683.2
					L557.1,683.2C557.1,683.2,557.1,683.1,557.1,683.2L557.1,683.2C557.1,683.1,557.2,683.2,557.1,683.2
					C557.2,683.2,557.1,683.2,557.1,683.2L557.1,683.2 M556.9,683.2L556.9,683.2L556.9,683.2L556.9,683.2
					C557,683.2,557,683.2,556.9,683.2C557,683.2,557,683.2,556.9,683.2L556.9,683.2 M556.8,683.2
					C556.7,683.2,556.7,683.2,556.8,683.2C556.7,683.2,556.7,683.2,556.8,683.2L556.8,683.2L556.8,683.2L556.8,683.2L556.8,683.2
					 M556.6,683.2C556.6,683.2,556.5,683.2,556.6,683.2C556.5,683.2,556.6,683.2,556.6,683.2L556.6,683.2L556.6,683.2L556.6,683.2
					L556.6,683.2 M556.4,683.2L556.4,683.2L556.4,683.2L556.4,683.2L556.4,683.2L556.4,683.2L556.4,683.2 M556.2,683.2L556.2,683.2
					L556.2,683.2L556.2,683.2L556.2,683.2C556.3,683.2,556.2,683.2,556.2,683.2L556.2,683.2 M556,683.3
					C556,683.3,556,683.2,556,683.3C556,683.2,556,683.2,556,683.3L556,683.3C556.1,683.2,556.1,683.2,556,683.3
					C556.1,683.2,556.1,683.2,556,683.3L556,683.3 M555.9,683.3C555.8,683.3,555.8,683.2,555.9,683.3
					C555.8,683.2,555.8,683.2,555.9,683.3L555.9,683.3C555.9,683.2,555.9,683.2,555.9,683.3C555.9,683.2,555.9,683.3,555.9,683.3
					L555.9,683.3 M555.7,683.3C555.6,683.3,555.6,683.2,555.7,683.3C555.6,683.2,555.6,683.2,555.7,683.3L555.7,683.3
					C555.7,683.2,555.7,683.2,555.7,683.3C555.7,683.2,555.7,683.3,555.7,683.3L555.7,683.3 M555.5,683.3L555.5,683.3
					C555.5,683.2,555.5,683.2,555.5,683.3L555.5,683.3C555.5,683.2,555.5,683.2,555.5,683.3L555.5,683.3L555.5,683.3 M555.3,683.3
					L555.3,683.3C555.3,683.2,555.3,683.2,555.3,683.3L555.3,683.3C555.3,683.2,555.3,683.2,555.3,683.3L555.3,683.3L555.3,683.3
					 M555.1,683.3L555.1,683.3C555.1,683.2,555.1,683.2,555.1,683.3L555.1,683.3C555.1,683.2,555.2,683.2,555.1,683.3
					C555.2,683.3,555.1,683.3,555.1,683.3L555.1,683.3 M554.9,683.3L554.9,683.3C554.9,683.2,554.9,683.2,554.9,683.3L554.9,683.3
					C555,683.2,555,683.2,554.9,683.3C555,683.3,555,683.3,554.9,683.3L554.9,683.3 M554.8,683.3
					C554.7,683.3,554.7,683.3,554.8,683.3C554.7,683.2,554.7,683.2,554.8,683.3L554.8,683.3C554.8,683.2,554.8,683.2,554.8,683.3
					L554.8,683.3L554.8,683.3 M554.6,683.3C554.6,683.3,554.5,683.3,554.6,683.3C554.5,683.2,554.6,683.2,554.6,683.3L554.6,683.3
					C554.6,683.2,554.6,683.2,554.6,683.3L554.6,683.3L554.6,683.3 M554.4,683.3L554.4,683.3C554.4,683.3,554.4,683.2,554.4,683.3
					L554.4,683.3C554.4,683.2,554.4,683.3,554.4,683.3L554.4,683.3L554.4,683.3 M554.2,683.3L554.2,683.3
					C554.2,683.3,554.2,683.2,554.2,683.3L554.2,683.3C554.2,683.2,554.2,683.3,554.2,683.3L554.2,683.3L554.2,683.3 M554,683.3
					L554,683.3C554,683.3,554,683.2,554,683.3L554,683.3C554,683.2,554.1,683.3,554,683.3C554.1,683.3,554,683.3,554,683.3
					L554,683.3 M553.8,683.3L553.8,683.3L553.8,683.3L553.8,683.3C553.9,683.3,553.9,683.3,553.8,683.3
					C553.9,683.3,553.9,683.3,553.8,683.3L553.8,683.3 M553.7,683.3C553.6,683.3,553.6,683.3,553.7,683.3
					C553.6,683.3,553.6,683.3,553.7,683.3L553.7,683.3L553.7,683.3L553.7,683.3L553.7,683.3 M553.5,683.3
					C553.5,683.3,553.4,683.3,553.5,683.3C553.4,683.3,553.5,683.3,553.5,683.3L553.5,683.3L553.5,683.3L553.5,683.3L553.5,683.3
					 M553.3,683.3L553.3,683.3L553.3,683.3L553.3,683.3L553.3,683.3L553.3,683.3L553.3,683.3 M553.1,683.3L553.1,683.3L553.1,683.3
					L553.1,683.3L553.1,683.3L553.1,683.3L553.1,683.3 M552.9,683.4C552.9,683.4,552.9,683.3,552.9,683.4
					C552.9,683.3,552.9,683.3,552.9,683.4L552.9,683.4C552.9,683.3,553,683.3,552.9,683.4C553,683.3,553,683.4,552.9,683.4
					L552.9,683.4 M552.7,683.4C552.7,683.4,552.7,683.3,552.7,683.4C552.7,683.3,552.7,683.3,552.7,683.4L552.7,683.4
					C552.8,683.3,552.8,683.3,552.7,683.4C552.8,683.3,552.8,683.4,552.7,683.4L552.7,683.4 M552.6,683.4
					C552.5,683.4,552.5,683.4,552.6,683.4C552.5,683.3,552.5,683.3,552.6,683.4L552.6,683.4C552.6,683.3,552.6,683.3,552.6,683.4
					C552.6,683.3,552.6,683.4,552.6,683.4L552.6,683.4 M552.4,683.4L552.4,683.4C552.3,683.3,552.4,683.3,552.4,683.4L552.4,683.4
					C552.4,683.3,552.4,683.3,552.4,683.4L552.4,683.4L552.4,683.4 M552.2,683.4L552.2,683.4C552.2,683.3,552.2,683.3,552.2,683.4
					L552.2,683.4C552.2,683.3,552.2,683.3,552.2,683.4L552.2,683.4L552.2,683.4 M552,683.4L552,683.4C552,683.3,552,683.3,552,683.4
					C552,683.3,552,683.3,552,683.4C552,683.3,552.1,683.3,552,683.4C552.1,683.4,552,683.4,552,683.4L552,683.4 M551.8,683.4
					L551.8,683.4C551.8,683.3,551.8,683.3,551.8,683.4L551.8,683.4C551.9,683.3,551.9,683.3,551.8,683.4
					C551.9,683.4,551.9,683.4,551.8,683.4L551.8,683.4 M551.7,683.4C551.6,683.4,551.6,683.4,551.7,683.4
					C551.6,683.3,551.6,683.3,551.7,683.4C551.7,683.3,551.7,683.3,551.7,683.4C551.7,683.3,551.7,683.3,551.7,683.4L551.7,683.4
					L551.7,683.4 M551.5,683.4C551.5,683.4,551.4,683.4,551.5,683.4C551.4,683.3,551.5,683.3,551.5,683.4L551.5,683.4
					C551.5,683.3,551.5,683.3,551.5,683.4L551.5,683.4L551.5,683.4 M551.3,683.4L551.3,683.4C551.3,683.4,551.3,683.3,551.3,683.4
					L551.3,683.4C551.3,683.3,551.3,683.4,551.3,683.4L551.3,683.4L551.3,683.4 M551.1,683.4L551.1,683.4
					C551.1,683.4,551.1,683.3,551.1,683.4L551.1,683.4C551.1,683.3,551.1,683.4,551.1,683.4L551.1,683.4L551.1,683.4 M550.9,683.4
					L550.9,683.4L550.9,683.4L550.9,683.4C550.9,683.4,551,683.4,550.9,683.4C551,683.4,550.9,683.4,550.9,683.4L550.9,683.4
					 M550.7,683.4L550.7,683.4L550.7,683.4L550.7,683.4C550.8,683.4,550.8,683.4,550.7,683.4C550.8,683.4,550.8,683.4,550.7,683.4
					L550.7,683.4 M550.6,683.4C550.5,683.4,550.5,683.4,550.6,683.4C550.5,683.4,550.5,683.4,550.6,683.4L550.6,683.4L550.6,683.4
					L550.6,683.4L550.6,683.4 M550.4,683.4C550.4,683.4,550.3,683.4,550.4,683.4C550.3,683.4,550.4,683.4,550.4,683.4L550.4,683.4
					L550.4,683.4L550.4,683.4L550.4,683.4"/>
			</g>
		</g>
		<g id="XMLID_7218_">
			<g id="XMLID_7219_">
				<path id="XMLID_7220_" class="st16" d="M550.2,683.4L550.2,683.4L550.2,683.4L550.2,683.4L550.2,683.4L550.2,683.4L550.2,683.4
					L550.2,683.4L550.2,683.4"/>
			</g>
		</g>
		<g id="XMLID_7198_">
			<g id="XMLID_7199_">
				<path id="XMLID_7200_" class="st16" d="M550.1,683.6L550.1,683.6L550.1,683.6C550.1,683.6,550.1,683.5,550.1,683.6
					C550.1,683.5,550.1,683.5,550.1,683.6C550.2,683.6,550.2,683.6,550.1,683.6L550.1,683.6 M550,683.8L550,683.8L550,683.8
					C550,683.7,550,683.7,550,683.8C550.1,683.7,550.1,683.7,550,683.8C550.1,683.7,550.1,683.7,550,683.8
					C550.1,683.8,550.1,683.8,550,683.8 M550,684L550,684C549.9,683.9,549.9,683.9,550,684C549.9,683.9,550,683.9,550,684
					C550,683.9,550,683.9,550,684C550,683.9,550,683.9,550,684C550,683.9,550,684,550,684 M549.9,684.1L549.9,684.1L549.9,684.1
					L549.9,684.1L549.9,684.1L549.9,684.1L549.9,684.1 M549.8,684.3L549.8,684.3L549.8,684.3C549.8,684.2,549.8,684.2,549.8,684.3
					C549.8,684.2,549.8,684.2,549.8,684.3C549.9,684.2,549.9,684.3,549.8,684.3C549.9,684.3,549.8,684.3,549.8,684.3 M549.8,684.5
					C549.8,684.5,549.7,684.5,549.8,684.5C549.7,684.5,549.7,684.4,549.8,684.5C549.7,684.4,549.7,684.4,549.8,684.5
					C549.8,684.4,549.8,684.4,549.8,684.5C549.8,684.4,549.8,684.4,549.8,684.5L549.8,684.5 M549.7,684.6L549.7,684.6
					C549.7,684.6,549.6,684.6,549.7,684.6L549.7,684.6L549.7,684.6L549.7,684.6L549.7,684.6 M549.6,684.8L549.6,684.8L549.6,684.8
					C549.6,684.7,549.6,684.7,549.6,684.8C549.6,684.7,549.6,684.7,549.6,684.8C549.6,684.7,549.7,684.8,549.6,684.8L549.6,684.8
					 M549.5,685L549.5,685C549.5,685,549.5,684.9,549.5,685C549.5,684.9,549.5,684.9,549.5,685C549.5,684.9,549.5,684.9,549.5,685
					C549.6,684.9,549.6,684.9,549.5,685C549.6,685,549.6,685,549.5,685 M549.5,685.1L549.5,685.1
					C549.4,685.1,549.4,685.1,549.5,685.1C549.4,685.1,549.5,685.1,549.5,685.1L549.5,685.1L549.5,685.1L549.5,685.1 M549.4,685.3
					L549.4,685.3L549.4,685.3C549.4,685.3,549.4,685.2,549.4,685.3C549.4,685.2,549.4,685.2,549.4,685.3L549.4,685.3L549.4,685.3
					 M549.3,685.5L549.3,685.5L549.3,685.5C549.3,685.4,549.3,685.4,549.3,685.5C549.3,685.4,549.3,685.4,549.3,685.5
					C549.4,685.4,549.4,685.4,549.3,685.5L549.3,685.5 M549.2,685.7L549.2,685.7C549.2,685.6,549.2,685.6,549.2,685.7
					C549.2,685.6,549.2,685.6,549.2,685.7C549.3,685.6,549.3,685.6,549.2,685.7C549.3,685.6,549.3,685.6,549.2,685.7
					C549.3,685.6,549.3,685.7,549.2,685.7 M549.2,685.8L549.2,685.8C549.1,685.8,549.1,685.8,549.2,685.8L549.2,685.8L549.2,685.8
					L549.2,685.8L549.2,685.8 M549.1,686L549.1,686L549.1,686C549.1,685.9,549.1,685.9,549.1,686C549.1,685.9,549.1,685.9,549.1,686
					C549.1,685.9,549.1,686,549.1,686L549.1,686 M549,686.2L549,686.2C549,686.2,549,686.1,549,686.2C549,686.1,549,686.1,549,686.2
					C549,686.1,549,686.1,549,686.2C549.1,686.1,549.1,686.1,549,686.2C549.1,686.2,549,686.2,549,686.2 M549,686.3
					C549,686.3,548.9,686.3,549,686.3C548.9,686.3,548.9,686.3,549,686.3C548.9,686.3,548.9,686.3,549,686.3L549,686.3L549,686.3
					L549,686.3"/>
			</g>
		</g>
		<g id="XMLID_7195_">
			<g id="XMLID_7196_">
				<path id="XMLID_7197_" class="st16" d="M548.9,686.5L548.9,686.5L548.9,686.5L548.9,686.5C548.9,686.4,548.9,686.4,548.9,686.5
					C548.9,686.4,548.9,686.4,548.9,686.5L548.9,686.5L548.9,686.5L548.9,686.5"/>
			</g>
		</g>
		<g id="XMLID_7148_">
			<g id="XMLID_7149_">
				<path id="XMLID_7150_" class="st16" d="M557,686.2C556.9,686.2,556.9,686.2,557,686.2C556.9,686.2,556.9,686.2,557,686.2
					L557,686.2L557,686.2L557,686.2L557,686.2 M556.8,686.2C556.8,686.2,556.7,686.2,556.8,686.2
					C556.7,686.2,556.8,686.2,556.8,686.2L556.8,686.2L556.8,686.2L556.8,686.2L556.8,686.2 M556.6,686.3
					C556.6,686.3,556.6,686.2,556.6,686.3C556.6,686.2,556.6,686.2,556.6,686.3L556.6,686.3C556.6,686.2,556.6,686.2,556.6,686.3
					C556.6,686.2,556.6,686.3,556.6,686.3L556.6,686.3 M556.4,686.3C556.4,686.3,556.4,686.2,556.4,686.3
					C556.4,686.2,556.4,686.2,556.4,686.3L556.4,686.3C556.4,686.2,556.4,686.2,556.4,686.3C556.4,686.2,556.4,686.3,556.4,686.3
					L556.4,686.3 M556.2,686.3L556.2,686.3C556.2,686.2,556.2,686.2,556.2,686.3L556.2,686.3C556.2,686.2,556.3,686.2,556.2,686.3
					C556.3,686.2,556.2,686.3,556.2,686.3L556.2,686.3 M556,686.3L556,686.3C556,686.2,556,686.2,556,686.3L556,686.3
					C556.1,686.2,556.1,686.2,556,686.3C556.1,686.3,556.1,686.3,556,686.3L556,686.3 M555.9,686.3
					C555.8,686.3,555.8,686.3,555.9,686.3C555.8,686.2,555.8,686.2,555.9,686.3L555.9,686.3C555.9,686.2,555.9,686.2,555.9,686.3
					L555.9,686.3L555.9,686.3 M555.7,686.3C555.7,686.3,555.6,686.3,555.7,686.3C555.6,686.2,555.7,686.2,555.7,686.3L555.7,686.3
					C555.7,686.2,555.7,686.2,555.7,686.3L555.7,686.3L555.7,686.3 M555.5,686.3L555.5,686.3C555.5,686.2,555.5,686.2,555.5,686.3
					L555.5,686.3C555.5,686.2,555.5,686.2,555.5,686.3L555.5,686.3L555.5,686.3 M555.3,686.3L555.3,686.3
					C555.3,686.2,555.3,686.2,555.3,686.3L555.3,686.3C555.3,686.2,555.3,686.2,555.3,686.3L555.3,686.3L555.3,686.3 M555.1,686.3
					L555.1,686.3C555.1,686.2,555.1,686.2,555.1,686.3L555.1,686.3C555.1,686.2,555.2,686.2,555.1,686.3
					C555.2,686.3,555.1,686.3,555.1,686.3L555.1,686.3 M554.9,686.3L554.9,686.3C554.9,686.3,554.9,686.2,554.9,686.3L554.9,686.3
					C555,686.2,555,686.3,554.9,686.3C555,686.3,555,686.3,554.9,686.3L554.9,686.3 M554.8,686.3
					C554.7,686.3,554.7,686.3,554.8,686.3C554.7,686.3,554.7,686.2,554.8,686.3L554.8,686.3C554.8,686.2,554.8,686.3,554.8,686.3
					L554.8,686.3L554.8,686.3 M554.6,686.3C554.6,686.3,554.5,686.3,554.6,686.3C554.5,686.3,554.6,686.3,554.6,686.3L554.6,686.3
					L554.6,686.3L554.6,686.3L554.6,686.3 M554.4,686.3L554.4,686.3L554.4,686.3L554.4,686.3L554.4,686.3L554.4,686.3L554.4,686.3
					 M554.2,686.3L554.2,686.3L554.2,686.3L554.2,686.3L554.2,686.3L554.2,686.3L554.2,686.3 M554,686.3L554,686.3L554,686.3
					L554,686.3C554,686.3,554.1,686.3,554,686.3C554.1,686.3,554,686.3,554,686.3L554,686.3 M553.8,686.3L553.8,686.3L553.8,686.3
					L553.8,686.3C553.9,686.3,553.9,686.3,553.8,686.3C553.9,686.3,553.9,686.3,553.8,686.3L553.8,686.3 M553.7,686.4
					C553.6,686.4,553.6,686.3,553.7,686.4C553.6,686.3,553.6,686.3,553.7,686.4L553.7,686.4C553.7,686.3,553.7,686.3,553.7,686.4
					C553.7,686.3,553.7,686.3,553.7,686.4L553.7,686.4 M553.5,686.4C553.5,686.4,553.4,686.3,553.5,686.4
					C553.4,686.3,553.5,686.3,553.5,686.4L553.5,686.4C553.5,686.3,553.5,686.3,553.5,686.4C553.5,686.3,553.5,686.4,553.5,686.4
					L553.5,686.4 M553.3,686.4C553.3,686.4,553.3,686.3,553.3,686.4C553.3,686.3,553.3,686.3,553.3,686.4L553.3,686.4
					C553.3,686.3,553.3,686.3,553.3,686.4C553.3,686.3,553.3,686.4,553.3,686.4L553.3,686.4 M553.1,686.4L553.1,686.4
					C553.1,686.3,553.1,686.3,553.1,686.4L553.1,686.4C553.1,686.3,553.1,686.3,553.1,686.4L553.1,686.4L553.1,686.4 M552.9,686.4
					L552.9,686.4C552.9,686.3,552.9,686.3,552.9,686.4L552.9,686.4C552.9,686.3,553,686.3,552.9,686.4
					C553,686.4,552.9,686.4,552.9,686.4L552.9,686.4 M552.7,686.4L552.7,686.4C552.7,686.3,552.7,686.3,552.7,686.4L552.7,686.4
					C552.8,686.3,552.8,686.3,552.7,686.4C552.8,686.4,552.8,686.4,552.7,686.4L552.7,686.4 M552.6,686.4
					C552.5,686.4,552.5,686.4,552.6,686.4C552.5,686.3,552.5,686.3,552.6,686.4L552.6,686.4C552.6,686.3,552.6,686.3,552.6,686.4
					L552.6,686.4L552.6,686.4 M552.4,686.4C552.4,686.4,552.3,686.4,552.4,686.4C552.3,686.3,552.4,686.3,552.4,686.4L552.4,686.4
					C552.4,686.3,552.4,686.3,552.4,686.4L552.4,686.4L552.4,686.4 M552.2,686.4L552.2,686.4C552.2,686.3,552.2,686.3,552.2,686.4
					L552.2,686.4C552.2,686.3,552.2,686.3,552.2,686.4L552.2,686.4L552.2,686.4 M552,686.4L552,686.4C552,686.4,552,686.3,552,686.4
					L552,686.4C552,686.3,552,686.4,552,686.4L552,686.4L552,686.4 M551.8,686.4L551.8,686.4C551.8,686.4,551.8,686.3,551.8,686.4
					L551.8,686.4C551.8,686.3,551.9,686.4,551.8,686.4C551.9,686.4,551.8,686.4,551.8,686.4L551.8,686.4 M551.6,686.4L551.6,686.4
					C551.6,686.4,551.6,686.3,551.6,686.4L551.6,686.4C551.7,686.3,551.7,686.4,551.6,686.4C551.7,686.4,551.7,686.4,551.6,686.4
					L551.6,686.4 M551.5,686.4C551.4,686.4,551.4,686.4,551.5,686.4C551.4,686.4,551.4,686.4,551.5,686.4L551.5,686.4L551.5,686.4
					L551.5,686.4L551.5,686.4 M551.3,686.4C551.3,686.4,551.2,686.4,551.3,686.4C551.2,686.4,551.3,686.4,551.3,686.4L551.3,686.4
					L551.3,686.4L551.3,686.4L551.3,686.4 M551.1,686.4L551.1,686.4L551.1,686.4L551.1,686.4L551.1,686.4L551.1,686.4L551.1,686.4
					 M550.9,686.4L550.9,686.4L550.9,686.4L550.9,686.4L550.9,686.4L550.9,686.4L550.9,686.4 M550.7,686.4L550.7,686.4L550.7,686.4
					L550.7,686.4C550.7,686.4,550.8,686.4,550.7,686.4C550.8,686.4,550.7,686.4,550.7,686.4L550.7,686.4 M550.5,686.5
					C550.5,686.5,550.5,686.4,550.5,686.5C550.5,686.4,550.5,686.4,550.5,686.5L550.5,686.5C550.6,686.4,550.6,686.4,550.5,686.5
					C550.6,686.4,550.6,686.5,550.5,686.5L550.5,686.5 M550.4,686.5C550.3,686.5,550.3,686.4,550.4,686.5
					C550.3,686.4,550.3,686.4,550.4,686.5L550.4,686.5C550.4,686.4,550.4,686.4,550.4,686.5C550.4,686.4,550.4,686.5,550.4,686.5
					L550.4,686.5 M550.2,686.5C550.2,686.5,550.1,686.5,550.2,686.5C550.1,686.4,550.1,686.4,550.2,686.5L550.2,686.5
					C550.2,686.4,550.2,686.4,550.2,686.5C550.2,686.4,550.2,686.5,550.2,686.5L550.2,686.5 M550,686.5L550,686.5
					C550,686.4,550,686.4,550,686.5L550,686.5C550,686.4,550,686.4,550,686.5L550,686.5L550,686.5 M549.8,686.5L549.8,686.5
					C549.8,686.4,549.8,686.4,549.8,686.5L549.8,686.5C549.8,686.4,549.8,686.4,549.8,686.5L549.8,686.5L549.8,686.5 M549.6,686.5
					L549.6,686.5C549.6,686.4,549.6,686.4,549.6,686.5L549.6,686.5C549.6,686.4,549.7,686.4,549.6,686.5
					C549.7,686.5,549.6,686.5,549.6,686.5L549.6,686.5 M549.4,686.5L549.4,686.5C549.4,686.4,549.4,686.4,549.4,686.5L549.4,686.5
					C549.5,686.4,549.5,686.4,549.4,686.5C549.5,686.5,549.5,686.5,549.4,686.5L549.4,686.5 M549.3,686.5
					C549.2,686.5,549.2,686.5,549.3,686.5C549.2,686.4,549.2,686.4,549.3,686.5L549.3,686.5C549.3,686.4,549.3,686.4,549.3,686.5
					L549.3,686.5L549.3,686.5 M549.1,686.5C549.1,686.5,549,686.5,549.1,686.5C549,686.4,549,686.4,549.1,686.5L549.1,686.5
					C549.1,686.4,549.1,686.4,549.1,686.5L549.1,686.5L549.1,686.5"/>
			</g>
		</g>
		<g id="XMLID_7145_">
			<g id="XMLID_7146_">
				<polygon id="XMLID_7147_" class="st17" points="550.9,683.7 550.6,684.6 550.6,684.6 550.6,684.5 551.2,683.7 551.6,683.7 
					550.9,684.5 550.6,686.2 550.3,686.2 550.5,685.1 550.5,685.1 550.5,685.1 550.4,685.1 550.3,685.3 549.9,686.2 549.6,686.2 
					550.5,683.7 				"/>
			</g>
		</g>
		<g id="XMLID_7142_">
			<g id="XMLID_7143_">
				<polygon id="XMLID_7144_" class="st17" points="551.8,683.7 552.2,683.7 551.2,686.2 550.8,686.2 				"/>
			</g>
		</g>
		<g id="XMLID_7139_">
			<g id="XMLID_7140_">
				<path id="XMLID_7141_" class="st17" d="M552.7,685.3l-0.1,0.3c0,0.1-0.1,0.2-0.2,0.3c-0.1,0.1-0.1,0.1-0.2,0.2
					c-0.1,0.1-0.2,0.1-0.3,0.1c-0.1,0-0.2,0-0.2-0.1c0,0-0.1-0.1-0.1-0.2c0-0.1,0-0.2,0-0.3l0.6-1.5c0-0.1,0.1-0.2,0.2-0.3
					c0.1-0.1,0.1-0.1,0.2-0.2c0.1-0.1,0.2-0.1,0.3-0.1s0.2,0,0.2,0.1c0,0,0.1,0.1,0.1,0.2c0,0.1,0,0.2,0,0.3l-0.1,0.3h-0.3l0.1-0.3
					c0-0.1,0-0.1,0-0.2c0,0,0,0-0.1,0c-0.1,0-0.1,0.1-0.1,0.1s0,0.1-0.1,0.1l-0.6,1.5c0,0.1,0,0.1,0,0.2c0,0,0,0,0.1,0
					c0.1,0,0.1,0,0.2-0.1v-0.1l0.1-0.3H552.7z"/>
			</g>
		</g>
		<g id="XMLID_7136_">
			<g id="XMLID_7137_">
				<polygon id="XMLID_7138_" class="st17" points="554,683.6 553.7,684.5 553.7,684.5 553.7,684.4 554.3,683.6 554.7,683.6 
					554,684.4 553.7,686.1 553.4,686.1 553.6,685 553.6,685 553.6,685 553.5,685 553.4,685.2 553,686.1 552.7,686.1 553.6,683.6 
									"/>
			</g>
		</g>
		<g id="XMLID_7133_">
			<g id="XMLID_7134_">
				<polygon id="XMLID_7135_" class="st17" points="554.5,684.8 555,684.8 554.9,685.2 554.4,685.2 				"/>
			</g>
		</g>
		<g id="XMLID_7128_">
			<g id="XMLID_7129_">
				<path id="XMLID_7130_" class="st17" d="M556.1,685.5c0,0.1-0.1,0.2-0.2,0.3c-0.1,0.1-0.1,0.1-0.2,0.2c-0.1,0.1-0.2,0.1-0.3,0.1
					c-0.1,0-0.2,0-0.2-0.1c0,0-0.1-0.1-0.1-0.2c0-0.1,0-0.2,0-0.3l0.6-1.5c0-0.1,0.1-0.2,0.2-0.3c0.1-0.1,0.1-0.1,0.2-0.2
					c0.1-0.1,0.2-0.1,0.3-0.1s0.2,0,0.2,0.1c0,0,0.1,0.1,0.1,0.2c0,0.1,0,0.2,0,0.3L556.1,685.5z M556.3,684c0-0.1,0-0.1,0-0.2
					c0,0,0,0-0.1,0c-0.1,0-0.1,0.1-0.1,0.1v0.1l-0.6,1.5c0,0.1,0,0.1,0,0.2c0,0,0,0,0.1,0s0.1,0,0.1-0.1v-0.1L556.3,684z"/>
			</g>
		</g>
		<g id="XMLID_7125_">
			<g id="XMLID_7126_">
				<polygon id="XMLID_7127_" class="st17" points="557.8,683.8 557.3,683.8 557.1,684.5 557.4,684.5 557.2,684.9 556.9,684.9 
					556.5,686 556.1,686 557.1,683.5 558,683.4 				"/>
			</g>
		</g>
		<g id="XMLID_7122_">
			<g id="XMLID_7123_">
				<polygon id="XMLID_7124_" class="st17" points="558.8,683.8 558.3,683.8 558.1,684.5 558.4,684.5 558.3,684.8 557.9,684.8 
					557.5,685.9 557.2,686 558.1,683.4 559,683.4 				"/>
			</g>
		</g>
		<g id="XMLID_7119_">
			<g id="XMLID_7120_">
				<polygon id="XMLID_7121_" class="st12" points="550.8,683.7 550.5,684.6 550.5,684.6 550.5,684.5 551.2,683.7 551.5,683.7 
					550.9,684.5 550.6,686.2 550.2,686.2 550.4,685.1 550.4,685.1 550.4,685.1 550.4,685.1 550.2,685.3 549.9,686.2 549.5,686.2 
					550.5,683.7 				"/>
			</g>
		</g>
		<g id="XMLID_7116_">
			<g id="XMLID_7117_">
				<polygon id="XMLID_7118_" class="st12" points="551.7,683.7 552.1,683.7 551.1,686.2 550.8,686.2 				"/>
			</g>
		</g>
		<g id="XMLID_7113_">
			<g id="XMLID_7114_">
				<path id="XMLID_7115_" class="st12" d="M552.7,685.3l-0.1,0.3c0,0.1-0.1,0.2-0.2,0.3c-0.1,0.1-0.1,0.1-0.2,0.2
					c-0.1,0.1-0.2,0.1-0.3,0.1c-0.1,0-0.2,0-0.2-0.1c0,0-0.1-0.1-0.1-0.2c0-0.1,0-0.2,0-0.3l0.6-1.5c0-0.1,0.1-0.2,0.2-0.3
					c0.1-0.1,0.1-0.1,0.2-0.2c0.1-0.1,0.2-0.1,0.3-0.1s0.2,0,0.2,0.1c0,0,0.1,0.1,0.1,0.2c0,0.1,0,0.2,0,0.3l-0.1,0.3h-0.3l0.1-0.3
					c0-0.1,0-0.1,0-0.2c0,0,0,0-0.1,0c-0.1,0-0.1,0.1-0.1,0.1s0,0.1-0.1,0.1l-0.6,1.5c0,0.1,0,0.1,0,0.2c0,0,0,0,0.1,0
					c0.1,0,0.1,0,0.2-0.1v-0.1l0.1-0.3H552.7z"/>
			</g>
		</g>
		<g id="XMLID_7110_">
			<g id="XMLID_7111_">
				<polygon id="XMLID_7112_" class="st12" points="553.9,683.6 553.6,684.5 553.6,684.5 553.6,684.4 554.3,683.6 554.6,683.6 
					554,684.4 553.7,686.1 553.3,686.1 553.5,685 553.5,685 553.5,685 553.5,685 553.3,685.2 552.9,686.1 552.6,686.1 553.6,683.6 
									"/>
			</g>
		</g>
		<g id="XMLID_7107_">
			<g id="XMLID_7108_">
				<polygon id="XMLID_7109_" class="st12" points="554.5,684.8 554.9,684.8 554.8,685.2 554.3,685.2 				"/>
			</g>
		</g>
		<g id="XMLID_7102_">
			<g id="XMLID_7103_">
				<path id="XMLID_7104_" class="st12" d="M556,685.5c0,0.1-0.1,0.2-0.2,0.3s-0.1,0.1-0.2,0.2c-0.1,0.1-0.2,0.1-0.3,0.1
					c-0.1,0-0.2,0-0.2-0.1c0,0-0.1-0.1-0.1-0.2c0-0.1,0-0.2,0-0.3l0.6-1.5c0-0.1,0.1-0.2,0.2-0.3s0.1-0.1,0.2-0.2
					c0.1-0.1,0.2-0.1,0.3-0.1c0.1,0,0.2,0,0.2,0.1c0,0,0.1,0.1,0.1,0.2c0,0.1,0,0.2,0,0.3L556,685.5z M556.2,684c0-0.1,0-0.1,0-0.2
					c0,0,0,0-0.1,0c-0.1,0-0.1,0.1-0.1,0.1v0.1l-0.6,1.5c0,0.1,0,0.1,0,0.2c0,0,0,0,0.1,0s0.1,0,0.1-0.1v-0.1L556.2,684z"/>
			</g>
		</g>
		<g id="XMLID_7099_">
			<g id="XMLID_7100_">
				<polygon id="XMLID_7101_" class="st12" points="557.7,683.8 557.3,683.8 557,684.5 557.3,684.5 557.2,684.9 556.9,684.9 
					556.4,686 556.1,686 557,683.5 557.9,683.4 				"/>
			</g>
		</g>
		<g id="XMLID_7096_">
			<g id="XMLID_7097_">
				<polygon id="XMLID_7098_" class="st12" points="558.8,683.8 558.3,683.8 558,684.5 558.3,684.5 558.2,684.8 557.9,684.8 
					557.4,685.9 557.1,686 558.1,683.4 558.9,683.4 				"/>
			</g>
		</g>
		<g id="XMLID_7093_">
			<g id="XMLID_7094_">
				<path id="XMLID_7095_" class="st17" d="M551.9,680.6c0-0.1,0-0.1,0.1-0.2c0-0.1,0-0.1-0.1-0.1c-0.1,0-0.1,0.1-0.2,0.2
					c0,0.1,0,0.1,0,0.2c0,0.1,0,0.2,0.1,0.2c0,0.1,0.1,0.2,0.1,0.3s0,0.2,0,0.3s-0.1,0.3-0.2,0.3c-0.1,0.1-0.2,0.2-0.4,0.2
					s-0.2-0.1-0.3-0.2c0-0.1,0-0.2,0.1-0.4h0.3c0,0.1-0.1,0.2-0.1,0.2c0,0.1,0,0.1,0.1,0.1c0.1,0,0.1-0.1,0.2-0.2c0-0.1,0-0.1,0-0.2
					v-0.1c0-0.1,0-0.2-0.1-0.3c0-0.1,0-0.2,0-0.3s0-0.1,0-0.2c0-0.1,0.1-0.2,0.2-0.3s0.2-0.2,0.3-0.2c0.2,0,0.2,0.1,0.2,0.2
					c0,0.1,0,0.2-0.1,0.3L551.9,680.6z"/>
			</g>
		</g>
		<g id="XMLID_7090_">
			<g id="XMLID_7091_">
				<polygon id="XMLID_7092_" class="st17" points="552.3,680.4 552.4,680.1 553.2,680.1 553.1,680.4 552.9,680.4 552.2,682.1 
					552,682.1 552.6,680.4 				"/>
			</g>
		</g>
		<g id="XMLID_7087_">
			<g id="XMLID_7088_">
				<path id="XMLID_7089_" class="st17" d="M554.1,680l-0.6,1.6c0,0.1-0.1,0.2-0.1,0.2c0,0.1-0.1,0.1-0.2,0.1
					c-0.1,0-0.1,0.1-0.2,0.1c-0.1,0-0.2,0-0.2-0.1l-0.1-0.1c0-0.1,0-0.1,0-0.2l0.6-1.6h0.3l-0.6,1.6c0,0.1,0,0.1,0,0.1l0,0
					c0,0,0.1,0,0.1-0.1c0,0,0,0,0-0.1l0.6-1.6L554.1,680z"/>
			</g>
		</g>
		<g id="XMLID_7082_">
			<g id="XMLID_7083_">
				<path id="XMLID_7084_" class="st17" d="M553.6,682l0.7-2h0.2c0.3,0,0.4,0,0.4,0.2c0,0.1-0.1,0.4-0.2,0.8
					c-0.1,0.4-0.2,0.6-0.4,0.8c-0.1,0.2-0.3,0.2-0.5,0.2H553.6z M554,681.7c0.1,0,0.1,0,0.2-0.1c0,0,0.1-0.1,0.1-0.2
					c0-0.1,0.1-0.2,0.1-0.4c0.1-0.2,0.1-0.3,0.1-0.4c0-0.1,0-0.2,0.1-0.2c0-0.1,0-0.1-0.1-0.1L554,681.7z"/>
			</g>
		</g>
		<g id="XMLID_7079_">
			<g id="XMLID_7080_">
				<polygon id="XMLID_7081_" class="st17" points="555.3,680 555.9,680 555.8,680.3 555.4,680.3 555.2,680.8 555.5,680.8 
					555.4,681.1 555.1,681.1 554.9,681.7 555.3,681.7 555.2,682 554.5,682 				"/>
			</g>
		</g>
		<g id="XMLID_7076_">
			<g id="XMLID_7077_">
				<polygon id="XMLID_7078_" class="st17" points="556,680.9 556,680.8 556,680.8 555.6,682 555.3,682 556.1,680 556.3,680 
					556.2,681 556.2,681.1 556.2,681.1 556.6,680 556.9,680 556.1,681.9 555.9,681.9 				"/>
			</g>
		</g>
		<g id="XMLID_7073_">
			<g id="XMLID_7074_">
				<polygon id="XMLID_7075_" class="st17" points="556.9,680.3 557,680 557.8,679.9 557.7,680.2 557.4,680.2 556.8,681.9 
					556.5,681.9 557.1,680.2 				"/>
			</g>
		</g>
		<g id="XMLID_7070_">
			<g id="XMLID_7071_">
				<path id="XMLID_7072_" class="st12" d="M551.8,680.6c0-0.1,0-0.1,0.1-0.2c0-0.1,0-0.1-0.1-0.1s-0.1,0.1-0.2,0.2
					c0,0.1,0,0.1,0,0.2c0,0.1,0,0.2,0.1,0.2c0,0.1,0.1,0.2,0.1,0.3s0,0.2,0,0.3s-0.1,0.3-0.2,0.3c-0.1,0.1-0.2,0.2-0.4,0.2
					c-0.2,0-0.2-0.1-0.3-0.2c0-0.1,0-0.2,0.1-0.4h0.3c0,0.1-0.1,0.2-0.1,0.2c0,0.1,0,0.1,0.1,0.1s0.1-0.1,0.2-0.2c0-0.1,0-0.1,0-0.2
					v-0.1c0-0.1,0-0.2-0.1-0.3c0-0.1,0-0.2,0-0.3s0-0.1,0-0.2c0-0.1,0.1-0.2,0.2-0.3c0.1-0.1,0.2-0.2,0.3-0.2c0.2,0,0.2,0.1,0.2,0.2
					c0,0.1,0,0.2-0.1,0.3L551.8,680.6z"/>
			</g>
		</g>
		<g id="XMLID_7067_">
			<g id="XMLID_7068_">
				<polygon id="XMLID_7069_" class="st12" points="552.3,680.4 552.4,680.1 553.2,680.1 553.1,680.4 552.8,680.4 552.2,682.1 
					551.9,682.1 552.5,680.4 				"/>
			</g>
		</g>
		<g id="XMLID_7064_">
			<g id="XMLID_7065_">
				<path id="XMLID_7066_" class="st12" d="M554,680l-0.6,1.6c0,0.1-0.1,0.2-0.1,0.2c0,0.1-0.1,0.1-0.2,0.1s-0.1,0.1-0.2,0.1
					s-0.2,0-0.2-0.1c0,0,0-0.1-0.1-0.1c0-0.1,0-0.1,0-0.2l0.6-1.6h0.3l-0.6,1.6c0,0.1,0,0.1,0,0.1l0,0c0,0,0.1,0,0.1-0.1
					c0,0,0,0,0-0.1l0.6-1.6L554,680z"/>
			</g>
		</g>
		<g id="XMLID_7059_">
			<g id="XMLID_7060_">
				<path id="XMLID_7061_" class="st12" d="M553.5,682l0.7-2h0.2c0.3,0,0.4,0,0.4,0.2c0,0.1-0.1,0.4-0.2,0.8
					c-0.1,0.4-0.2,0.6-0.4,0.8c-0.1,0.2-0.3,0.2-0.5,0.2H553.5z M553.9,681.7c0.1,0,0.1,0,0.2-0.1c0,0,0.1-0.1,0.1-0.2
					c0-0.1,0.1-0.2,0.1-0.4c0.1-0.2,0.1-0.3,0.1-0.4c0-0.1,0-0.2,0.1-0.2c0-0.1,0-0.1-0.1-0.1L553.9,681.7z"/>
			</g>
		</g>
		<g id="XMLID_7056_">
			<g id="XMLID_7057_">
				<polygon id="XMLID_7058_" class="st12" points="555.2,680 555.8,680 555.7,680.3 555.4,680.3 555.2,680.8 555.4,680.8 
					555.3,681.1 555.1,681.1 554.9,681.7 555.2,681.7 555.1,682 554.5,682 				"/>
			</g>
		</g>
		<g id="XMLID_7053_">
			<g id="XMLID_7054_">
				<polygon id="XMLID_7055_" class="st12" points="555.9,680.9 556,680.8 555.9,680.8 555.5,682 555.3,682 556,680 556.2,680 
					556.1,681 556.1,681.1 556.1,681.1 556.5,680 556.8,680 556.1,681.9 555.8,681.9 				"/>
			</g>
		</g>
		<g id="XMLID_7050_">
			<g id="XMLID_7051_">
				<polygon id="XMLID_7052_" class="st12" points="556.8,680.3 556.9,680 557.7,679.9 557.6,680.2 557.3,680.2 556.7,681.9 
					556.5,681.9 557.1,680.2 				"/>
			</g>
		</g>
		<g id="XMLID_7047_">
			<g id="XMLID_7048_">
				<path id="XMLID_7049_" class="st16" d="M558.3,679.7L558.3,679.7L558.3,679.7L558.3,679.7L558.3,679.7L558.3,679.7
					C558.4,679.7,558.4,679.7,558.3,679.7C558.4,679.7,558.4,679.7,558.3,679.7L558.3,679.7"/>
			</g>
		</g>
		<g id="XMLID_7031_">
			<g id="XMLID_7032_">
				<path id="XMLID_7033_" class="st16" d="M558.3,679.9L558.3,679.9C558.2,679.9,558.2,679.9,558.3,679.9
					C558.2,679.8,558.2,679.8,558.3,679.9C558.3,679.8,558.3,679.8,558.3,679.9C558.3,679.8,558.3,679.9,558.3,679.9L558.3,679.9
					 M558.2,680.1L558.2,680.1C558.2,680.1,558.2,680,558.2,680.1C558.2,680,558.2,680,558.2,680.1C558.2,680,558.2,680,558.2,680.1
					C558.2,680,558.2,680,558.2,680.1L558.2,680.1 M558.1,680.2L558.1,680.2L558.1,680.2L558.1,680.2L558.1,680.2
					C558.2,680.2,558.2,680.2,558.1,680.2C558.2,680.2,558.1,680.2,558.1,680.2 M558.1,680.4L558.1,680.4
					C558,680.4,558,680.4,558.1,680.4C558,680.4,558.1,680.3,558.1,680.4C558.1,680.3,558.1,680.3,558.1,680.4L558.1,680.4
					L558.1,680.4 M558,680.6L558,680.6L558,680.6C558,680.5,558,680.5,558,680.6C558,680.5,558,680.5,558,680.6
					C558,680.5,558,680.5,558,680.6L558,680.6 M557.9,680.8L557.9,680.8C557.9,680.7,557.9,680.7,557.9,680.8
					C557.9,680.7,557.9,680.7,557.9,680.8C557.9,680.7,557.9,680.7,557.9,680.8C558,680.7,558,680.7,557.9,680.8
					C558,680.7,558,680.8,557.9,680.8 M557.9,680.9L557.9,680.9C557.8,680.9,557.8,680.9,557.9,680.9L557.9,680.9L557.9,680.9
					L557.9,680.9L557.9,680.9 M557.8,681.1L557.8,681.1L557.8,681.1C557.8,681,557.8,681,557.8,681.1
					C557.8,681,557.8,681,557.8,681.1C557.8,681,557.9,681.1,557.8,681.1L557.8,681.1 M557.7,681.3L557.7,681.3
					C557.7,681.3,557.7,681.2,557.7,681.3C557.7,681.2,557.7,681.2,557.7,681.3C557.8,681.2,557.8,681.2,557.7,681.3
					C557.8,681.2,557.8,681.2,557.7,681.3C557.8,681.3,557.8,681.3,557.7,681.3 M557.7,681.4L557.7,681.4
					C557.7,681.4,557.6,681.4,557.7,681.4L557.7,681.4L557.7,681.4L557.7,681.4L557.7,681.4 M557.6,681.6L557.6,681.6L557.6,681.6
					C557.6,681.6,557.6,681.5,557.6,681.6C557.6,681.5,557.6,681.5,557.6,681.6C557.7,681.6,557.7,681.6,557.6,681.6L557.6,681.6
					 M557.6,681.8C557.6,681.8,557.5,681.8,557.6,681.8C557.5,681.8,557.5,681.8,557.6,681.8C557.5,681.7,557.5,681.7,557.6,681.8
					C557.6,681.7,557.6,681.7,557.6,681.8C557.6,681.7,557.6,681.7,557.6,681.8L557.6,681.8 M557.5,682L557.5,682
					C557.5,681.9,557.5,681.9,557.5,682C557.5,681.9,557.5,681.9,557.5,682C557.5,681.9,557.5,681.9,557.5,682
					C557.5,681.9,557.5,681.9,557.5,682C557.5,681.9,557.5,682,557.5,682"/>
			</g>
		</g>
		<g id="XMLID_7028_">
			<g id="XMLID_7029_">
				<path id="XMLID_7030_" class="st16" d="M557.4,682.1L557.4,682.1L557.4,682.1L557.4,682.1L557.4,682.1L557.4,682.1
					C557.5,682.1,557.5,682.1,557.4,682.1C557.5,682.1,557.5,682.1,557.4,682.1L557.4,682.1"/>
			</g>
		</g>
		<g id="XMLID_6983_">
			<g id="XMLID_6984_">
				<path id="XMLID_6985_" class="st16" d="M557.2,682.1L557.2,682.1L557.2,682.1L557.2,682.1C557.3,682.1,557.3,682.1,557.2,682.1
					C557.3,682.1,557.3,682.1,557.2,682.1L557.2,682.1 M557.1,682.1C557,682.1,557,682.1,557.1,682.1
					C557,682.1,557,682.1,557.1,682.1L557.1,682.1L557.1,682.1L557.1,682.1L557.1,682.1 M556.9,682.1
					C556.9,682.1,556.8,682.1,556.9,682.1C556.8,682.1,556.9,682.1,556.9,682.1L556.9,682.1L556.9,682.1L556.9,682.1L556.9,682.1
					 M556.7,682.2C556.7,682.2,556.7,682.1,556.7,682.2C556.7,682.1,556.7,682.1,556.7,682.2L556.7,682.2
					C556.7,682.1,556.7,682.1,556.7,682.2C556.7,682.1,556.7,682.2,556.7,682.2L556.7,682.2 M556.5,682.2
					C556.5,682.2,556.5,682.1,556.5,682.2C556.5,682.1,556.5,682.1,556.5,682.2L556.5,682.2C556.5,682.1,556.5,682.1,556.5,682.2
					C556.5,682.1,556.5,682.2,556.5,682.2L556.5,682.2 M556.3,682.2C556.3,682.2,556.3,682.1,556.3,682.2
					C556.3,682.1,556.3,682.1,556.3,682.2L556.3,682.2C556.3,682.1,556.4,682.1,556.3,682.2C556.4,682.1,556.3,682.2,556.3,682.2
					L556.3,682.2 M556.1,682.2L556.1,682.2C556.1,682.1,556.1,682.1,556.1,682.2L556.1,682.2C556.2,682.1,556.2,682.1,556.1,682.2
					C556.2,682.2,556.2,682.2,556.1,682.2L556.1,682.2 M556,682.2C555.9,682.2,555.9,682.2,556,682.2
					C555.9,682.1,555.9,682.1,556,682.2L556,682.2C556,682.1,556,682.1,556,682.2L556,682.2L556,682.2 M555.8,682.2
					C555.7,682.2,555.7,682.2,555.8,682.2C555.7,682.1,555.7,682.1,555.8,682.2L555.8,682.2C555.8,682.1,555.8,682.1,555.8,682.2
					L555.8,682.2L555.8,682.2 M555.6,682.2L555.6,682.2C555.5,682.1,555.6,682.1,555.6,682.2L555.6,682.2
					C555.6,682.1,555.6,682.1,555.6,682.2L555.6,682.2L555.6,682.2 M555.4,682.2L555.4,682.2C555.4,682.1,555.4,682.1,555.4,682.2
					L555.4,682.2C555.4,682.1,555.4,682.1,555.4,682.2L555.4,682.2L555.4,682.2 M555.2,682.2L555.2,682.2
					C555.2,682.1,555.2,682.1,555.2,682.2L555.2,682.2C555.2,682.1,555.2,682.1,555.2,682.2L555.2,682.2L555.2,682.2 M555,682.2
					L555,682.2C555,682.1,555,682.1,555,682.2L555,682.2C555,682.1,555.1,682.1,555,682.2C555.1,682.2,555,682.2,555,682.2
					L555,682.2 M554.8,682.2L554.8,682.2C554.8,682.2,554.8,682.1,554.8,682.2L554.8,682.2C554.9,682.1,554.9,682.2,554.8,682.2
					C554.9,682.2,554.9,682.2,554.8,682.2L554.8,682.2 M554.7,682.2C554.6,682.2,554.6,682.2,554.7,682.2
					C554.6,682.2,554.6,682.1,554.7,682.2L554.7,682.2C554.7,682.1,554.7,682.2,554.7,682.2L554.7,682.2L554.7,682.2 M554.5,682.2
					C554.5,682.2,554.4,682.2,554.5,682.2C554.4,682.2,554.5,682.1,554.5,682.2L554.5,682.2C554.5,682.1,554.5,682.2,554.5,682.2
					L554.5,682.2L554.5,682.2 M554.3,682.2L554.3,682.2L554.3,682.2L554.3,682.2L554.3,682.2L554.3,682.2L554.3,682.2 M554.1,682.2
					L554.1,682.2L554.1,682.2L554.1,682.2L554.1,682.2L554.1,682.2L554.1,682.2 M553.9,682.2L553.9,682.2L553.9,682.2L553.9,682.2
					C553.9,682.2,554,682.2,553.9,682.2C554,682.2,553.9,682.2,553.9,682.2L553.9,682.2 M553.7,682.2L553.7,682.2L553.7,682.2
					L553.7,682.2C553.8,682.2,553.8,682.2,553.7,682.2C553.8,682.2,553.8,682.2,553.7,682.2L553.7,682.2 M553.6,682.2
					C553.5,682.2,553.5,682.2,553.6,682.2C553.5,682.2,553.5,682.2,553.6,682.2L553.6,682.2L553.6,682.2L553.6,682.2L553.6,682.2
					 M553.4,682.3C553.4,682.3,553.3,682.2,553.4,682.3C553.3,682.2,553.3,682.2,553.4,682.3L553.4,682.3
					C553.4,682.2,553.4,682.2,553.4,682.3C553.4,682.2,553.4,682.2,553.4,682.3L553.4,682.3 M553.2,682.3
					C553.2,682.3,553.2,682.2,553.2,682.3C553.1,682.2,553.2,682.2,553.2,682.3L553.2,682.3C553.2,682.2,553.2,682.2,553.2,682.3
					C553.2,682.2,553.2,682.3,553.2,682.3L553.2,682.3 M553,682.3C553,682.3,553,682.2,553,682.3C553,682.2,553,682.2,553,682.3
					L553,682.3C553,682.2,553,682.2,553,682.3C553,682.2,553,682.3,553,682.3L553,682.3 M552.8,682.3L552.8,682.3
					C552.8,682.2,552.8,682.2,552.8,682.3L552.8,682.3C552.8,682.2,552.8,682.2,552.8,682.3L552.8,682.3L552.8,682.3 M552.6,682.3
					L552.6,682.3C552.6,682.2,552.6,682.2,552.6,682.3L552.6,682.3C552.6,682.2,552.7,682.2,552.6,682.3
					C552.7,682.3,552.6,682.3,552.6,682.3L552.6,682.3 M552.4,682.3L552.4,682.3C552.4,682.2,552.4,682.2,552.4,682.3L552.4,682.3
					C552.5,682.2,552.5,682.2,552.4,682.3C552.5,682.3,552.5,682.3,552.4,682.3L552.4,682.3 M552.3,682.3
					C552.2,682.3,552.2,682.3,552.3,682.3C552.2,682.2,552.2,682.2,552.3,682.3L552.3,682.3C552.3,682.2,552.3,682.2,552.3,682.3
					L552.3,682.3L552.3,682.3 M552.1,682.3C552.1,682.3,552,682.3,552.1,682.3C552,682.2,552.1,682.2,552.1,682.3L552.1,682.3
					C552.1,682.2,552.1,682.2,552.1,682.3L552.1,682.3L552.1,682.3 M551.9,682.3L551.9,682.3C551.9,682.2,551.9,682.2,551.9,682.3
					L551.9,682.3C551.9,682.2,551.9,682.2,551.9,682.3L551.9,682.3L551.9,682.3 M551.7,682.3L551.7,682.3
					C551.7,682.2,551.7,682.2,551.7,682.3L551.7,682.3C551.7,682.2,551.7,682.2,551.7,682.3L551.7,682.3L551.7,682.3 M551.5,682.3
					L551.5,682.3C551.5,682.3,551.5,682.2,551.5,682.3L551.5,682.3C551.5,682.2,551.6,682.3,551.5,682.3
					C551.6,682.3,551.5,682.3,551.5,682.3L551.5,682.3 M551.3,682.3L551.3,682.3C551.3,682.3,551.3,682.2,551.3,682.3L551.3,682.3
					C551.4,682.2,551.4,682.3,551.3,682.3C551.4,682.3,551.4,682.3,551.3,682.3L551.3,682.3 M551.2,682.3
					C551.1,682.3,551.1,682.3,551.2,682.3C551.1,682.3,551.1,682.2,551.2,682.3L551.2,682.3C551.2,682.2,551.2,682.3,551.2,682.3
					L551.2,682.3L551.2,682.3 M551,682.3C550.9,682.3,550.9,682.3,551,682.3C550.9,682.3,550.9,682.3,551,682.3L551,682.3L551,682.3
					L551,682.3L551,682.3 M550.8,682.3L550.8,682.3C550.7,682.3,550.8,682.3,550.8,682.3L550.8,682.3L550.8,682.3L550.8,682.3
					L550.8,682.3 M550.6,682.3L550.6,682.3L550.6,682.3L550.6,682.3L550.6,682.3L550.6,682.3L550.6,682.3 M550.4,682.3L550.4,682.3
					L550.4,682.3L550.4,682.3L550.4,682.3L550.4,682.3L550.4,682.3 M550.2,682.3L550.2,682.3L550.2,682.3L550.2,682.3
					C550.2,682.3,550.3,682.3,550.2,682.3C550.3,682.3,550.3,682.3,550.2,682.3L550.2,682.3 M550,682.3L550,682.3L550,682.3
					L550,682.3C550.1,682.3,550.1,682.3,550,682.3C550.1,682.3,550.1,682.3,550,682.3L550,682.3 M549.9,682.4
					C549.8,682.4,549.8,682.3,549.9,682.4C549.8,682.3,549.8,682.3,549.9,682.4L549.9,682.4C549.9,682.3,549.9,682.3,549.9,682.4
					C549.9,682.3,549.9,682.4,549.9,682.4L549.9,682.4 M549.7,682.4C549.7,682.4,549.6,682.3,549.7,682.4
					C549.6,682.3,549.7,682.3,549.7,682.4L549.7,682.4C549.7,682.3,549.7,682.3,549.7,682.4C549.7,682.3,549.7,682.4,549.7,682.4
					L549.7,682.4"/>
			</g>
		</g>
		<g id="XMLID_6980_">
			<g id="XMLID_6981_">
				<path id="XMLID_6982_" class="st16" d="M549.5,682.4L549.5,682.4C549.5,682.3,549.5,682.3,549.5,682.4
					C549.5,682.3,549.5,682.3,549.5,682.4C549.5,682.3,549.5,682.3,549.5,682.4C549.5,682.3,549.5,682.3,549.5,682.4
					C549.5,682.3,549.5,682.3,549.5,682.4C549.5,682.3,549.5,682.3,549.5,682.4L549.5,682.4"/>
			</g>
		</g>
		<g id="XMLID_6968_">
			<g id="XMLID_6969_">
				<path id="XMLID_6970_" class="st16" d="M550.6,681.3L550.6,681.3L550.6,681.3C550.6,681.2,550.6,681.2,550.6,681.3
					C550.7,681.2,550.7,681.2,550.6,681.3C550.7,681.3,550.7,681.3,550.6,681.3C550.7,681.3,550.7,681.3,550.6,681.3 M550.5,681.4
					L550.5,681.4L550.5,681.4C550.5,681.4,550.5,681.3,550.5,681.4C550.5,681.3,550.5,681.4,550.5,681.4
					C550.6,681.4,550.6,681.4,550.5,681.4L550.5,681.4 M550.4,681.5L550.4,681.5L550.4,681.5L550.4,681.5L550.4,681.5L550.4,681.5
					L550.4,681.5 M550.3,681.7C550.3,681.7,550.2,681.7,550.3,681.7C550.2,681.6,550.2,681.6,550.3,681.7
					C550.2,681.6,550.3,681.6,550.3,681.7C550.3,681.6,550.3,681.6,550.3,681.7C550.3,681.6,550.3,681.6,550.3,681.7L550.3,681.7
					 M550.1,681.8L550.1,681.8C550.1,681.7,550.1,681.7,550.1,681.8C550.1,681.7,550.1,681.7,550.1,681.8
					C550.1,681.7,550.2,681.7,550.1,681.8C550.2,681.7,550.2,681.8,550.1,681.8L550.1,681.8 M550,681.9L550,681.9
					C550,681.9,550,681.8,550,681.9C550,681.8,550,681.8,550,681.9C550,681.8,550,681.8,550,681.9C550,681.8,550,681.9,550,681.9
					L550,681.9 M549.9,682L549.9,682C549.8,682,549.8,682,549.9,682C549.9,681.9,549.9,681.9,549.9,682
					C549.9,681.9,549.9,681.9,549.9,682L549.9,682L549.9,682 M549.7,682.1L549.7,682.1L549.7,682.1L549.7,682.1
					C549.8,682.1,549.8,682.1,549.7,682.1C549.8,682.1,549.8,682.1,549.7,682.1C549.8,682.1,549.8,682.1,549.7,682.1 M549.6,682.2
					L549.6,682.2L549.6,682.2L549.6,682.2L549.6,682.2C549.7,682.2,549.7,682.2,549.6,682.2L549.6,682.2"/>
			</g>
		</g>
		<g id="XMLID_6965_">
			<g id="XMLID_6966_">
				<path id="XMLID_6967_" class="st16" d="M550.8,681.2L550.8,681.2C550.7,681.2,550.7,681.2,550.8,681.2
					C550.7,681.1,550.7,681.1,550.8,681.2C550.8,681.1,550.8,681.1,550.8,681.2C550.8,681.1,550.8,681.1,550.8,681.2
					C550.8,681.1,550.8,681.1,550.8,681.2L550.8,681.2L550.8,681.2"/>
			</g>
		</g>
		<g id="XMLID_6955_">
			<g id="XMLID_6956_">
				<path id="XMLID_6957_" class="st16" d="M550.1,680.2L550.1,680.2C550.1,680.1,550.1,680.1,550.1,680.2
					C550.1,680.1,550.1,680.1,550.1,680.2C550.1,680.1,550.1,680.1,550.1,680.2C550.1,680.1,550.1,680.1,550.1,680.2L550.1,680.2
					 M550.2,680.3L550.2,680.3C550.2,680.3,550.2,680.2,550.2,680.3C550.2,680.2,550.2,680.2,550.2,680.3
					C550.2,680.2,550.2,680.2,550.2,680.3L550.2,680.3L550.2,680.3 M550.3,680.4L550.3,680.4L550.3,680.4L550.3,680.4L550.3,680.4
					L550.3,680.4L550.3,680.4 M550.4,680.6L550.4,680.6C550.4,680.6,550.4,680.5,550.4,680.6C550.4,680.5,550.4,680.5,550.4,680.6
					C550.4,680.5,550.4,680.5,550.4,680.6L550.4,680.6L550.4,680.6 M550.5,680.7L550.5,680.7C550.4,680.7,550.5,680.7,550.5,680.7
					L550.5,680.7L550.5,680.7L550.5,680.7L550.5,680.7 M550.6,680.9L550.6,680.9C550.5,680.9,550.5,680.8,550.6,680.9
					C550.6,680.8,550.6,680.8,550.6,680.9C550.6,680.8,550.6,680.8,550.6,680.9L550.6,680.9L550.6,680.9 M550.7,681L550.7,681
					C550.6,681,550.6,681,550.7,681L550.7,681L550.7,681L550.7,681L550.7,681"/>
			</g>
		</g>
		<g id="XMLID_6952_">
			<g id="XMLID_6953_">
				<path id="XMLID_6954_" class="st16" d="M550,680L550,680L550,680L550,680C550,679.9,550,679.9,550,680
					C550,679.9,550,679.9,550,680L550,680L550,680L550,680"/>
			</g>
		</g>
		<g id="XMLID_6904_">
			<g id="XMLID_6905_">
				<path id="XMLID_6906_" class="st16" d="M558.1,679.7L558.1,679.7L558.1,679.7L558.1,679.7C558.2,679.7,558.2,679.7,558.1,679.7
					C558.2,679.7,558.2,679.7,558.1,679.7L558.1,679.7 M558,679.7C557.9,679.7,557.9,679.7,558,679.7
					C557.9,679.7,557.9,679.7,558,679.7L558,679.7L558,679.7L558,679.7L558,679.7 M557.8,679.7C557.8,679.7,557.7,679.7,557.8,679.7
					C557.7,679.7,557.8,679.7,557.8,679.7L557.8,679.7L557.8,679.7L557.8,679.7L557.8,679.7 M557.6,679.8
					C557.6,679.8,557.6,679.7,557.6,679.8C557.6,679.7,557.6,679.7,557.6,679.8L557.6,679.8C557.6,679.7,557.6,679.7,557.6,679.8
					C557.6,679.7,557.6,679.8,557.6,679.8L557.6,679.8 M557.4,679.8C557.4,679.8,557.4,679.7,557.4,679.8
					C557.4,679.7,557.4,679.7,557.4,679.8L557.4,679.8C557.4,679.7,557.5,679.7,557.4,679.8C557.5,679.7,557.4,679.8,557.4,679.8
					L557.4,679.8 M557.2,679.8L557.2,679.8C557.2,679.7,557.2,679.7,557.2,679.8L557.2,679.8C557.3,679.7,557.3,679.7,557.2,679.8
					C557.3,679.7,557.3,679.8,557.2,679.8L557.2,679.8 M557.1,679.8C557,679.8,557,679.8,557.1,679.8
					C557,679.7,557,679.7,557.1,679.8L557.1,679.8C557.1,679.7,557.1,679.7,557.1,679.8L557.1,679.8L557.1,679.8 M556.9,679.8
					C556.9,679.8,556.8,679.8,556.9,679.8C556.8,679.7,556.9,679.7,556.9,679.8L556.9,679.8C556.9,679.7,556.9,679.7,556.9,679.8
					L556.9,679.8L556.9,679.8 M556.7,679.8L556.7,679.8C556.7,679.7,556.7,679.7,556.7,679.8L556.7,679.8
					C556.7,679.7,556.7,679.7,556.7,679.8L556.7,679.8L556.7,679.8 M556.5,679.8L556.5,679.8C556.5,679.7,556.5,679.7,556.5,679.8
					L556.5,679.8C556.5,679.7,556.6,679.7,556.5,679.8C556.6,679.8,556.5,679.8,556.5,679.8L556.5,679.8 M556.3,679.8L556.3,679.8
					C556.3,679.7,556.3,679.7,556.3,679.8L556.3,679.8C556.4,679.7,556.4,679.7,556.3,679.8C556.4,679.8,556.4,679.8,556.3,679.8
					L556.3,679.8 M556.2,679.8C556.1,679.8,556.1,679.8,556.2,679.8C556.1,679.7,556.1,679.7,556.2,679.8L556.2,679.8
					C556.2,679.7,556.2,679.7,556.2,679.8L556.2,679.8L556.2,679.8 M556,679.8C556,679.8,555.9,679.8,556,679.8
					C555.9,679.8,556,679.7,556,679.8L556,679.8C556,679.7,556,679.8,556,679.8L556,679.8L556,679.8 M555.8,679.8L555.8,679.8
					C555.8,679.8,555.8,679.7,555.8,679.8L555.8,679.8C555.8,679.7,555.8,679.8,555.8,679.8L555.8,679.8L555.8,679.8 M555.6,679.8
					L555.6,679.8L555.6,679.8L555.6,679.8L555.6,679.8L555.6,679.8L555.6,679.8 M555.4,679.8L555.4,679.8L555.4,679.8L555.4,679.8
					C555.5,679.8,555.5,679.8,555.4,679.8C555.5,679.8,555.5,679.8,555.4,679.8L555.4,679.8 M555.3,679.8
					C555.2,679.8,555.2,679.8,555.3,679.8C555.2,679.8,555.2,679.8,555.3,679.8L555.3,679.8L555.3,679.8L555.3,679.8L555.3,679.8
					 M555.1,679.8C555.1,679.8,555,679.8,555.1,679.8C555,679.8,555.1,679.8,555.1,679.8L555.1,679.8L555.1,679.8L555.1,679.8
					L555.1,679.8 M554.9,679.8L554.9,679.8L554.9,679.8L554.9,679.8L554.9,679.8L554.9,679.8L554.9,679.8 M554.7,679.9
					C554.7,679.9,554.7,679.8,554.7,679.9C554.7,679.8,554.7,679.8,554.7,679.9L554.7,679.9C554.7,679.8,554.7,679.8,554.7,679.9
					C554.7,679.8,554.7,679.8,554.7,679.9L554.7,679.9 M554.5,679.9C554.5,679.9,554.5,679.8,554.5,679.9
					C554.5,679.8,554.5,679.8,554.5,679.9L554.5,679.9C554.5,679.8,554.6,679.8,554.5,679.9C554.6,679.8,554.5,679.9,554.5,679.9
					L554.5,679.9 M554.3,679.9C554.3,679.9,554.3,679.8,554.3,679.9C554.3,679.8,554.3,679.8,554.3,679.9L554.3,679.9
					C554.4,679.8,554.4,679.8,554.3,679.9C554.4,679.8,554.4,679.9,554.3,679.9L554.3,679.9 M554.2,679.9
					C554.1,679.9,554.1,679.9,554.2,679.9C554.1,679.8,554.1,679.8,554.2,679.9L554.2,679.9C554.2,679.8,554.2,679.8,554.2,679.9
					L554.2,679.9L554.2,679.9 M554,679.9L554,679.9C554,679.8,554,679.8,554,679.9L554,679.9C554,679.8,554,679.8,554,679.9
					L554,679.9L554,679.9 M553.8,679.9L553.8,679.9C553.8,679.8,553.8,679.8,553.8,679.9L553.8,679.9
					C553.8,679.8,553.8,679.8,553.8,679.9L553.8,679.9L553.8,679.9 M553.6,679.9L553.6,679.9C553.6,679.8,553.6,679.8,553.6,679.9
					L553.6,679.9C553.6,679.8,553.7,679.8,553.6,679.9C553.7,679.9,553.6,679.9,553.6,679.9L553.6,679.9 M553.4,679.9L553.4,679.9
					C553.4,679.8,553.4,679.8,553.4,679.9L553.4,679.9C553.5,679.8,553.5,679.8,553.4,679.9C553.5,679.9,553.5,679.9,553.4,679.9
					L553.4,679.9 M553.3,679.9C553.2,679.9,553.2,679.9,553.3,679.9C553.2,679.8,553.2,679.8,553.3,679.9L553.3,679.9
					C553.3,679.8,553.3,679.8,553.3,679.9L553.3,679.9L553.3,679.9 M553.1,679.9C553.1,679.9,553,679.9,553.1,679.9
					C553,679.9,553.1,679.8,553.1,679.9L553.1,679.9C553.1,679.8,553.1,679.9,553.1,679.9L553.1,679.9L553.1,679.9 M552.9,679.9
					L552.9,679.9C552.9,679.9,552.9,679.8,552.9,679.9L552.9,679.9C552.9,679.8,552.9,679.9,552.9,679.9L552.9,679.9L552.9,679.9
					 M552.7,679.9L552.7,679.9C552.7,679.9,552.7,679.8,552.7,679.9L552.7,679.9C552.7,679.8,552.8,679.9,552.7,679.9
					C552.8,679.9,552.7,679.9,552.7,679.9L552.7,679.9 M552.5,679.9L552.5,679.9L552.5,679.9L552.5,679.9
					C552.6,679.9,552.6,679.9,552.5,679.9C552.6,679.9,552.6,679.9,552.5,679.9L552.5,679.9 M552.4,679.9
					C552.3,679.9,552.3,679.9,552.4,679.9C552.3,679.9,552.3,679.9,552.4,679.9L552.4,679.9L552.4,679.9L552.4,679.9L552.4,679.9
					 M552.2,679.9C552.2,679.9,552.1,679.9,552.2,679.9C552.1,679.9,552.2,679.9,552.2,679.9L552.2,679.9L552.2,679.9L552.2,679.9
					L552.2,679.9 M552,679.9L552,679.9L552,679.9L552,679.9L552,679.9L552,679.9L552,679.9 M551.8,679.9L551.8,679.9L551.8,679.9
					L551.8,679.9L551.8,679.9C551.9,679.9,551.8,679.9,551.8,679.9L551.8,679.9 M551.6,680C551.6,680,551.6,679.9,551.6,680
					C551.6,679.9,551.6,679.9,551.6,680L551.6,680C551.7,679.9,551.7,679.9,551.6,680C551.7,679.9,551.7,680,551.6,680L551.6,680
					 M551.5,680C551.4,680,551.4,679.9,551.5,680C551.4,679.9,551.4,679.9,551.5,680L551.5,680C551.5,679.9,551.5,679.9,551.5,680
					C551.5,679.9,551.5,680,551.5,680L551.5,680 M551.3,680C551.3,680,551.2,680,551.3,680C551.2,679.9,551.3,679.9,551.3,680
					L551.3,680C551.3,679.9,551.3,679.9,551.3,680L551.3,680L551.3,680 M551.1,680L551.1,680C551.1,679.9,551.1,679.9,551.1,680
					C551.1,679.9,551.1,679.9,551.1,680C551.1,679.9,551.1,679.9,551.1,680L551.1,680L551.1,680 M550.9,680L550.9,680
					C550.9,679.9,550.9,679.9,550.9,680L550.9,680C550.9,679.9,550.9,679.9,550.9,680L550.9,680L550.9,680 M550.7,680L550.7,680
					C550.7,679.9,550.7,679.9,550.7,680L550.7,680C550.7,679.9,550.8,679.9,550.7,680C550.8,680,550.8,680,550.7,680L550.7,680
					 M550.6,680C550.5,680,550.5,680,550.6,680C550.5,679.9,550.5,679.9,550.6,680L550.6,680C550.6,679.9,550.6,679.9,550.6,680
					L550.6,680L550.6,680 M550.4,680C550.4,680,550.3,680,550.4,680C550.3,679.9,550.3,679.9,550.4,680
					C550.4,679.9,550.4,679.9,550.4,680C550.4,679.9,550.4,679.9,550.4,680L550.4,680L550.4,680 M550.2,680L550.2,680
					C550.2,680,550.2,679.9,550.2,680C550.2,679.9,550.2,679.9,550.2,680C550.2,679.9,550.2,679.9,550.2,680L550.2,680L550.2,680"/>
			</g>
		</g>
		<g id="XMLID_6901_">
			<g id="XMLID_6902_">
				<polygon id="XMLID_6903_" class="st15" points="549.8,691.8 549.3,692.2 549.9,690.6 549.4,690.8 550,688.7 552.1,688.6 
					553.5,690.2 552.1,692.1 552,691.6 551.2,693 551.1,692.4 549.5,694.3 				"/>
			</g>
		</g>
		<g id="XMLID_6896_">
			<g id="XMLID_6897_">
				<path id="XMLID_6898_" class="st15" d="M552,688.7l1.3,1.5l-1.2,1.7l-0.1-0.5l-0.8,1.4l-0.1-0.5l-1.6,1.8l0.3-2.3l-0.4,0.3
					l0.5-1.5l-0.5,0.2l0.5-1.9L552,688.7z M552.1,688.5L552.1,688.5l-2.1,0.1h-0.1l-0.6,2.4l0.4-0.2h0.1l-0.6,1.6l0.6-0.4l-0.4,2.5
					l1.7-1.9l0.1,0.7l0.9-1.5l0.1,0.5l1.5-2.1L552.1,688.5z"/>
			</g>
		</g>
		<g id="XMLID_6893_">
			<g id="XMLID_6894_">
				<polygon id="XMLID_6895_" class="st11" points="553.5,690 552.2,691.9 552,691.3 551.2,692.7 551.2,692.2 549.6,694 550,691.6 
					549.5,691.9 550.1,690.4 549.6,690.7 550.1,688.6 552.1,688.5 				"/>
			</g>
		</g>
		<g id="XMLID_6890_">
			<g id="XMLID_6891_">
				<polygon id="XMLID_6892_" class="st12" points="552.9,689.9 552,688.8 550.6,688.9 550.2,690.3 550.6,690.1 550.1,691.6 
					550.5,691.3 550.3,692.6 551.1,691.5 551.1,692 551.9,690.7 552.1,691.2 				"/>
			</g>
		</g>
	</g>
	<g>
		<path class="st1" d="M480.1,680.1c0-0.5,0-1-0.2-1.5c-0.1-0.4-0.4-0.7-0.7-0.7c-0.6,0-0.8,0.6-0.8,1.5c0,0.5,0.2,1,0.6,1.6
			c0.3,0.6,0.8,1.2,1.2,1.8c0.5,0.8,1,1.5,1.4,2.3s0.7,1.5,0.7,2.3c0,1-0.2,1.9-0.6,2.6c-0.5,0.7-1.2,1.1-2.4,1.1
			c-1.4,0-2.2-0.5-2.7-1.3c-0.4-0.8-0.6-1.9-0.6-3l2.2-0.2c0,0.6,0,1.3,0.2,1.7c0.1,0.5,0.4,0.8,0.9,0.8c0.7,0,0.9-0.7,0.9-1.7
			c0-0.5-0.2-1.1-0.6-1.7c-0.2-0.3-0.4-0.6-0.6-0.9c-0.4-0.6-0.9-1.3-1.4-2.1s-0.9-1.5-1.1-2.3c-0.1-0.4-0.2-0.8-0.2-1.2
			c0-0.8,0.2-1.7,0.7-2.4s1.2-1.1,2.2-1.1c1.3,0,2.1,0.5,2.5,1.3s0.6,1.8,0.6,2.7L480.1,680.1z"/>
		<path class="st1" d="M485.5,676.1v7.1h0.1l0.1-0.4l1-2.9h1.9l-1.5,3.6l1.9,7.5h-2l-1-4.5v-0.2h-0.1l-0.1,0.2l-0.3,0.7v3.9h-2.1
			v-15L485.5,676.1L485.5,676.1z"/>
		<path class="st1" d="M494.8,688.3c-0.1,1.1-0.4,1.8-1.1,2.4c-0.4,0.3-0.9,0.4-1.6,0.4c-1.3,0-2-0.7-2.3-1.5
			c-0.2-0.4-0.3-0.9-0.3-1.5v-5.6c0.1-1.1,0.4-1.9,1.1-2.5c0.3-0.3,0.9-0.4,1.5-0.4c1.3,0,2,0.7,2.3,1.5c0.2,0.4,0.3,0.9,0.3,1.4
			v5.8H494.8z M492.9,682.7c0-0.4-0.1-0.7-0.3-1c-0.1-0.1-0.3-0.2-0.4-0.2c-0.4,0-0.6,0.3-0.6,0.6c-0.1,0.2-0.1,0.3-0.1,0.6v5.6
			c0,0.4,0.1,0.7,0.3,1c0.1,0.1,0.2,0.2,0.4,0.2c0.4,0,0.6-0.2,0.7-0.6c0.1-0.2,0.1-0.3,0.1-0.6v-5.6H492.9z"/>
		<path class="st1" d="M496.2,684.6h3v1.9h-3V684.6z"/>
		<path class="st1" d="M503,683.2l-0.2-0.7h-0.1v8.5h-2v-15h2l2.1,7.8l0.2,0.7h0.1V676h2v15h-2L503,683.2z"/>
		<path class="st1" d="M513.9,687.1v1.3c-0.1,1.1-0.4,1.8-1.1,2.4c-0.4,0.3-0.9,0.4-1.6,0.4c-1.3,0-2-0.7-2.3-1.5
			c-0.2-0.4-0.3-0.9-0.3-1.5v-5.6c0.1-1.1,0.4-1.9,1.1-2.5c0.3-0.3,0.9-0.4,1.5-0.4c1.3,0,2,0.7,2.3,1.5c0.2,0.4,0.3,0.9,0.3,1.4
			v3.2h-3.4v2.4c0,0.4,0.1,0.7,0.3,1c0.1,0.1,0.2,0.2,0.4,0.2c0.4,0,0.6-0.2,0.7-0.6c0.1-0.2,0.1-0.3,0.1-0.6V687h2V687.1z
			 M510.5,684.2h1.5v-1.6c0-0.4-0.1-0.7-0.3-1c-0.1-0.1-0.3-0.2-0.4-0.2c-0.4,0-0.6,0.3-0.7,0.6c-0.1,0.2-0.1,0.3-0.1,0.6V684.2z"/>
		<path class="st1" d="M519.9,691.1l-0.8-5.3l-0.1-0.6h-0.1l-0.1,0.6l-0.8,5.3h-1.7l-1.7-11.2h1.9l0.7,5.8l0.1,0.6h0.1l0.1-0.6
			l0.9-5.8h1.2l0.9,5.8l0.1,0.6h0.1l0.1-0.6l0.7-5.8h1.9l-1.7,11.2H519.9z"/>
		<path class="st1" d="M527.4,682.8c0-0.3,0-0.6-0.1-0.9c-0.1-0.2-0.3-0.4-0.6-0.4c-0.3,0-0.4,0.2-0.5,0.4c-0.1,0.2-0.1,0.6-0.1,0.9
			c0,0.3,0.2,0.7,0.4,1c0.2,0.3,0.6,0.7,0.9,1c0.4,0.4,0.9,0.9,1.3,1.5c0.3,0.6,0.6,1.2,0.6,1.9s-0.2,1.5-0.6,2
			c-0.4,0.6-1.1,1-2.1,1c-1.2,0-2-0.6-2.4-1.3s-0.5-1.6-0.5-2.1h1.9c0,0.3,0,0.7,0.2,1.1c0.1,0.3,0.4,0.6,0.8,0.6
			c0.6,0,0.7-0.7,0.7-1.3c0-0.7-0.7-1.3-1.3-2c-0.5-0.5-1-0.9-1.3-1.5c-0.3-0.6-0.6-1.2-0.6-2c0-0.7,0.1-1.4,0.5-2s1-1,2-1
			c1.2,0,1.9,0.4,2.2,1s0.4,1.4,0.4,2h-1.8V682.8z"/>
	</g>
</g>
</svg>
