<!-- Generator: Adobe Illustrator 19.1.0, SVG Export Plug-In  -->
<svg version="1.1"
	 xmlns="http://www.w3.org/2000/svg" xmlns:xlink="http://www.w3.org/1999/xlink" xmlns:a="http://ns.adobe.com/AdobeSVGViewerExtensions/3.0/"
	 x="0px" y="0px" width="54.8px" height="20.6px" viewBox="0 0 54.8 20.6" style="enable-background:new 0 0 54.8 20.6;"
	 xml:space="preserve">
<style type="text/css">
	.st0{fill:#FFFFFF;}
</style>
<defs>
</defs>
<g>
	<path class="st0" d="M7.3,9H0.8c0,0-0.8-9,8.1-9c4.4,0,6.5,2.1,7.4,4.1c1.1,2.4,0.7,5.2-0.8,7.4c-0.7,1-1.7,2.1-3.1,2.7h7V0h13.4
		v6.2h-5.9v1.9h5.3v5.1h-5.2v7.4H0v-1.3L9,9c0.4-0.4,0.6-1,0.6-1.5c0-0.5-0.3-1.1-1.1-1.1C6.6,6.5,7.3,9,7.3,9z"/>
	<path class="st0" d="M28.3,14.4v6.2h17.9c0,0,8.6-0.3,8.6-10.3S44.8,0.3,44.8,0.3h-9.4v12.9h7.2V6.6c0,0,4.4-0.1,4.4,3.8
		s-3.8,3.8-3.8,3.8L28.3,14.4z"/>
</g>
</svg>
