<!-- Generator: Adobe Illustrator 19.1.0, SVG Export Plug-In  -->
<svg version="1.1"
	 xmlns="http://www.w3.org/2000/svg" xmlns:xlink="http://www.w3.org/1999/xlink" xmlns:a="http://ns.adobe.com/AdobeSVGViewerExtensions/3.0/"
	 x="0px" y="0px" width="209.1px" height="32.7px" viewBox="0 0 209.1 32.7" style="enable-background:new 0 0 209.1 32.7;"
	 xml:space="preserve">
<style type="text/css">
	.st0{fill:#1b95d4;}
	.st1{clip-path:url(#SVGID_2_);fill:#1b95d4;}
	.st2{clip-path:url(#SVGID_4_);fill:#1b95d4;}
</style>
<defs>
</defs>
<g>
	<path class="st0" d="M16,9.6l-3.8,10.3h7.5L16,9.6L16,9.6z M24,31.6l-2.3-5.9H10.1l-2.2,5.9H0l12.6-30h7l12.5,30H24L24,31.6z"/>
	<path class="st0" d="M54.5,31.1c-2,0.9-4.2,1.3-6.7,1.3c-2.3,0-4.5-0.4-6.4-1.1c-2-0.8-3.7-1.8-5.1-3.2c-1.4-1.4-2.6-3.1-3.4-5
		c-0.8-1.9-1.2-4.1-1.2-6.4c0-2.4,0.4-4.6,1.3-6.5c0.8-2,2-3.6,3.5-5c1.5-1.4,3.2-2.4,5.2-3.2c2-0.7,4.1-1.1,6.4-1.1
		c2.1,0,4.2,0.4,6.3,1.1c2,0.7,3.7,1.8,5,3.3l-4.9,4.9c-0.7-0.9-1.6-1.6-2.7-2.1c-1.1-0.5-2.2-0.7-3.4-0.7c-1.3,0-2.4,0.2-3.5,0.7
		c-1.1,0.5-2,1.1-2.7,1.9c-0.8,0.8-1.4,1.8-1.8,2.9c-0.4,1.1-0.6,2.3-0.6,3.7c0,1.4,0.2,2.6,0.6,3.7c0.4,1.1,1,2.1,1.8,2.9
		c0.7,0.8,1.6,1.4,2.7,1.9c1,0.5,2.2,0.7,3.4,0.7c1.4,0,2.7-0.3,3.8-0.8c1.1-0.6,1.9-1.3,2.6-2.2l5,4.7C58.1,29,56.5,30.2,54.5,31.1
		L54.5,31.1z"/>
	<path class="st0" d="M82.7,31.1c-2,0.9-4.2,1.3-6.7,1.3c-2.3,0-4.5-0.4-6.4-1.1c-2-0.8-3.7-1.8-5.1-3.2C63,26.7,61.9,25,61,23
		c-0.8-1.9-1.2-4.1-1.2-6.4c0-2.4,0.4-4.6,1.3-6.5c0.8-2,2-3.6,3.5-5c1.5-1.4,3.2-2.4,5.2-3.2c2-0.7,4.1-1.1,6.4-1.1
		c2.1,0,4.2,0.4,6.3,1.1c2,0.7,3.7,1.8,5,3.3l-4.9,4.9c-0.7-0.9-1.6-1.6-2.7-2.1c-1.1-0.5-2.2-0.7-3.4-0.7c-1.3,0-2.4,0.2-3.5,0.7
		c-1.1,0.5-2,1.1-2.7,1.9c-0.8,0.8-1.4,1.8-1.8,2.9c-0.4,1.1-0.6,2.3-0.6,3.7c0,1.4,0.2,2.6,0.6,3.7c0.4,1.1,1,2.1,1.8,2.9
		c0.7,0.8,1.6,1.4,2.7,1.9c1,0.5,2.2,0.7,3.4,0.7c1.4,0,2.7-0.3,3.8-0.8c1.1-0.6,1.9-1.3,2.6-2.2l5,4.7C86.3,29,84.6,30.2,82.7,31.1
		L82.7,31.1z"/>
	<polygon class="st0" points="89.9,31.6 89.9,1.6 110.1,1.6 110.1,7.7 96.9,7.7 96.9,13.4 109.4,13.4 109.4,19.2 96.9,19.2
		96.9,25.4 110.8,25.4 110.8,31.6 89.9,31.6 	"/>
	<polygon class="st0" points="133.9,31.6 121.8,12 121.7,12 121.8,31.6 114.8,31.6 114.8,1.6 123.1,1.6 135.1,21.2 135.2,21.2
		135,1.6 142.1,1.6 142.1,31.6 133.9,31.6 	"/>
	<g>
		<defs>
			<rect id="SVGID_1_" y="0" width="209.1" height="32.7"/>
		</defs>
		<clipPath id="SVGID_2_">
			<use xlink:href="#SVGID_1_"  style="overflow:visible;"/>
		</clipPath>
		<polygon class="st1" points="160.3,7.8 160.3,31.6 153.1,31.6 153.1,7.8 144.6,7.8 144.6,1.6 168.8,1.6 168.8,7.8 160.3,7.8 		"/>
		<path class="st1" d="M193.3,32.7c-3-1.9-15.8-15.5-15.8-24.8c0-4.4,3.5-7.9,7.9-7.9c4.4,0,7.9,3.5,7.9,7.9c0-4.4,3.5-7.9,7.9-7.9
			c4.4,0,7.9,3.5,7.9,7.9C209.1,17.2,196.3,30.8,193.3,32.7"/>
	</g>
</g>
</svg>
