<!-- Generator: Adobe Illustrator 19.1.0, SVG Export Plug-In  -->
<svg version="1.1"
	 xmlns="http://www.w3.org/2000/svg" xmlns:xlink="http://www.w3.org/1999/xlink" xmlns:a="http://ns.adobe.com/AdobeSVGViewerExtensions/3.0/"
	 x="0px" y="0px" width="64.7px" height="36.1px" viewBox="0 0 64.7 36.1" style="enable-background:new 0 0 64.7 36.1;"
	 xml:space="preserve">
<style type="text/css">
	.st0{fill:#FFFFFF;}
</style>
<defs>
</defs>
<path class="st0" d="M6.1,29.2h1.6l3.6,6.8H9.5l-0.7-1.4H4.9l-0.7,1.4H2.5L6.1,29.2z M5.5,33.4h2.8l-1.4-2.7L5.5,33.4z M16.3,35.4
	c-0.4,0.3-1.2,0.6-2,0.6c-1.2,0-2.4-0.4-2.4-2.1v-2.8h1.5v2.6c0,0.8,0.4,1.2,1.3,1.2c0.6,0,1-0.2,1.5-0.4v-3.4h1.5v4.8h-1.3
	L16.3,35.4z M19.1,33.5c0-1.6,1-2.5,2.8-2.5c0.7,0,1.4,0.2,1.9,0.5v-2.3h1.5v6.8H24l-0.1-0.5c-0.4,0.4-1.2,0.7-2,0.7
	C20.1,36.1,19.1,35.1,19.1,33.5z M23.8,34.5v-2c-0.5-0.3-1-0.4-1.6-0.4c-1,0-1.5,0.5-1.5,1.4c0,0.9,0.5,1.4,1.5,1.4
	C22.8,34.9,23.3,34.8,23.8,34.5z M27.1,29.2h1.5v1.3h-1.5V29.2z M27.1,31.1h1.5v4.8h-1.5V31.1z M53.5,0c-2.7,0-5.1,0.9-7,2.5
	c-1.9-1.6-4.4-2.5-7-2.5c-2.7,0-5.1,0.9-7,2.5C30.4,0.9,28,0,25.3,0c-2.7,0-5.1,0.9-7,2.5c-1.9-1.6-4.4-2.5-7-2.5C5,0,0,5,0,11.2
	c0,6.2,5,11.2,11.2,11.2c2.7,0,5.1-0.9,7-2.5c1.9,1.6,4.4,2.5,7,2.5c2.7,0,5.1-0.9,7-2.5c1.9,1.6,4.4,2.5,7,2.5c2.7,0,5.1-0.9,7-2.5
	c1.9,1.6,4.4,2.5,7,2.5c6.2,0,11.2-5,11.2-11.2C64.7,5,59.7,0,53.5,0z M46.4,16.2c-1-1.4-1.6-3.2-1.6-5c0-1.9,0.6-3.6,1.6-5
	c1,1.4,1.6,3.2,1.6,5C48,13.1,47.4,14.8,46.4,16.2z M32.3,16.2c-1-1.4-1.6-3.2-1.6-5c0-1.9,0.6-3.6,1.6-5c1,1.4,1.6,3.2,1.6,5
	C33.9,13.1,33.4,14.8,32.3,16.2z M18.2,16.2c-1-1.4-1.6-3.2-1.6-5c0-1.9,0.6-3.6,1.6-5c1,1.4,1.6,3.2,1.6,5
	C19.8,13.1,19.3,14.8,18.2,16.2z M2.5,11.2c0-4.8,3.9-8.7,8.7-8.7c2,0,3.8,0.7,5.3,1.8c-1.5,1.9-2.4,4.3-2.4,6.9
	c0,2.6,0.9,5,2.4,6.9c-1.5,1.1-3.3,1.8-5.3,1.8C6.4,19.8,2.5,16,2.5,11.2z M20,18.1c1.5-1.9,2.4-4.3,2.4-6.9c0-2.6-0.9-5-2.4-6.9
	c1.5-1.1,3.3-1.8,5.3-1.8c2,0,3.8,0.7,5.3,1.8c-1.5,1.9-2.4,4.3-2.4,6.9c0,2.6,0.9,5,2.4,6.9c-1.5,1.1-3.3,1.8-5.3,1.8
	C23.3,19.8,21.5,19.2,20,18.1z M34.1,18.1c1.5-1.9,2.4-4.3,2.4-6.9c0-2.6-0.9-5-2.4-6.9c1.5-1.1,3.3-1.8,5.3-1.8
	c2,0,3.8,0.7,5.3,1.8c-1.5,1.9-2.4,4.3-2.4,6.9c0,2.6,0.9,5,2.4,6.9c-1.5,1.1-3.3,1.8-5.3,1.8C37.4,19.8,35.6,19.2,34.1,18.1z
	 M53.5,19.8c-2,0-3.8-0.7-5.3-1.8c1.5-1.9,2.4-4.3,2.4-6.9c0-2.6-0.9-5-2.4-6.9c1.5-1.1,3.3-1.8,5.3-1.8c4.8,0,8.7,3.9,8.7,8.7
	C62.1,16,58.3,19.8,53.5,19.8z"/>
</svg>
