<!-- Generator: Adobe Illustrator 19.1.0, SVG Export Plug-In  -->
<svg version="1.1"
	 xmlns="http://www.w3.org/2000/svg" xmlns:xlink="http://www.w3.org/1999/xlink" xmlns:a="http://ns.adobe.com/AdobeSVGViewerExtensions/3.0/"
	 x="0px" y="0px" width="118.6px" height="33.6px" viewBox="0 0 118.6 33.6" style="enable-background:new 0 0 118.6 33.6;"
	 xml:space="preserve">
<style type="text/css">
	.st0{fill:#FFFFFF;}
</style>
<defs>
</defs>
<g>
	<path class="st0" d="M36.8,7.2c0.4,0,0.7,0.2,0.7,0.5s-0.3,0.5-0.7,0.5h-2.7c-0.4,0-0.7,0.4-0.7,0.8v10.3c0,0.4-0.3,0.8-0.6,0.8
		c-0.3,0-0.6-0.4-0.6-0.8V9c0-0.4-0.3-0.8-0.7-0.8h-2.7c-0.4,0-0.7-0.2-0.7-0.5s0.3-0.5,0.7-0.5H36.8"/>
	<path class="st0" d="M44.1,8.2c-0.4,0-0.8,0-1.1,0.1c-0.4,0.1-0.7,0.2-0.9,0.4c-0.3,0.2-0.5,0.4-0.6,0.8c-0.2,0.3-0.2,0.7-0.2,1.2
		c0,0.3,0,0.5,0.1,0.8c0.1,0.2,0.2,0.4,0.4,0.5c0.2,0.1,0.4,0.3,0.6,0.4c0.2,0.1,0.2,0.1,0.2,0.1c0.3,0.1,0.8,0.2,1.1,0.3l2.2,0.6
		c0.4,0.1,0.8,0.3,1.2,0.4c0.4,0.2,0.7,0.4,1,0.6c0.3,0.2,0.5,0.6,0.7,0.9c0.2,0.4,0.2,0.8,0.2,1.3c0,0.1,0,0.3,0,0.6
		c0,0.2-0.1,0.5-0.2,0.7c-0.1,0.3-0.3,0.5-0.4,0.8c-0.2,0.3-0.5,0.5-0.8,0.7c-0.3,0.2-0.7,0.4-1.2,0.5C45.6,19.9,45,20,44.3,20
		l-3.4,0c-0.4,0-0.7-0.2-0.7-0.5c0-0.3,0.3-0.5,0.7-0.5h3.7c0.3,0,0.6,0,1-0.1c0.4-0.1,0.7-0.2,1-0.4c0.3-0.2,0.6-0.5,0.8-0.8
		c0.2-0.3,0.3-0.7,0.3-1.2c0-0.3-0.1-0.6-0.2-0.9c-0.1-0.3-0.3-0.5-0.6-0.6c-0.2-0.2-0.5-0.3-0.8-0.4c-0.3-0.1-0.3-0.1-0.3-0.1
		c-0.3-0.1-0.9-0.2-1.2-0.3l-1.9-0.5c-0.3-0.1-0.7-0.2-1-0.3c-0.3-0.1-0.6-0.3-0.8-0.6c-0.2-0.2-0.4-0.5-0.6-0.8
		c-0.1-0.3-0.2-0.7-0.2-1.2c0-0.3,0.1-0.7,0.2-1.1c0.1-0.4,0.3-0.8,0.6-1.1c0.3-0.4,0.7-0.7,1.2-0.9c0.5-0.2,1.2-0.4,2-0.4h3.4
		c0.4,0,0.7,0.2,0.7,0.5c0,0.3-0.3,0.5-0.7,0.5L44.1,8.2"/>
	<path class="st0" d="M59.6,7.2c0.4,0,0.7,0.2,0.7,0.5s-0.3,0.5-0.7,0.5h-2.7c-0.4,0-0.7,0.4-0.7,0.8v10.3c0,0.4-0.3,0.8-0.6,0.8
		c-0.3,0-0.6-0.4-0.6-0.8V9c0-0.4-0.3-0.8-0.7-0.8h-2.7C51.3,8.2,51,8,51,7.7s0.3-0.5,0.7-0.5H59.6"/>
	<path class="st0" d="M83,7.2c0.4,0,0.7,0.2,0.7,0.5S83.4,8.2,83,8.2h-5.6c-0.4,0-0.7,0.4-0.7,0.8v3.1c0,0.4,0.3,0.8,0.7,0.8h2.9
		c0.4,0,0.7,0.2,0.7,0.5c0,0.3-0.3,0.5-0.7,0.5h-2.9c-0.4,0-0.7,0.4-0.7,0.8v3.5c0,0.4,0.3,0.8,0.7,0.8h5.6c0.4,0,0.7,0.2,0.7,0.5
		c0,0.3-0.3,0.5-0.7,0.5h-6.8c-0.4,0-0.7-0.4-0.7-0.8V8c0-0.4,0.3-0.8,0.7-0.8H83"/>
	<path class="st0" d="M91,7.2c0.3,0,0.7,0.3,0.9,0.7L96,19.3c0.1,0.4,0,0.7-0.3,0.7c-0.3,0-0.7-0.3-0.9-0.7l-0.9-2.6
		c-0.1-0.4-0.6-0.7-1-0.7H89c-0.4,0-0.8,0.3-1,0.7l-0.9,2.6c-0.1,0.4-0.5,0.7-0.8,0.7c-0.3,0-0.5-0.3-0.3-0.7l4.2-11.4
		C90.3,7.5,90.7,7.2,91,7.2 M92.5,15c0.4,0,0.6-0.3,0.5-0.7l-1.8-5.1c-0.1-0.4-0.4-0.4-0.5,0l-1.8,5.2C88.8,14.7,89,15,89.3,15H92.5
		z"/>
	<path class="st0" d="M13.4,22.6c0.1,0,0.3,0,0.4,0.1c0.1,0,0.2,0.1,0.3,0.2c0.1,0.1,0.1,0.2,0.2,0.3c0,0.1,0.1,0.2,0.1,0.4
		c0,0.1,0,0.3-0.1,0.4c0,0.1-0.1,0.2-0.2,0.3c-0.1,0.1-0.2,0.1-0.3,0.2c-0.1,0-0.2,0.1-0.4,0.1h-1v1.4h-0.3v-3.3H13.4 M13.3,24.2
		c0.2,0,0.4-0.1,0.5-0.2c0.1-0.1,0.2-0.3,0.2-0.5c0-0.2-0.1-0.4-0.2-0.5c-0.1-0.1-0.3-0.2-0.5-0.2h-1v1.3H13.3z"/>
	<path class="st0" d="M16.5,22.6c0.1,0,0.2,0,0.4,0.1c0.1,0,0.2,0.1,0.3,0.2c0.1,0.1,0.1,0.2,0.2,0.3c0,0.1,0.1,0.2,0.1,0.4
		c0,0.2,0,0.4-0.1,0.5c-0.1,0.2-0.2,0.3-0.4,0.3v0c0.1,0,0.2,0,0.2,0.1c0.1,0,0.1,0.1,0.2,0.2c0,0.1,0.1,0.1,0.1,0.2
		c0,0.1,0,0.2,0,0.3c0,0.1,0,0.1,0,0.2c0,0.1,0,0.2,0,0.2c0,0.1,0,0.2,0,0.2c0,0.1,0,0.1,0.1,0.2h-0.3c0,0,0-0.1,0-0.1
		c0,0,0-0.1,0-0.1c0,0,0-0.1,0-0.1c0,0,0-0.1,0-0.1c0-0.1,0-0.2,0-0.3c0-0.1,0-0.2-0.1-0.3c0-0.1-0.1-0.2-0.2-0.2
		c-0.1-0.1-0.2-0.1-0.3-0.1h-1.1v1.5h-0.3v-3.3H16.5 M16.5,24.1c0.1,0,0.2,0,0.2,0c0.1,0,0.1-0.1,0.2-0.1c0.1-0.1,0.1-0.1,0.1-0.2
		c0-0.1,0.1-0.2,0.1-0.3c0-0.2-0.1-0.4-0.2-0.5c-0.1-0.1-0.3-0.2-0.5-0.2h-1.1v1.3H16.5z"/>
	<path class="st0" d="M18.3,23.6c0.1-0.2,0.1-0.4,0.3-0.5c0.1-0.2,0.3-0.3,0.4-0.4c0.2-0.1,0.4-0.1,0.6-0.1c0.2,0,0.4,0,0.6,0.1
		c0.2,0.1,0.3,0.2,0.4,0.4c0.1,0.2,0.2,0.3,0.3,0.5C21,23.8,21,24,21,24.2c0,0.2,0,0.4-0.1,0.7c-0.1,0.2-0.1,0.4-0.3,0.5
		c-0.1,0.2-0.3,0.3-0.4,0.4c-0.2,0.1-0.4,0.1-0.6,0.1c-0.2,0-0.4,0-0.6-0.1c-0.2-0.1-0.3-0.2-0.4-0.4c-0.1-0.2-0.2-0.3-0.3-0.5
		c-0.1-0.2-0.1-0.4-0.1-0.7C18.2,24,18.2,23.8,18.3,23.6 M18.5,24.7c0,0.2,0.1,0.3,0.2,0.5c0.1,0.1,0.2,0.2,0.4,0.3
		c0.1,0.1,0.3,0.1,0.5,0.1c0.2,0,0.4,0,0.5-0.1c0.1-0.1,0.3-0.2,0.3-0.3c0.1-0.1,0.2-0.3,0.2-0.5c0-0.2,0.1-0.4,0.1-0.5
		c0-0.2,0-0.4-0.1-0.5c0-0.2-0.1-0.3-0.2-0.5c-0.1-0.1-0.2-0.2-0.3-0.3c-0.1-0.1-0.3-0.1-0.5-0.1c-0.2,0-0.4,0-0.5,0.1
		c-0.1,0.1-0.3,0.2-0.4,0.3c-0.1,0.1-0.2,0.3-0.2,0.5c0,0.2-0.1,0.3-0.1,0.5C18.5,24.4,18.5,24.6,18.5,24.7z"/>
	<path class="st0" d="M23.4,22.6v2.4c0,0.2,0,0.3,0,0.4c0,0.1-0.1,0.2-0.1,0.3c-0.1,0.1-0.2,0.1-0.3,0.2c-0.1,0-0.2,0.1-0.4,0.1
		c-0.2,0-0.3,0-0.4-0.1c-0.1-0.1-0.2-0.1-0.3-0.2c-0.1-0.1-0.1-0.2-0.1-0.4c0-0.1,0-0.3,0-0.4H22c0,0.1,0,0.2,0,0.3
		c0,0.1,0,0.2,0.1,0.3c0,0.1,0.1,0.2,0.2,0.2c0.1,0.1,0.2,0.1,0.3,0.1c0.1,0,0.2,0,0.3,0c0.1,0,0.1-0.1,0.2-0.2
		c0-0.1,0.1-0.2,0.1-0.3c0-0.1,0-0.2,0-0.4v-2.2H23.4"/>
	<polyline class="st0" points="26.5,22.6 26.5,22.8 24.7,22.8 24.7,24 26.4,24 26.4,24.3 24.7,24.3 24.7,25.6 26.5,25.6 26.5,25.9 
		24.4,25.9 24.4,22.6 26.5,22.6 	"/>
	<path class="st0" d="M29.4,23.2c-0.1-0.1-0.1-0.2-0.2-0.3c-0.1-0.1-0.2-0.1-0.3-0.2c-0.1,0-0.2-0.1-0.3-0.1c-0.2,0-0.4,0-0.5,0.1
		c-0.1,0.1-0.3,0.2-0.4,0.3c-0.1,0.1-0.2,0.3-0.2,0.5c0,0.2-0.1,0.3-0.1,0.5c0,0.2,0,0.4,0.1,0.5c0,0.2,0.1,0.3,0.2,0.5
		c0.1,0.1,0.2,0.2,0.4,0.3c0.1,0.1,0.3,0.1,0.5,0.1c0.1,0,0.3,0,0.4-0.1c0.1-0.1,0.2-0.1,0.3-0.2c0.1-0.1,0.1-0.2,0.2-0.3
		c0.1-0.1,0.1-0.3,0.1-0.4h0.3c0,0.2-0.1,0.4-0.1,0.5c-0.1,0.2-0.2,0.3-0.3,0.4c-0.1,0.1-0.2,0.2-0.4,0.3c-0.1,0.1-0.3,0.1-0.5,0.1
		c-0.2,0-0.4,0-0.6-0.1c-0.2-0.1-0.3-0.2-0.4-0.4c-0.1-0.2-0.2-0.3-0.3-0.5c-0.1-0.2-0.1-0.4-0.1-0.7c0-0.2,0-0.4,0.1-0.7
		c0.1-0.2,0.1-0.4,0.3-0.5c0.1-0.2,0.3-0.3,0.4-0.4c0.2-0.1,0.4-0.1,0.6-0.1c0.1,0,0.3,0,0.4,0.1c0.1,0,0.3,0.1,0.4,0.2
		c0.1,0.1,0.2,0.2,0.3,0.3c0.1,0.1,0.1,0.3,0.1,0.5h-0.3C29.5,23.4,29.5,23.3,29.4,23.2"/>
	<polyline class="st0" points="32.8,22.6 32.8,22.8 31.7,22.8 31.7,25.9 31.4,25.9 31.4,22.8 30.4,22.8 30.4,22.6 32.8,22.6 	"/>
	<path class="st0" d="M33.7,25.2c0.1,0.1,0.1,0.2,0.2,0.3c0.1,0.1,0.2,0.1,0.3,0.1c0.1,0,0.2,0,0.4,0c0.1,0,0.2,0,0.3,0
		c0.1,0,0.2-0.1,0.3-0.1c0.1-0.1,0.1-0.1,0.2-0.2c0.1-0.1,0.1-0.2,0.1-0.3c0-0.1,0-0.2-0.1-0.2c0-0.1-0.1-0.1-0.1-0.2
		c-0.1,0-0.1-0.1-0.2-0.1c-0.1,0-0.1-0.1-0.2-0.1l-0.7-0.2c-0.1,0-0.2-0.1-0.3-0.1c-0.1,0-0.2-0.1-0.2-0.1c-0.1-0.1-0.1-0.1-0.1-0.2
		c0-0.1-0.1-0.2-0.1-0.3c0-0.1,0-0.2,0-0.3c0-0.1,0.1-0.2,0.2-0.3c0.1-0.1,0.2-0.2,0.3-0.2c0.1-0.1,0.3-0.1,0.5-0.1
		c0.1,0,0.3,0,0.4,0.1c0.1,0,0.3,0.1,0.4,0.2c0.1,0.1,0.2,0.2,0.2,0.3c0.1,0.1,0.1,0.3,0.1,0.4h-0.3c0-0.1,0-0.2-0.1-0.3
		S35.1,23,35,23c-0.1-0.1-0.2-0.1-0.3-0.1c-0.1,0-0.2,0-0.3,0c-0.1,0-0.2,0-0.3,0c-0.1,0-0.2,0.1-0.2,0.1c-0.1,0.1-0.1,0.1-0.2,0.2
		c0,0.1-0.1,0.2-0.1,0.3c0,0.1,0,0.1,0,0.2c0,0.1,0.1,0.1,0.1,0.1c0,0,0.1,0.1,0.1,0.1c0.1,0,0.1,0,0.2,0.1l0.7,0.2
		c0.1,0,0.2,0.1,0.3,0.1c0.1,0,0.2,0.1,0.2,0.2c0.1,0.1,0.1,0.1,0.2,0.2c0,0.1,0.1,0.2,0.1,0.3c0,0,0,0.1,0,0.1c0,0.1,0,0.1-0.1,0.2
		c0,0.1-0.1,0.1-0.1,0.2c0,0.1-0.1,0.1-0.2,0.2c-0.1,0.1-0.2,0.1-0.3,0.1c-0.1,0-0.3,0.1-0.5,0.1c-0.2,0-0.3,0-0.5-0.1
		c-0.2,0-0.3-0.1-0.4-0.2c-0.1-0.1-0.2-0.2-0.2-0.4c-0.1-0.1-0.1-0.3-0.1-0.5h0.3C33.6,24.9,33.6,25.1,33.7,25.2"/>
	<rect x="12.1" y="26.4" class="st0" width="0.3" height="3.3"/>
	<polyline class="st0" points="13.7,26.4 15.5,29.2 15.5,29.2 15.5,26.4 15.8,26.4 15.8,29.7 15.5,29.7 13.7,26.9 13.7,26.9 
		13.7,29.7 13.4,29.7 13.4,26.4 13.7,26.4 	"/>
	<polyline class="st0" points="12.5,30.2 13.5,33.1 14.5,30.2 15,30.2 15,33.5 14.7,33.5 14.7,30.7 14.7,30.7 13.6,33.5 13.4,33.5 
		12.3,30.7 12.3,30.7 12.3,33.5 12,33.5 12,30.2 12.5,30.2 	"/>
	<path class="st0" d="M15.9,31.2c0.1-0.2,0.1-0.4,0.3-0.5c0.1-0.2,0.3-0.3,0.4-0.4c0.2-0.1,0.4-0.1,0.6-0.1c0.2,0,0.4,0,0.6,0.1
		c0.2,0.1,0.3,0.2,0.4,0.4c0.1,0.2,0.2,0.3,0.3,0.5c0.1,0.2,0.1,0.4,0.1,0.7c0,0.2,0,0.4-0.1,0.7c-0.1,0.2-0.1,0.4-0.3,0.5
		c-0.1,0.2-0.3,0.3-0.4,0.4c-0.2,0.1-0.4,0.1-0.6,0.1c-0.2,0-0.4,0-0.6-0.1c-0.2-0.1-0.3-0.2-0.4-0.4c-0.1-0.2-0.2-0.3-0.3-0.5
		c-0.1-0.2-0.1-0.4-0.1-0.7C15.8,31.6,15.9,31.4,15.9,31.2 M16.2,32.4c0,0.2,0.1,0.3,0.2,0.5c0.1,0.1,0.2,0.2,0.4,0.3
		c0.1,0.1,0.3,0.1,0.5,0.1s0.4,0,0.5-0.1c0.1-0.1,0.3-0.2,0.3-0.3c0.1-0.1,0.2-0.3,0.2-0.5c0-0.2,0.1-0.4,0.1-0.5
		c0-0.2,0-0.4-0.1-0.5c0-0.2-0.1-0.3-0.2-0.5c-0.1-0.1-0.2-0.2-0.3-0.3c-0.1-0.1-0.3-0.1-0.5-0.1s-0.4,0-0.5,0.1
		c-0.1,0.1-0.3,0.2-0.4,0.3c-0.1,0.1-0.2,0.3-0.2,0.5c0,0.2-0.1,0.3-0.1,0.5C16.1,32,16.1,32.2,16.2,32.4z"/>
	<polyline class="st0" points="21.6,30.2 21.6,30.5 20.5,30.5 20.5,33.5 20.2,33.5 20.2,30.5 19.2,30.5 19.2,30.2 21.6,30.2 	"/>
	<rect x="22.3" y="30.2" class="st0" width="0.3" height="3.3"/>
	<path class="st0" d="M23.6,31.2c0.1-0.2,0.1-0.4,0.3-0.5c0.1-0.2,0.3-0.3,0.4-0.4c0.2-0.1,0.4-0.1,0.6-0.1c0.2,0,0.4,0,0.6,0.1
		c0.2,0.1,0.3,0.2,0.4,0.4c0.1,0.2,0.2,0.3,0.3,0.5c0.1,0.2,0.1,0.4,0.1,0.7c0,0.2,0,0.4-0.1,0.7c-0.1,0.2-0.1,0.4-0.3,0.5
		c-0.1,0.2-0.3,0.3-0.4,0.4c-0.2,0.1-0.4,0.1-0.6,0.1c-0.2,0-0.4,0-0.6-0.1c-0.2-0.1-0.3-0.2-0.4-0.4c-0.1-0.2-0.2-0.3-0.3-0.5
		c-0.1-0.2-0.1-0.4-0.1-0.7C23.5,31.6,23.5,31.4,23.6,31.2 M23.8,32.4c0,0.2,0.1,0.3,0.2,0.5c0.1,0.1,0.2,0.2,0.4,0.3
		c0.1,0.1,0.3,0.1,0.5,0.1c0.2,0,0.4,0,0.5-0.1c0.1-0.1,0.3-0.2,0.3-0.3c0.1-0.1,0.2-0.3,0.2-0.5c0-0.2,0.1-0.4,0.1-0.5
		c0-0.2,0-0.4-0.1-0.5c0-0.2-0.1-0.3-0.2-0.5c-0.1-0.1-0.2-0.2-0.3-0.3c-0.1-0.1-0.3-0.1-0.5-0.1c-0.2,0-0.4,0-0.5,0.1
		c-0.1,0.1-0.3,0.2-0.4,0.3c-0.1,0.1-0.2,0.3-0.2,0.5c0,0.2-0.1,0.3-0.1,0.5C23.8,32,23.8,32.2,23.8,32.4z"/>
	<polyline class="st0" points="27.5,30.2 29.2,33 29.2,33 29.2,30.2 29.5,30.2 29.5,33.5 29.2,33.5 27.5,30.7 27.4,30.7 27.4,33.5 
		27.2,33.5 27.2,30.2 27.5,30.2 	"/>
	<path class="st0" d="M0.4,5.3C0.2,5.3,0,5.1,0,4.9V0.4C0,0.2,0.2,0,0.4,0s0.4,0.2,0.4,0.4v4.5C0.7,5.1,0.6,5.3,0.4,5.3"/>
	<path class="st0" d="M5.2,0.8H0.4C0.2,0.8,0,0.6,0,0.4C0,0.2,0.2,0,0.4,0h4.9c0.2,0,0.4,0.2,0.4,0.4C5.6,0.6,5.4,0.8,5.2,0.8"/>
	<path class="st0" d="M37.2,5.2c-0.2,0-0.3-0.1-0.3-0.3V0.4c0-0.2,0.1-0.3,0.3-0.3c0.2,0,0.3,0.1,0.3,0.3v4.5
		C37.5,5,37.3,5.2,37.2,5.2"/>
	<path class="st0" d="M37.2,0.7h-4.9c-0.2,0-0.3-0.1-0.3-0.3c0-0.2,0.1-0.3,0.3-0.3h4.9c0.2,0,0.3,0.1,0.3,0.3
		C37.5,0.6,37.3,0.7,37.2,0.7"/>
	<path class="st0" d="M0.4,27.6c-0.2,0-0.3-0.1-0.3-0.3v-4.5c0-0.2,0.1-0.3,0.3-0.3c0.2,0,0.3,0.1,0.3,0.3v4.5
		C0.7,27.5,0.5,27.6,0.4,27.6"/>
	<path class="st0" d="M5.2,27.6H0.4c-0.2,0-0.3-0.1-0.3-0.3c0-0.2,0.1-0.3,0.3-0.3h4.9c0.2,0,0.3,0.1,0.3,0.3
		C5.5,27.5,5.4,27.6,5.2,27.6"/>
	<path class="st0" d="M37.2,27.6c-0.2,0-0.3-0.1-0.3-0.3v-4.5c0-0.2,0.1-0.3,0.3-0.3c0.2,0,0.3,0.1,0.3,0.3v4.5
		C37.5,27.5,37.4,27.6,37.2,27.6"/>
	<path class="st0" d="M37.2,27.6h-4.9c-0.2,0-0.3-0.1-0.3-0.3c0-0.2,0.1-0.3,0.3-0.3h4.9c0.2,0,0.3,0.1,0.3,0.3
		C37.5,27.5,37.4,27.6,37.2,27.6"/>
	<path class="st0" d="M20.1,14.3c-0.4-0.6-1.1-0.8-1.1-0.8c-0.4-0.1-0.7-0.2-0.7-0.2c0,0,0.3-0.1,0.6-0.2c0,0,0,0,0.2-0.2
		c0.2-0.2,0.5-0.4,0.6-0.7c0.2-0.3,0.3-0.5,0.4-0.9c0.1-0.3,0.1-0.6,0.1-1c0-0.6-0.1-1.1-0.3-1.5c-0.2-0.4-0.5-0.7-0.8-1
		c-0.3-0.2-0.7-0.4-1.2-0.5c-0.5-0.1-0.7-0.1-0.7-0.1c-0.4,0-1,0-1.4,0h-2.4c-0.4,0-0.7,0.2-0.7,0.5s0.3,0.5,0.7,0.5h2.4
		c0.4,0,1,0,1.4,0c0,0,0,0,0.3,0.1c0.3,0.1,0.5,0.2,0.7,0.3c0.3,0.2,0.5,0.5,0.7,0.8c0.2,0.3,0.2,0.7,0.2,1.2c0,0.3-0.1,0.6-0.2,0.8
		c-0.1,0.3-0.3,0.5-0.5,0.7c-0.2,0.2-0.5,0.4-0.8,0.5c-0.3,0.1-0.5,0.1-0.5,0.1c-0.4,0-1,0-1.4,0h-2.4c-0.4,0-0.7,0.2-0.7,0.5
		c0,0.3,0.3,0.5,0.7,0.5h2.4c0.4,0,1,0,1.4,0.1c0,0,1.1,0.1,1.6,0.5c0.5,0.4,0.8,1,0.8,1.9c0,0.5-0.1,0.9-0.2,1.3
		c-0.2,0.3-0.4,0.6-0.7,0.8c-0.3,0.2-0.6,0.3-1,0.4C17.4,19,17.3,19,17.3,19c-0.4,0-1,0-1.4,0h-2.4c-0.4,0-0.7-0.4-0.7-0.8v-0.8
		c0-0.4-0.3-0.8-0.6-0.8c-0.3,0-0.6,0.4-0.6,0.8v1.8c0,0.4,0.3,0.8,0.7,0.8h3.5c0.4,0,1,0,1.4,0c0,0,0.5,0,0.9-0.2
		c0.5-0.1,0.8-0.3,1.1-0.5c0.3-0.2,0.6-0.4,0.7-0.7c0.2-0.3,0.3-0.5,0.4-0.8c0.1-0.3,0.2-0.5,0.2-0.8c0-0.3,0-0.5,0-0.7
		C20.8,15.6,20.5,14.9,20.1,14.3"/>
	<path class="st0" d="M71.6,15.7c-0.1-0.3-0.2-0.6-0.3-0.9c-0.2-0.3-0.4-0.5-0.6-0.6C70.4,14,70.4,14,70.4,14
		c-0.4-0.1-0.7-0.2-0.7-0.2c0,0,0.3-0.1,0.7-0.3c0,0,0.7-0.3,1-0.9c0.4-0.6,0.6-1.3,0.6-2.1c0-0.6-0.1-1.1-0.3-1.5
		c-0.2-0.4-0.4-0.8-0.8-1c-0.3-0.3-0.7-0.5-1.1-0.6c-0.4-0.1-0.7-0.1-0.7-0.1c-0.4,0-1-0.1-1.4-0.1h-3.9C63.3,7.2,63,7.5,63,8v2.2
		c0,0.4,0.3,0.8,0.6,0.8c0.3,0,0.6-0.4,0.6-0.8V9c0-0.4,0.3-0.8,0.7-0.8h2.8c0.4,0,1,0,1.4,0.1c0,0,0.8,0.1,1.2,0.6
		c0.4,0.5,0.6,1.1,0.6,1.9c0,0.4-0.1,0.7-0.2,1.1c-0.1,0.3-0.3,0.6-0.5,0.8c-0.2,0.2-0.5,0.4-0.8,0.5C69,13.3,69,13.3,69,13.3
		c-0.4,0-1,0.1-1.4,0.1h-2.7c-0.4,0-0.7,0.2-0.7,0.5c0,0.3,0.3,0.5,0.7,0.5h2.7c0.4,0,1,0,1.4,0.1c0,0,0.2,0,0.5,0.2
		c0.3,0.2,0.5,0.5,0.7,0.9c0.2,0.4,0.2,0.4,0.2,0.4c0.1,0.4,0.1,1.1,0.1,1.5v1.8c0,0.4,0.3,0.8,0.6,0.8c0.3,0,0.6-0.4,0.6-0.8l0-1.7
		c0-0.4,0-1.1-0.1-1.5C71.6,16,71.6,16,71.6,15.7"/>
	<path class="st0" d="M109.4,7.2c-0.4,0-0.8,0.3-1,0.7l-3.5,9.8c-0.1,0.4-0.4,0.4-0.5,0l-3.5-9.8c-0.1-0.4-0.6-0.7-1-0.7h-0.2
		c-0.4,0-0.7,0.4-0.7,0.8v2.2c0,0.4,0.3,0.8,0.6,0.8s0.6-0.4,0.6-0.8V9.7c0-0.4,0-0.8,0-0.8c0,0,0.1,0.3,0.3,0.7l3.5,9.7
		c0.1,0.4,0.5,0.7,0.8,0.7c0.3,0,0.6-0.3,0.8-0.7l3.5-9.7c0.1-0.4,0.3-0.7,0.3-0.7c0,0,0,0.4,0,0.8v9.6c0,0.4,0.3,0.8,0.6,0.8
		c0.3,0,0.6-0.4,0.6-0.8V8c0-0.4-0.3-0.8-0.7-0.8H109.4"/>
	<path class="st0" d="M24.8,7.2c0.3,0,0.6,0.4,0.6,0.8v11.3c0,0.4-0.3,0.8-0.6,0.8c-0.3,0-0.6-0.4-0.6-0.8V8
		C24.3,7.5,24.5,7.2,24.8,7.2"/>
	<rect x="111.8" y="19.6" class="st0" width="0.4" height="0.5"/>
	<path class="st0" d="M114.5,16.8c0.1,0,0.2,0,0.4,0c0.1,0,0.2,0.1,0.3,0.1c0.1,0.1,0.2,0.1,0.2,0.3c0.1,0.1,0.1,0.2,0.1,0.4
		c0,0.1,0,0.2,0,0.3c0,0.1-0.1,0.2-0.1,0.2c0,0.1-0.1,0.1-0.2,0.2c-0.1,0-0.1,0.1-0.2,0.1v0c0.2,0,0.3,0.1,0.5,0.3
		c0.1,0.1,0.2,0.3,0.2,0.5c0,0.1,0,0.1,0,0.2c0,0.1,0,0.1-0.1,0.2c0,0.1-0.1,0.1-0.1,0.2c0,0.1-0.1,0.1-0.2,0.2
		c-0.1,0.1-0.2,0.1-0.3,0.1c-0.1,0-0.3,0-0.4,0h-1.3v-3.3H114.5 M114.5,18.2c0.1,0,0.2,0,0.3,0c0.1,0,0.2-0.1,0.2-0.1
		c0.1-0.1,0.1-0.1,0.1-0.2c0-0.1,0-0.1,0-0.2c0-0.4-0.2-0.6-0.7-0.6h-1v1.2H114.5z M114.5,19.8c0.1,0,0.2,0,0.3,0
		c0.1,0,0.2-0.1,0.3-0.1c0.1-0.1,0.1-0.1,0.2-0.2c0-0.1,0.1-0.2,0.1-0.3c0-0.2-0.1-0.4-0.2-0.5c-0.1-0.1-0.3-0.2-0.6-0.2h-1v1.3
		H114.5z"/>
	<polyline class="st0" points="118.6,16.8 118.6,17 116.8,17 116.8,18.2 118.4,18.2 118.4,18.5 116.8,18.5 116.8,19.8 118.6,19.8 
		118.6,20.1 116.5,20.1 116.5,16.8 118.6,16.8 	"/>
</g>
</svg>
