<!-- Generator: Adobe Illustrator 19.1.0, SVG Export Plug-In  -->
<svg version="1.1"
	 xmlns="http://www.w3.org/2000/svg" xmlns:xlink="http://www.w3.org/1999/xlink" xmlns:a="http://ns.adobe.com/AdobeSVGViewerExtensions/3.0/"
	 x="0px" y="0px" width="80.5px" height="20.6px" viewBox="0 0 80.5 20.6" style="enable-background:new 0 0 80.5 20.6;"
	 xml:space="preserve">
<style type="text/css">
	.st0{fill:#FFFFFF;}
	.st1{clip-path:url(#SVGID_2_);fill:#FFFFFF;}
	.st2{clip-path:url(#SVGID_4_);fill:#FFFFFF;}
</style>
<defs>
</defs>
<g>
	<path class="st0" d="M36.8,1.1c-0.7,0-1.2,0.5-1.2,1.2c0,0.7,0.5,1.2,1.2,1.2c0.7,0,1.2-0.5,1.2-1.2C38,1.6,37.5,1.1,36.8,1.1
		L36.8,1.1L36.8,1.1z"/>
	<path class="st0" d="M71.5,0c-0.7,0-1.2,0.5-1.2,1.2l0,16.8c0,0.7,0.5,1.2,1.2,1.2c0.7,0,1.2-0.5,1.2-1.2l0-7.8
		c0-1.5,1.2-2.7,2.7-2.7c1.5,0,2.7,1.2,2.7,2.7l0,7.8c0,0.7,0.5,1.2,1.2,1.2c0.7,0,1.2-0.5,1.2-1.2l0-7.8c0-2.8-2.3-5.1-5.1-5.1
		c-1,0-1.8,0.3-1.9,0.4c-0.1,0-0.1,0-0.2,0c-0.3,0-0.6-0.3-0.6-0.6l0-3.7C72.7,0.5,72.1,0,71.5,0L71.5,0L71.5,0z"/>
	<path class="st0" d="M50.1,1.1l0,0.1L50.1,1.1c-0.3,0-0.6,0.1-0.9,0.4c-0.2,0.2-0.4,0.5-0.4,0.9v2.8h-0.7c-0.6,0-1.2,0.5-1.2,1.1
		c0,0.3,0.1,0.7,0.3,0.9c0.2,0.3,0.6,0.4,0.9,0.4h0.7V14c0,2.8,2.2,5.1,4.9,5.2c0.1,0,0.1,0,0.2,0c0.6,0,1.1-0.1,1.7-0.3
		c0.4-0.1,0.6-0.4,0.8-0.8c0.1-0.4,0-0.8-0.2-1.1c-0.2-0.3-0.6-0.5-0.9-0.5c-0.1,0-0.3,0-0.4,0.1c-0.3,0.1-0.6,0.2-0.9,0.2
		c-0.1,0-0.2,0-0.3,0c-1.4-0.1-2.4-1.3-2.4-2.8V7.5h2.3c0.6,0,1.2-0.5,1.2-1.1c0-0.3-0.1-0.7-0.3-0.9c-0.2-0.3-0.6-0.4-0.9-0.4h-2.3
		V2.3c0-0.6-0.5-1.2-1.1-1.2C50.1,1.1,50.1,1.1,50.1,1.1L50.1,1.1L50.1,1.1z"/>
	<path class="st0" d="M41.3,5.3c-0.7,0-1.2,0.5-1.2,1.2c0,0.6,0.4,0.9,0.4,0.9c1.4,1.1,2.2,2.8,2.2,4.7c0,3.3-2.7,6-6,6s-6-2.7-6-6
		c0-1.8,0.8-3.5,2.2-4.7c0,0,0.4-0.3,0.4-0.9c0-0.7-0.5-1.2-1.2-1.2c-0.4,0-0.7,0.2-0.8,0.3c0,0-0.1,0.1-0.1,0.1c-1.9,1.6-3,4-3,6.5
		c0,4.7,3.8,8.4,8.4,8.4c4.7,0,8.4-3.8,8.4-8.4c0-2.5-1.1-4.9-3.1-6.5C42.1,5.6,41.8,5.3,41.3,5.3L41.3,5.3L41.3,5.3z"/>
	<g>
		<defs>
			<rect id="SVGID_1_" y="0" width="80.5" height="20.6"/>
		</defs>
		<clipPath id="SVGID_2_">
			<use xlink:href="#SVGID_1_"  style="overflow:visible;"/>
		</clipPath>
		<path class="st1" d="M63.6,5.1L63.6,5.1L63.6,5.1c-2.8,0-5.1,2.4-5.1,5.2V14c0,2.9,2.3,5.2,5,5.2l0,0c1.1,0,2.2-0.4,3.1-1
			c0.3-0.2,0.4-0.5,0.4-0.9c0-0.3-0.1-0.6-0.4-0.9c-0.2-0.1-0.4-0.2-0.7-0.2c-0.2,0-0.4,0.1-0.6,0.2c-0.6,0.4-1.4,0.4-1.9,0.4
			c-1.5,0-2.7-1.2-2.7-2.7v-3.9c0-1.5,1.2-2.7,2.7-2.7c0.7,0,1.3,0.2,1.8,0.4c0.2,0.1,0.4,0.2,0.6,0.2c0.3,0,0.5-0.1,0.7-0.2
			c0.3-0.2,0.4-0.5,0.4-0.9c0-0.3-0.2-0.7-0.4-0.9C65.8,5.5,64.7,5.1,63.6,5.1L63.6,5.1L63.6,5.1z"/>
		<path class="st1" d="M4.9,4.5c-2.8,0-4.7,1.7-4.7,4c0,1.9,1.2,3.3,3.8,4.2c1.7,0.7,2.3,1.3,2.3,2.4c0,1.2-1,2-2.5,2
			c-0.9,0-1.7-0.3-2.2-0.5c-0.1-0.1-0.3-0.1-0.4-0.1c-0.5,0-0.9,0.3-1.1,0.8c-0.2,0.5,0.1,1.1,0.6,1.3c0.9,0.4,2,0.6,3,0.6
			c3.8,0,5.1-2.3,5.1-4.3c0-2-1.1-3.3-3.7-4.3C3,9.8,2.6,9.3,2.6,8.4c0-0.8,0.7-1.7,2.2-1.7C5.4,6.7,6,6.8,6.6,7C6.7,7,6.8,7,6.9,7
			c0.5,0,0.9-0.3,1-0.7c0.2-0.6-0.1-1.2-0.7-1.4C6.6,4.7,5.8,4.5,4.9,4.5L4.9,4.5L4.9,4.5z"/>
	</g>
	<path class="st0" d="M36.8,4.6c-0.7,0-1.2,0.5-1.2,1.2V12c0,0.7,0.5,1.2,1.2,1.2c0.7,0,1.2-0.5,1.2-1.2V5.8
		C38,5.2,37.5,4.6,36.8,4.6L36.8,4.6L36.8,4.6z"/>
	<path class="st0" d="M24.3,5.1L24.3,5.1c-0.3,0-0.6,0.1-0.9,0.4c-0.2,0.2-0.4,0.5-0.4,0.9v4v0.8v4c0,0.9-0.7,1.6-1.5,1.7
		c-0.1,0-0.1,0-0.2,0c-0.9,0-1.7-0.7-1.7-1.7v-3c0-0.7-0.5-1.2-1.2-1.2c-0.7,0-1.2,0.5-1.2,1.2v3c0,0.9-0.6,1.6-1.5,1.7
		c-0.1,0-0.1,0-0.2,0c-0.9,0-1.6-0.7-1.6-1.6v-4.1v-0.2V6.4c0-0.7-0.5-1.2-1.1-1.3c0,0,0,0-0.1,0c-0.3,0-0.6,0.1-0.9,0.4
		c-0.2,0.2-0.4,0.5-0.4,0.9v8.9c0,2.2,1.7,4,3.9,4l0,0c1.1,0,2.2-0.5,2.9-1.3c0.7,0.8,1.8,1.3,2.9,1.3c0.4,0,0.8-0.1,1.2-0.2
		c1.6-0.5,2.8-2,2.8-3.8V6.4C25.5,5.7,25,5.1,24.3,5.1C24.3,5.1,24.3,5.1,24.3,5.1L24.3,5.1L24.3,5.1L24.3,5.1z"/>
</g>
</svg>
