<?xml version="1.0" encoding="UTF-8" standalone="no"?>
<!-- Created with Inkscape (http://www.inkscape.org/) -->

<svg
   xmlns:dc="http://purl.org/dc/elements/1.1/"
   xmlns:cc="http://creativecommons.org/ns#"
   xmlns:rdf="http://www.w3.org/1999/02/22-rdf-syntax-ns#"
   xmlns:svg="http://www.w3.org/2000/svg"
   xmlns="http://www.w3.org/2000/svg"
   xmlns:sodipodi="http://sodipodi.sourceforge.net/DTD/sodipodi-0.dtd"
   xmlns:inkscape="http://www.inkscape.org/namespaces/inkscape"
   width="838mm"
   height="215mm"
   viewBox="0 0 838 215"
   version="1.1"
   id="svg8"
   inkscape:version="0.92.3 (2405546, 2018-03-11)"
   sodipodi:docname="Telenet_with_wordmark_logo.svg">
  <defs
     id="defs2" />
  <sodipodi:namedview
     id="base"
     pagecolor="#ffffff"
     bordercolor="#ffffff"
     borderopacity="1.0"
     inkscape:pageopacity="0.0"
     inkscape:pageshadow="2"
     inkscape:zoom="0.061871843"
     inkscape:cx="1390.1986"
     inkscape:cy="728.96324"
     inkscape:document-units="mm"
     inkscape:current-layer="layer1"
     showgrid="false"
     inkscape:window-width="454"
     inkscape:window-height="405"
     inkscape:window-x="130"
     inkscape:window-y="130"
     inkscape:window-maximized="0" />
  <metadata
     id="metadata5">
    <rdf:RDF>
      <cc:Work
         rdf:about="">
        <dc:format>image/svg+xml</dc:format>
        <dc:type
           rdf:resource="http://purl.org/dc/dcmitype/StillImage" />
        <dc:title></dc:title>
      </cc:Work>
    </rdf:RDF>
  </metadata>
  <g
     inkscape:label="Layer 1"
     inkscape:groupmode="layer"
     id="layer1"
     transform="translate(0,-82)">
    <g
       transform="matrix(0.35221095,0,0,0.35481849,0.25572564,190.98686)"
       id="layer1-7"
       inkscape:label="Layer 1">
      <g
         style="fill:#ffffff;fill-opacity:1"
         transform="matrix(28.479852,0,0,28.979728,-1716.1317,-4776.8979)"
         id="g864"
         inkscape:label="Layer 1">
        <g
           transform="matrix(3.0561158,0,0,3.0812956,-153.39856,-354.38531)"
           style="fill:#ffffff;fill-opacity:1"
           id="g862">
          <g
             style="fill:#ffffff;fill-opacity:1"
             transform="matrix(0.35277777,0,0,-0.35277777,75.685171,170.04437)"
             id="g850">
            <path
               inkscape:connector-curvature="0"
               id="path848"
               style="fill:#ffffff;fill-opacity:1;fill-rule:nonzero;stroke:none"
               d="m 0,0 c -0.139,-1.131 -1.025,-2.02 -2.174,-2.157 0,0 -1.825,-0.278 -4.51,-0.278 -2.685,0 -4.509,0.278 -4.509,0.278 -1.149,0.137 -2.035,1.026 -2.175,2.157 0,0 -0.277,2.015 -0.277,4.412 0,2.397 0.277,4.412 0.277,4.413 0.14,1.13 1.026,2.019 2.175,2.155 0,0 1.824,0.279 4.509,0.279 2.685,0 4.51,-0.279 4.51,-0.279 C -1.025,10.844 -0.139,9.955 0,8.825 0,8.824 0.278,6.809 0.278,4.412 0.278,2.015 0,0 0,0 m 2.552,10.509 c -0.193,1.561 -1.417,2.791 -3.005,2.979 0,0 -2.521,0.384 -6.231,0.384 -3.71,0 -6.231,-0.384 -6.231,-0.384 -1.588,-0.188 -2.812,-1.418 -3.004,-2.979 0,0 -0.384,-2.786 -0.384,-6.097 0,-3.311 0.384,-6.096 0.384,-6.097 0.192,-1.561 1.416,-2.791 3.004,-2.979 0,0 2.521,-0.385 6.231,-0.385 3.71,0 6.231,0.385 6.231,0.385 1.588,0.188 2.812,1.418 3.005,2.979 0,0.001 0.384,2.786 0.384,6.097 0,3.311 -0.384,6.097 -0.384,6.097" />
          </g>
          <g
             style="fill:#ffffff;fill-opacity:1"
             transform="matrix(0.35277777,0,0,-0.35277777,73.688449,167.86314)"
             id="g854">
            <path
               inkscape:connector-curvature="0"
               id="path852"
               style="fill:#ffffff;fill-opacity:1;fill-rule:nonzero;stroke:none"
               d="M 0,0 C 0.42,0.058 0.831,0.084 1.321,0.075 1.795,0.065 2.295,0.02 2.738,-0.06 c 0,0 0.145,-0.034 0.145,0.118 V 1.041 C 2.883,1.131 2.767,1.16 2.767,1.16 2.281,1.285 1.8,1.355 1.324,1.365 0.876,1.373 0.429,1.329 -0.017,1.234 c 0,0 -0.112,-0.034 -0.112,-0.131 V 0.131 C -0.129,-0.049 0,0 0,0" />
          </g>
          <path
             inkscape:connector-curvature="0"
             id="path856"
             style="fill:#ffffff;fill-opacity:1;fill-rule:nonzero;stroke:none;stroke-width:0.35277775"
             d="m 72.456196,168.07551 c 0,0 0.529167,-7.1e-4 0.529167,-0.43744 0,-0.43674 -0.529167,-0.43709 -0.529167,-0.43709 0,0 -0.529519,3.5e-4 -0.529519,0.43709 0,0.43674 0.529519,0.43744 0.529519,0.43744" />
          <g
             style="fill:#ffffff;fill-opacity:1"
             transform="matrix(0.35277777,0,0,-0.35277777,74.746429,168.95641)"
             id="g860">
            <path
               inkscape:connector-curvature="0"
               id="path858"
               style="fill:#ffffff;fill-opacity:1;fill-rule:nonzero;stroke:none"
               d="m 0,0 c -0.521,-0.322 -2.042,-1.143 -4.016,-1.143 -1.973,0 -3.495,0.821 -4.016,1.143 0,0 -0.194,0.136 -0.194,-0.117 V -0.62 c 0,-0.152 0.171,-0.311 0.171,-0.311 0.514,-0.395 2.124,-1.501 4.039,-1.502 1.915,10e-4 3.524,1.107 4.039,1.502 0,0 0.172,0.159 0.172,0.311 v 0.503 C 0.195,0.136 0,0 0,0" />
          </g>
        </g>
      </g>
    </g>
    <g
       aria-label="telenet"
       transform="scale(1.0176864,0.98262097)"
       style="font-style:normal;font-variant:normal;font-weight:bold;font-stretch:normal;font-size:179.86785889px;line-height:1.25;font-family:Omnes;-inkscape-font-specification:'Omnes Bold';letter-spacing:0px;word-spacing:0px;fill:#ffffff;fill-opacity:1;stroke:none;stroke-width:4.21565294"
       id="text987">
      <path
         d="m 229.34057,174.90623 v -1.6687 q 0,-9.30956 10.62696,-9.30956 h 4.30347 v -11.15392 q 0,-12.20783 11.50522,-12.29565 h 2.10783 q 11.32957,0 11.32957,12.29565 v 11.15392 h 15.28174 q 10.27565,0 10.27565,8.95826 v 1.40522 q 0,9.30956 -10.4513,9.39739 h -15.63305 v 37.41392 q 0,12.91044 9.7487,12.91044 6.67478,0 11.32957,-5.88435 0.17565,-0.35131 1.66869,0.61478 1.58087,0.96609 2.98609,3.51305 1.40522,2.45913 1.40522,5.70869 0,6.85044 -6.41131,11.50522 -6.32348,4.56696 -16.77478,4.56696 -28.45566,0 -28.36784,-30.03653 v -40.31218 h -4.30347 q -10.62696,0 -10.62696,-8.78261 z"
         style="font-style:normal;font-variant:normal;font-weight:600;font-stretch:normal;font-family:Omnes;-inkscape-font-specification:'Omnes Semi-Bold';fill:#ffffff;stroke-width:4.21565294"
         id="path832" />
      <path
         d="m 302.23624,208.4558 q 0,-20.11218 12.91043,-33.28609 12.99827,-13.26174 33.02262,-13.26174 19.40957,0 31.52957,12.29565 12.12,12.20783 12.12,31.6174 v 1.75652 q -0.17565,3.60087 -1.49304,5.35739 -1.22957,1.6687 -4.56696,1.6687 h -60.68784 q 1.22957,9.7487 8.16783,15.36957 6.93826,5.53304 17.38957,5.53304 17.30174,0 24.85479,-12.99826 0.17565,-0.35131 3.07391,0.43913 2.98609,0.70261 6.06,3.60087 3.07391,2.81043 3.07391,7.28957 0,7.72869 -10.36348,13.96435 -10.27565,6.23565 -27.57739,6.23565 -21.60522,0 -34.60349,-12.38348 -12.91043,-12.47131 -12.91043,-33.19827 z m 22.83478,-8.60696 h 43.21044 q -0.3513,-9.13391 -5.88434,-14.66696 -5.44522,-5.62087 -14.66696,-5.62087 -8.78261,0 -15.01827,5.7087 -6.23565,5.62087 -7.64087,14.57913 z"
         style="font-style:normal;font-variant:normal;font-weight:600;font-stretch:normal;font-family:Omnes;-inkscape-font-specification:'Omnes Semi-Bold';fill:#ffffff;stroke-width:4.21565294"
         id="path834" />
      <path
         d="M 406.74929,240.33668 V 129.50014 q 0,-0.52696 1.22956,-1.14174 1.22957,-0.61479 3.60087,-1.14174 2.37131,-0.52696 4.65479,-0.52696 15.80869,0 15.89652,20.28783 v 93.35915 q 0,12.03217 -11.15391,12.03217 h -2.72261 q -11.50522,0 -11.50522,-12.03217 z"
         style="font-style:normal;font-variant:normal;font-weight:600;font-stretch:normal;font-family:Omnes;-inkscape-font-specification:'Omnes Semi-Bold';fill:#ffffff;stroke-width:4.21565294"
         id="path836" />
      <path
         d="m 447.32496,208.4558 q 0,-20.11218 12.91043,-33.28609 12.99827,-13.26174 33.02262,-13.26174 19.40957,0 31.52957,12.29565 12.12,12.20783 12.12,31.6174 v 1.75652 q -0.17565,3.60087 -1.49304,5.35739 -1.22957,1.6687 -4.56696,1.6687 h -60.68784 q 1.22957,9.7487 8.16783,15.36957 6.93826,5.53304 17.38957,5.53304 17.30174,0 24.85479,-12.99826 0.17565,-0.35131 3.07391,0.43913 2.98609,0.70261 6.06,3.60087 3.07392,2.81043 3.07392,7.28957 0,7.72869 -10.36348,13.96435 -10.27566,6.23565 -27.5774,6.23565 -21.60522,0 -34.60349,-12.38348 -12.91043,-12.47131 -12.91043,-33.19827 z m 22.83478,-8.60696 h 43.21045 q -0.35131,-9.13391 -5.88435,-14.66696 -5.44522,-5.62087 -14.66696,-5.62087 -8.78261,0 -15.01826,5.7087 -6.23566,5.62087 -7.64088,14.57913 z"
         style="font-style:normal;font-variant:normal;font-weight:600;font-stretch:normal;font-family:Omnes;-inkscape-font-specification:'Omnes Semi-Bold';fill:#ffffff;stroke-width:4.21565294"
         id="path838" />
      <path
         d="m 551.13539,240.33668 v -74.47654 q 0,-0.3513 1.22957,-1.05391 1.22956,-0.70261 3.51304,-1.22957 2.37131,-0.61478 4.74261,-0.61478 12.91044,0 15.28174,14.40348 10.45131,-15.45739 28.98262,-15.45739 16.33565,0 24.41565,10.1 8.16783,10.01217 8.16783,26.26 v 42.06871 q 0,12.03217 -11.15391,12.03217 h -2.72261 q -11.50522,0 -11.50522,-12.03217 V 202.0445 q 0,-8.78261 -4.21565,-13.7887 -4.21566,-5.09392 -12.03218,-5.09392 -13.34957,0 -19.40957,11.50522 v 45.66958 q 0,12.03217 -11.15391,12.03217 h -2.63479 q -11.50522,0 -11.50522,-12.03217 z"
         style="font-style:normal;font-variant:normal;font-weight:600;font-stretch:normal;font-family:Omnes;-inkscape-font-specification:'Omnes Semi-Bold';fill:#ffffff;stroke-width:4.21565294"
         id="path840" />
      <path
         d="m 650.73022,208.4558 q 0,-20.11218 12.91043,-33.28609 12.99827,-13.26174 33.02262,-13.26174 19.40957,0 31.52957,12.29565 12.12,12.20783 12.12,31.6174 v 1.75652 q -0.17565,3.60087 -1.49304,5.35739 -1.22957,1.6687 -4.56696,1.6687 H 673.565 q 1.22957,9.7487 8.16783,15.36957 6.93826,5.53304 17.38957,5.53304 17.30174,0 24.85479,-12.99826 0.17565,-0.35131 3.07391,0.43913 2.98609,0.70261 6.06,3.60087 3.07391,2.81043 3.07391,7.28957 0,7.72869 -10.36348,13.96435 -10.27565,6.23565 -27.57739,6.23565 -21.60522,0 -34.60349,-12.38348 -12.91043,-12.47131 -12.91043,-33.19827 z m 22.83478,-8.60696 h 43.21045 q -0.35131,-9.13391 -5.88435,-14.66696 -5.44522,-5.62087 -14.66696,-5.62087 -8.78261,0 -15.01827,5.7087 -6.23565,5.62087 -7.64087,14.57913 z"
         style="font-style:normal;font-variant:normal;font-weight:600;font-stretch:normal;font-family:Omnes;-inkscape-font-specification:'Omnes Semi-Bold';fill:#ffffff;stroke-width:4.21565294"
         id="path842" />
      <path
         d="m 747.16326,174.90623 v -1.6687 q 0,-9.30956 10.62696,-9.30956 h 4.30348 v -11.15392 q 0,-12.20783 11.50522,-12.29565 h 2.10782 q 11.32957,0 11.32957,12.29565 v 11.15392 h 15.28174 q 10.27566,0 10.27566,8.95826 v 1.40522 q 0,9.30956 -10.45131,9.39739 h -15.63305 v 37.41392 q 0,12.91044 9.7487,12.91044 6.67478,0 11.32957,-5.88435 0.17565,-0.35131 1.66869,0.61478 1.58087,0.96609 2.98609,3.51305 1.40522,2.45913 1.40522,5.70869 0,6.85044 -6.41131,11.50522 -6.32348,4.56696 -16.77478,4.56696 -28.45566,0 -28.36783,-30.03653 v -40.31218 h -4.30348 q -10.62696,0 -10.62696,-8.78261 z"
         style="font-style:normal;font-variant:normal;font-weight:600;font-stretch:normal;font-family:Omnes;-inkscape-font-specification:'Omnes Semi-Bold';fill:#ffffff;stroke-width:4.21565294"
         id="path844" />
    </g>
  </g>
</svg>
