<!-- Generator: Adobe Illustrator 19.1.0, SVG Export Plug-In  -->
<svg version="1.1"
	 xmlns="http://www.w3.org/2000/svg" xmlns:xlink="http://www.w3.org/1999/xlink" xmlns:a="http://ns.adobe.com/AdobeSVGViewerExtensions/3.0/"
	 x="0px" y="0px" width="61.8px" height="47.7px" viewBox="0 0 61.8 47.7" style="enable-background:new 0 0 61.8 47.7;"
	 xml:space="preserve">
<style type="text/css">
	.st0{fill:#FFFFFF;}
</style>
<defs>
</defs>
<g>
	<g>
		<rect x="2.8" y="8.2" class="st0" width="1.2" height="8.1"/>
		<rect x="5.3" y="8.2" class="st0" width="1.2" height="8.1"/>
		<rect x="7.8" y="8.2" class="st0" width="1.2" height="8.1"/>
		<rect x="10.3" y="8.2" class="st0" width="1.2" height="8.1"/>
		<rect x="12.8" y="8.2" class="st0" width="1.2" height="8.1"/>
		<rect x="15.3" y="8.2" class="st0" width="1.2" height="8.1"/>
		<rect x="17.8" y="8.2" class="st0" width="1.2" height="8.1"/>
		<polygon class="st0" points="19,6.9 2.8,6.9 1.6,5.8 20.2,5.8 		"/>
		<rect x="0.3" y="20.1" class="st0" width="21.3" height="1.2"/>
		<rect x="1.5" y="17.6" class="st0" width="18.8" height="1.2"/>
	</g>
</g>
<polygon class="st0" points="21.5,3.8 10.9,0 0.3,3.8 0.3,5 10.9,1.2 21.5,5 "/>
<g>
	<g>
		<path class="st0" d="M6.6,47.5h4.1v-1H7.8v-3.1h2.3v-1H7.8v-2.8h2.9v-1H6.6V47.5z"/>
		<path class="st0" d="M49,35.1h4.1v-1h-2.9V31h2.3v-1h-2.3v-2.8h2.9v-1H49V35.1z"/>
		<path class="st0" d="M23.2,35.1h4.1v-1h-2.9V31h2.3v-1h-2.3v-2.8h2.9v-1h-4.1V35.1z"/>
		<path class="st0" d="M4,46.6c-0.2,0.1-0.6,0.1-1,0.1c-1.4,0-1.7-0.7-1.7-3.6c0-2.8,0.4-3.6,2.1-3.6c0.6,0,1.2,0.2,1.5,0.4v-1.1
			c-0.3-0.2-1-0.3-1.6-0.3c-2.4,0-3.2,1.2-3.2,4.6c0,3.5,0.7,4.6,3,4.6c0.9,0,1.9-0.3,2.2-0.4v-4.7H2.6v1H4V46.6z"/>
		<path class="st0" d="M54.5,35.1h1.2v-8.8h-1.2V35.1z"/>
		<path class="st0" d="M40.5,35.1h1.2v-8.8h-1.2V35.1z"/>
		<path class="st0" d="M14,35.1h1.2v-8.8H14V35.1z"/>
		<path class="st0" d="M13,40.1l3,7.4h1.4v-8.8h-1.1v4.7c0,0.7,0.1,1.8,0.2,2.7l-2.9-7.4h-1.4v8.8h1.1v-4.7
			C13.2,42.2,13.1,41,13,40.1z"/>
		<path class="st0" d="M7.9,27.7l3,7.4h1.4v-8.8h-1.1V31c0,0.7,0.1,1.8,0.2,2.7l-2.9-7.4H7.1v8.8h1.1v-4.7
			C8.2,29.7,8.1,28.6,7.9,27.7z"/>
		<path class="st0" d="M20.4,47.5h1.2v-7.8h1.9v-1h-5v1h1.9V47.5z"/>
		<path class="st0" d="M58.7,35.1h1.2v-7.8h1.9v-1h-5v1h1.9V35.1z"/>
		<path class="st0" d="M44.8,35.1h1.2v-7.8h1.9v-1h-5v1h1.9V35.1z"/>
		<path class="st0" d="M0.3,26.3v6.2c0,2,0.7,2.8,2.6,2.8c1.8,0,2.6-0.8,2.6-2.8v-6.2H4.3v6.2c0,1.3-0.4,1.8-1.4,1.8
			c-1,0-1.4-0.5-1.4-1.8v-6.2H0.3z"/>
		<path class="st0" d="M19.2,34c-0.1-0.9-0.4-2.4-0.5-3.1l-1.1-4.6h-1.2l2.2,8.8h1.2l2.2-8.8h-1.2l-1.1,4.6
			C19.6,31.6,19.3,33.1,19.2,34z"/>
	</g>
	<path class="st0" d="M34.9,34.9c0.3,0.2,0.8,0.3,1.6,0.3c1.6,0,2.6-0.9,2.6-2.3c0-1.2-0.5-1.7-1.3-2.3L37,30c-0.6-0.5-1-0.9-1-1.6
		c0-0.8,0.5-1.2,1.5-1.2c0.5,0,1,0.2,1.3,0.3v-1c-0.3-0.1-0.8-0.3-1.4-0.3c-1.6,0-2.6,0.9-2.6,2.3c0,1.2,0.5,1.7,1.3,2.3l0.7,0.6
		c0.6,0.5,1,0.9,1,1.6c0,0.8-0.5,1.2-1.5,1.2c-0.5,0-1-0.1-1.5-0.3V34.9z"/>
</g>
<path class="st0" d="M31.9,31.2c1.1-0.4,1.6-1.2,1.6-2.4c0-1.8-0.9-2.6-2.8-2.6h-2v8.8h1.2v-3.6h0.9l1.7,3.6h1.3L31.9,31.2z
	 M30.6,30.5h-0.7v-3.2h0.7c1.1,0,1.7,0.3,1.7,1.6C32.3,30.2,31.7,30.5,30.6,30.5z"/>
</svg>
