<?xml version="1.0" encoding="utf-8"?>
<!-- Generator: Adobe Illustrator 19.1.0, SVG Export Plug-In . SVG Version: 6.00 Build 0)  -->
<svg version="1.1" id="Layer_1" xmlns="http://www.w3.org/2000/svg" xmlns:xlink="http://www.w3.org/1999/xlink" x="0px" y="0px"
	 viewBox="145.9 -1390.9 109.2 138.2" style="enable-background:new 145.9 -1390.9 109.2 138.2;" xml:space="preserve">
<style type="text/css">
	.st0{display:none;}
	.st1{display:inline;}
	.st2{fill:#9F3731;}
	.st3{fill:#B89899;}
	.st4{fill:#4C7BAC;}
	.st5{fill:#4E84C1;}
	.st6{fill:#D9B95C;}
	.st7{fill:#5794D0;}
	.st8{fill:#F1CB64;}
	.st9{fill:#FFFFFF;}
	.st10{fill:#E4D648;}
	.st11{fill:#4669AE;}
	.st12{fill:#C84134;}
	.st13{fill:#E7B9B6;}
	.st14{fill:#9C3C31;}
	.st15{fill:#FFFFFB;}
	.st16{display:inline;fill:#CB4D45;}
</style>
<g>
	<g id="XMLID_7514_" class="st0">
		<g id="XMLID_8100_" class="st1">
			<g id="XMLID_8101_">
				<polygon id="XMLID_8102_" class="st2" points="492.3,-1366.2 421,-1334.5 408.6,-1305.2 485.6,-1343 				"/>
			</g>
		</g>
		<g id="XMLID_8097_" class="st1">
			<g id="XMLID_8098_">
				<path id="XMLID_8099_" class="st3" d="M481.9-1342.3c-0.1,0-0.2-0.1-0.3-0.2c-0.1-0.1,0-0.3,0.1-0.4l0,0h0.2
					c0.1,0,0.2,0.1,0.2,0.2c0.1,0.1,0,0.3-0.1,0.4C482-1342.3,481.9-1342.3,481.9-1342.3"/>
			</g>
		</g>
		<g id="XMLID_8084_" class="st1">
			<g id="XMLID_8085_">
				<path id="XMLID_8086_" class="st3" d="M437.2-1340c-0.1,0-0.2-0.1-0.3-0.2c-0.1-0.1,0-0.3,0.1-0.4h0.1c0.1,0,0.2,0.1,0.3,0.2
					c0.1,0.1,0,0.3-0.1,0.4C437.2-1340,437.2-1340,437.2-1340 M435.7-1339.3c-0.1,0-0.2-0.1-0.3-0.2c-0.1-0.1,0-0.3,0.1-0.4h0.1
					c0.1,0,0.2,0.1,0.3,0.2c0.1,0.1,0,0.3-0.1,0.4C435.8-1339.3,435.8-1339.3,435.7-1339.3 M434.3-1338.7c-0.1,0-0.2-0.1-0.3-0.2
					c-0.1-0.1,0-0.3,0.1-0.4h0.1c0.1,0,0.2,0.1,0.3,0.2c0.1,0.1,0,0.3-0.1,0.4H434.3 M432.9-1338c-0.1,0-0.2-0.1-0.3-0.2
					c-0.1-0.1,0-0.3,0.1-0.4h0.1c0.1,0,0.2,0.1,0.3,0.2c0.1,0.1,0,0.3-0.1,0.4C432.9-1338,432.9-1338,432.9-1338 M431.4-1337.4
					c-0.1,0-0.2-0.1-0.3-0.2c-0.1-0.1,0-0.3,0.1-0.4h0.1c0.1,0,0.2,0.1,0.3,0.2c0.1,0.1,0,0.3-0.1,0.4
					C431.5-1337.4,431.5-1337.4,431.4-1337.4 M430-1336.7c-0.1,0-0.2-0.1-0.3-0.2c-0.1-0.1,0-0.3,0.1-0.4h0.1c0.1,0,0.2,0.1,0.3,0.2
					c0.1,0.1,0,0.3-0.1,0.4C430.1-1336.8,430.1-1336.7,430-1336.7 M428.6-1336.1c-0.1,0-0.2-0.1-0.3-0.2c-0.1-0.1,0-0.3,0.1-0.4h0.1
					c0.1,0,0.2,0.1,0.3,0.2c0.1,0.1,0,0.3-0.1,0.4H428.6 M427.2-1335.5c-0.1,0-0.2-0.1-0.3-0.2c-0.1-0.1,0-0.3,0.1-0.4h0.1
					c0.1,0,0.2,0.1,0.3,0.2c0.1,0.1,0,0.3-0.1,0.4C427.2-1335.5,427.2-1335.5,427.2-1335.5 M425.7-1334.8c-0.1,0-0.2-0.1-0.3-0.2
					c-0.1-0.1,0-0.3,0.1-0.4h0.1c0.1,0,0.2,0.1,0.3,0.2c0.1,0.1,0,0.3-0.1,0.4C425.8-1334.8,425.8-1334.8,425.7-1334.8 M424-1334.6
					c0-0.1,0.1-0.1,0.2-0.2h0.1c0.1,0,0.2,0.1,0.3,0.2l0,0H424"/>
			</g>
		</g>
		<g id="XMLID_8081_" class="st1">
			<g id="XMLID_8082_">
				<polygon id="XMLID_8083_" class="st4" points="415.1,-1290.7 431.9,-1272.6 456.5,-1273.8 439.8,-1291.9 				"/>
			</g>
		</g>
		<g id="XMLID_8078_" class="st1">
			<g id="XMLID_8079_">
				<polyline id="XMLID_8080_" class="st5" points="479,-1388 477.2,-1388.8 484.5,-1406.6 485.9,-1404.9 				"/>
			</g>
		</g>
		<g id="XMLID_8075_" class="st1">
			<g id="XMLID_8076_">
				<polyline id="XMLID_8077_" class="st6" points="484.5,-1406.6 472.4,-1404.7 464.8,-1387.5 477.3,-1389.2 476,-1385.9 				"/>
			</g>
		</g>
		<g id="XMLID_8072_" class="st1">
			<g id="XMLID_8073_">
				<polyline id="XMLID_8074_" class="st6" points="479,-1388 480.8,-1387.3 488,-1405.1 485.9,-1404.9 				"/>
			</g>
		</g>
		<g id="XMLID_8069_" class="st1">
			<g id="XMLID_8070_">
				<polyline id="XMLID_8071_" class="st5" points="488,-1405.1 495.4,-1395.3 488.8,-1377.7 481,-1387.7 479.6,-1384.4 				"/>
			</g>
		</g>
		<g id="XMLID_8066_" class="st1">
			<g id="XMLID_8067_">
				<polyline id="XMLID_8068_" class="st7" points="478.3,-1386.4 476.5,-1387.2 483.9,-1405 485.2,-1403.3 				"/>
			</g>
		</g>
		<g id="XMLID_8063_" class="st1">
			<g id="XMLID_8064_">
				<polyline id="XMLID_8065_" class="st4" points="463,-1396.6 463,-1396.6 465.6,-1393.1 470,-1393.7 467.4,-1397.2 				"/>
			</g>
		</g>
		<g id="XMLID_8060_" class="st1">
			<g id="XMLID_8061_">
				<polyline id="XMLID_8062_" class="st8" points="483.9,-1405 471.7,-1403.1 464.1,-1385.9 476.7,-1387.6 475.3,-1384.3 				"/>
			</g>
		</g>
		<g id="XMLID_8057_" class="st1">
			<g id="XMLID_8058_">
				<polygon id="XMLID_8059_" class="st8" points="470.8,-1401.1 463.2,-1383.9 475.8,-1385.5 483,-1402.9 				"/>
			</g>
		</g>
		<g id="XMLID_8054_" class="st1">
			<g id="XMLID_8055_">
				<polygon id="XMLID_8056_" class="st9" points="476.3,-1390 481.9,-1403.6 472.4,-1402.1 466.5,-1388.7 				"/>
			</g>
		</g>
		<g id="XMLID_8051_" class="st1">
			<g id="XMLID_8052_">
				<polygon id="XMLID_8053_" class="st8" points="477.9,-1400 476.3,-1396.2 478.4,-1396.5 480,-1400.3 				"/>
			</g>
		</g>
		<g id="XMLID_8048_" class="st1">
			<g id="XMLID_8049_">
				<polygon id="XMLID_8050_" class="st8" points="468,-1398.6 466.3,-1394.8 468.5,-1395.1 470.2,-1398.9 				"/>
			</g>
		</g>
		<g id="XMLID_8045_" class="st1">
			<g id="XMLID_8046_">
				<polygon id="XMLID_8047_" class="st7" points="468.5,-1395.1 470.2,-1398.9 471.4,-1397.2 469.8,-1393.4 				"/>
			</g>
		</g>
		<g id="XMLID_8042_" class="st1">
			<g id="XMLID_8043_">
				<polygon id="XMLID_8044_" class="st7" points="478.4,-1396.5 480,-1400.3 481.3,-1398.7 479.7,-1394.8 				"/>
			</g>
		</g>
		<g id="XMLID_8039_" class="st1">
			<g id="XMLID_8040_">
				<polyline id="XMLID_8041_" class="st8" points="478.3,-1386.4 480.2,-1385.7 487.4,-1403.5 485.2,-1403.3 				"/>
			</g>
		</g>
		<g id="XMLID_8036_" class="st1">
			<g id="XMLID_8037_">
				<polyline id="XMLID_8038_" class="st4" points="496.5,-1383 496.5,-1383 492.2,-1382.3 489.4,-1385.8 493.7,-1386.5 				"/>
			</g>
		</g>
		<g id="XMLID_8033_" class="st1">
			<g id="XMLID_8034_">
				<polyline id="XMLID_8035_" class="st7" points="487.4,-1403.6 494.8,-1393.7 488.2,-1376.1 480.3,-1386.1 479,-1382.8 				"/>
			</g>
		</g>
		<g id="XMLID_8030_" class="st1">
			<g id="XMLID_8031_">
				<polygon id="XMLID_8032_" class="st7" points="494,-1391.6 487.4,-1374 479.5,-1384 486.5,-1401.5 				"/>
			</g>
		</g>
		<g id="XMLID_8027_" class="st1">
			<g id="XMLID_8028_">
				<polygon id="XMLID_8029_" class="st9" points="482.3,-1387.6 487.8,-1401.2 493.6,-1393.5 488.4,-1379.8 				"/>
			</g>
		</g>
		<g id="XMLID_8024_" class="st1">
			<g id="XMLID_8025_">
				<polygon id="XMLID_8026_" class="st7" points="488.2,-1395.8 486.6,-1392 485.3,-1393.7 486.9,-1397.5 				"/>
			</g>
		</g>
		<g id="XMLID_8021_" class="st1">
			<g id="XMLID_8022_">
				<polygon id="XMLID_8023_" class="st7" points="494.2,-1387.9 492.8,-1384 491.5,-1385.7 492.9,-1389.6 				"/>
			</g>
		</g>
		<g id="XMLID_8018_" class="st1">
			<g id="XMLID_8019_">
				<polygon id="XMLID_8020_" class="st8" points="491.5,-1385.7 492.9,-1389.6 490.8,-1389.3 489.4,-1385.4 				"/>
			</g>
		</g>
		<g id="XMLID_8015_" class="st1">
			<g id="XMLID_8016_">
				<polygon id="XMLID_8017_" class="st8" points="485.3,-1393.7 486.9,-1397.5 484.8,-1397.2 483.2,-1393.4 				"/>
			</g>
		</g>
		<g id="XMLID_8012_" class="st1">
			<g id="XMLID_8013_">
				<polygon id="XMLID_8014_" class="st4" points="486.2,-1395.7 486.2,-1395.7 483.6,-1399.2 479.2,-1398.6 481.9,-1395.1 				"/>
			</g>
		</g>
		<g id="XMLID_8009_" class="st1">
			<g id="XMLID_8010_">
				<polygon id="XMLID_8011_" class="st10" points="446.9,-1291.1 448.1,-1289.8 482.9,-1378.9 481.4,-1378.7 				"/>
			</g>
		</g>
		<g id="XMLID_8006_" class="st1">
			<g id="XMLID_8007_">
				<polygon id="XMLID_8008_" class="st10" points="449.4,-1288.5 450.6,-1287.2 486,-1379.3 484.5,-1379.1 				"/>
			</g>
		</g>
		<g id="XMLID_8003_" class="st1">
			<g id="XMLID_8004_">
				<polygon id="XMLID_8005_" class="st10" points="452,-1285.6 453.2,-1284.3 489.2,-1379.8 487.7,-1379.6 				"/>
			</g>
		</g>
		<g id="XMLID_8000_" class="st1">
			<g id="XMLID_8001_">
				<polygon id="XMLID_8002_" class="st11" points="432.3,-1296.3 434.1,-1296.4 470.7,-1383.1 469.8,-1384.3 				"/>
			</g>
		</g>
		<g id="XMLID_7997_" class="st1">
			<g id="XMLID_7998_">
				<polygon id="XMLID_7999_" class="st11" points="428.7,-1296.1 430.5,-1296.2 468.8,-1385.5 467.9,-1386.7 				"/>
			</g>
		</g>
		<g id="XMLID_7994_" class="st1">
			<g id="XMLID_7995_">
				<polygon id="XMLID_7996_" class="st11" points="424.9,-1295.9 426.7,-1296 466.8,-1388.1 465.9,-1389.3 				"/>
			</g>
		</g>
		<g id="XMLID_7991_" class="st1">
			<g id="XMLID_7992_">
				<polygon id="XMLID_7993_" class="st7" points="491.6,-1385.6 482.7,-1397.1 439.8,-1291.9 456.5,-1273.8 456.5,-1273.8 
					495.4,-1380.7 				"/>
			</g>
		</g>
		<g id="XMLID_7988_" class="st1">
			<g id="XMLID_7989_">
				<polygon id="XMLID_7990_" class="st8" points="468.3,-1395.1 462.1,-1394.3 415.1,-1290.7 415.1,-1290.7 439.8,-1291.9 
					482.7,-1397.1 				"/>
			</g>
		</g>
		<g id="XMLID_7985_" class="st1">
			<g id="XMLID_7986_">
				<polygon id="XMLID_7987_" class="st8" points="485,-1387.8 446.9,-1291.1 448.1,-1289.8 486,-1386.6 				"/>
			</g>
		</g>
		<g id="XMLID_7982_" class="st1">
			<g id="XMLID_7983_">
				<polygon id="XMLID_7984_" class="st8" points="486.9,-1385.4 449.4,-1288.5 450.6,-1287.2 487.8,-1384.2 				"/>
			</g>
		</g>
		<g id="XMLID_7979_" class="st1">
			<g id="XMLID_7980_">
				<polygon id="XMLID_7981_" class="st8" points="488.9,-1382.8 452,-1285.6 453.2,-1284.3 489.9,-1381.6 				"/>
			</g>
		</g>
		<g id="XMLID_7976_" class="st1">
			<g id="XMLID_7977_">
				<polygon id="XMLID_7978_" class="st7" points="473,-1391.9 432.3,-1296.3 434.1,-1296.4 474.5,-1392.1 				"/>
			</g>
		</g>
		<g id="XMLID_7973_" class="st1">
			<g id="XMLID_7974_">
				<polygon id="XMLID_7975_" class="st7" points="470,-1391.5 428.7,-1296.1 430.5,-1296.2 471.5,-1391.7 				"/>
			</g>
		</g>
		<g id="XMLID_7970_" class="st1">
			<g id="XMLID_7971_">
				<polygon id="XMLID_7972_" class="st7" points="466.7,-1391 424.9,-1295.9 426.7,-1296 468.2,-1391.2 				"/>
			</g>
		</g>
		<g id="XMLID_7967_" class="st1">
			<g id="XMLID_7968_">
				<polygon id="XMLID_7969_" class="st12" points="516.2,-1322.1 492.5,-1343.1 490.3,-1336.9 421,-1334.5 408.6,-1305.1 
					479.6,-1307.6 477.3,-1301.3 				"/>
			</g>
		</g>
		<g id="XMLID_7964_" class="st1">
			<g id="XMLID_7965_">
				<polygon id="XMLID_7966_" class="st12" points="494.1,-1366.5 417.8,-1363.9 424.7,-1352.7 412,-1340.7 485.6,-1343 				"/>
			</g>
		</g>
		<g id="XMLID_7961_" class="st1">
			<g id="XMLID_7962_">
				<rect id="XMLID_7963_" x="481.6" y="-1309.4" class="st13" width="0.6" height="0.6"/>
			</g>
		</g>
		<g id="XMLID_7956_" class="st1">
			<g id="XMLID_7957_">
				<path id="XMLID_7958_" class="st13" d="M481.4-1307.4C481.3-1307.4,481.3-1307.4,481.4-1307.4c-0.3-0.1-0.3-0.2-0.3-0.4
					c0-0.1,0.2-0.2,0.3-0.2h0.1c0.2,0.1,0.2,0.2,0.2,0.4C481.6-1307.5,481.5-1307.4,481.4-1307.4 M480.9-1306
					C480.9-1306,480.8-1306,480.9-1306c-0.3-0.1-0.3-0.2-0.3-0.4c0-0.1,0.2-0.2,0.3-0.2h0.1c0.2,0.1,0.2,0.2,0.2,0.4
					C481.1-1306.1,481-1306,480.9-1306"/>
			</g>
		</g>
		<g id="XMLID_7953_" class="st1">
			<g id="XMLID_7954_">
				<path id="XMLID_7955_" class="st13" d="M480.4-1304.6c-0.1,0-0.2,0-0.2-0.1c-0.1-0.1-0.1-0.1-0.1-0.2s0-0.2,0.1-0.2
					c0.1-0.1,0.1-0.1,0.2-0.1s0.2,0,0.2,0.1c0.1,0.1,0.1,0.1,0.1,0.2s0,0.2-0.1,0.2C480.6-1304.7,480.5-1304.6,480.4-1304.6"/>
			</g>
		</g>
		<g id="XMLID_7927_" class="st1">
			<g id="XMLID_7928_">
				<path id="XMLID_7929_" class="st13" d="M512.1-1321.2c-0.1,0-0.2-0.1-0.3-0.2c-0.1-0.1,0-0.3,0.1-0.4h0.1c0.1,0,0.2,0.1,0.3,0.2
					c0.1,0.1,0,0.3-0.1,0.4H512.1 M510.7-1320.4c-0.1,0-0.2-0.1-0.3-0.2c-0.1-0.1,0-0.3,0.1-0.4h0.1c0.1,0,0.2,0.1,0.3,0.2
					c0.1,0.1,0,0.3-0.1,0.4C510.8-1320.5,510.7-1320.4,510.7-1320.4 M509.3-1319.7c-0.1,0-0.2-0.1-0.3-0.2c-0.1-0.1,0-0.3,0.1-0.4
					h0.1c0.1,0,0.2,0.1,0.3,0.2c0.1,0.1,0,0.3-0.1,0.4C509.4-1319.7,509.4-1319.7,509.3-1319.7 M507.9-1319c-0.1,0-0.2-0.1-0.3-0.2
					c-0.1-0.1,0-0.3,0.1-0.4h0.1c0.1,0,0.2,0.1,0.3,0.2c0.1,0.1,0,0.3-0.1,0.4C508-1319,508-1319,507.9-1319 M506.6-1318.3
					c-0.1,0-0.2-0.1-0.3-0.2c-0.1-0.1,0-0.3,0.1-0.4h0.1c0.1,0,0.2,0.1,0.3,0.2c0.1,0.1,0,0.3-0.1,0.4H506.6 M505.2-1317.6
					c-0.1,0-0.2-0.1-0.3-0.2c-0.1-0.1,0-0.3,0.1-0.4h0.1c0.1,0,0.2,0.1,0.3,0.2c0.1,0.1,0,0.3-0.1,0.4
					C505.3-1317.6,505.2-1317.6,505.2-1317.6 M503.8-1316.8c-0.1,0-0.2-0.1-0.3-0.2c-0.1-0.1,0-0.3,0.1-0.4h0.1
					c0.1,0,0.2,0.1,0.3,0.2c0.1,0.1,0,0.3-0.1,0.4C503.9-1316.9,503.9-1316.8,503.8-1316.8 M502.4-1316.1c-0.1,0-0.2-0.1-0.3-0.2
					c-0.1-0.1,0-0.3,0.1-0.4h0.1c0.1,0,0.2,0.1,0.3,0.2c0.1,0.1,0,0.3-0.1,0.4C502.5-1316.1,502.5-1316.1,502.4-1316.1
					 M501.1-1315.4c-0.1,0-0.2-0.1-0.3-0.2c-0.1-0.1,0-0.3,0.1-0.4h0.1c0.1,0,0.2,0.1,0.3,0.2c0.1,0.1,0,0.3-0.1,0.4
					C501.1-1315.4,501.1-1315.4,501.1-1315.4 M499.7-1314.7c-0.1,0-0.2-0.1-0.3-0.2c-0.1-0.1,0-0.3,0.1-0.4h0.1
					c0.1,0,0.2,0.1,0.3,0.2c0.1,0.1,0,0.3-0.1,0.4C499.8-1314.7,499.7-1314.7,499.7-1314.7 M498.3-1314c-0.1,0-0.2-0.1-0.3-0.2
					c-0.1-0.1,0-0.3,0.1-0.4h0.1c0.1,0,0.2,0.1,0.3,0.2c0.1,0.1,0,0.3-0.1,0.4C498.4-1314,498.4-1314,498.3-1314 M496.9-1313.3
					c-0.1,0-0.2-0.1-0.3-0.2c-0.1-0.1,0-0.3,0.1-0.4h0.1c0.1,0,0.2,0.1,0.3,0.2c0.1,0.1,0,0.3-0.1,0.4
					C497-1313.3,497-1313.3,496.9-1313.3 M495.5-1312.5c-0.1,0-0.2-0.1-0.3-0.2c-0.1-0.1,0-0.3,0.1-0.4h0.1c0.1,0,0.2,0.1,0.3,0.2
					c0.1,0.1,0,0.3-0.1,0.4C495.6-1312.5,495.6-1312.5,495.5-1312.5 M494.2-1311.8c-0.1,0-0.2-0.1-0.3-0.2c-0.1-0.1,0-0.3,0.1-0.4
					h0.1c0.1,0,0.2,0.1,0.3,0.2c0.1,0.1,0,0.3-0.1,0.4C494.3-1311.8,494.2-1311.8,494.2-1311.8 M492.8-1311.1
					c-0.1,0-0.2-0.1-0.3-0.2c-0.1-0.1,0-0.3,0.1-0.4h0.1c0.1,0,0.2,0.1,0.3,0.2c0.1,0.1,0,0.3-0.1,0.4H492.8 M491.4-1310.4
					c-0.1,0-0.2-0.1-0.3-0.2c-0.1-0.1,0-0.3,0.1-0.4h0.1c0.1,0,0.2,0.1,0.3,0.2c0.1,0.1,0,0.3-0.1,0.4
					C491.5-1310.4,491.5-1310.4,491.4-1310.4 M490-1309.7c-0.1,0-0.2-0.1-0.3-0.2c-0.1-0.1,0-0.3,0.1-0.4h0.1c0.1,0,0.2,0.1,0.3,0.2
					c0.1,0.1,0,0.3-0.1,0.4C490.1-1309.7,490.1-1309.7,490-1309.7 M488.7-1308.9c-0.1,0-0.2-0.1-0.3-0.2c-0.1-0.1,0-0.3,0.1-0.4h0.1
					c0.1,0,0.2,0.1,0.3,0.2c0.1,0.1,0,0.3-0.1,0.4C488.8-1309,488.7-1308.9,488.7-1308.9 M487.3-1308.2c-0.1,0-0.2-0.1-0.3-0.2
					c-0.1-0.1,0-0.3,0.1-0.4h0.1c0.1,0,0.2,0.1,0.3,0.2c0.1,0.1,0,0.3-0.1,0.4H487.3 M485.9-1307.5c-0.1,0-0.2-0.1-0.3-0.2
					c-0.1-0.1,0-0.3,0.1-0.4h0.1c0.1,0,0.2,0.1,0.3,0.2c0.1,0.1,0,0.3-0.1,0.4C486-1307.5,486-1307.5,485.9-1307.5 M484.5-1306.8
					c-0.1,0-0.2-0.1-0.3-0.2c-0.1-0.1,0-0.3,0.1-0.4h0.1c0.1,0,0.2,0.1,0.3,0.2c0.1,0.1,0,0.3-0.1,0.4
					C484.6-1306.8,484.6-1306.8,484.5-1306.8 M483.2-1306.1c-0.1,0-0.2-0.1-0.3-0.2c-0.1-0.1,0-0.3,0.1-0.4h0.1
					c0.1,0,0.2,0.1,0.3,0.2c0.1,0.1,0,0.3-0.1,0.4C483.2-1306.1,483.2-1306.1,483.2-1306.1 M481.8-1305.4c-0.1,0-0.2-0.1-0.3-0.2
					c-0.1-0.1,0-0.3,0.1-0.4h0.1c0.1,0,0.2,0.1,0.3,0.2c0.1,0.1,0,0.3-0.1,0.4H481.8"/>
			</g>
		</g>
		<g id="XMLID_7924_" class="st1">
			<g id="XMLID_7925_">
				<path id="XMLID_7926_" class="st13" d="M513.4-1321.9c-0.1,0-0.2,0-0.2-0.1c-0.1-0.1-0.1-0.1-0.1-0.2c0-0.1,0-0.2,0.1-0.2
					c0.1-0.1,0.1-0.1,0.2-0.1c0.1,0,0.2,0,0.2,0.1c0.1,0.1,0.1,0.1,0.1,0.2c0,0.1,0,0.2-0.1,0.2
					C513.6-1321.9,513.5-1321.9,513.4-1321.9"/>
			</g>
		</g>
		<g id="XMLID_7904_" class="st1">
			<g id="XMLID_7905_">
				<path id="XMLID_7906_" class="st13" d="M494.2-1339.4c-0.1,0-0.1,0-0.2-0.1s-0.1-0.3,0-0.4s0.1-0.1,0.2-0.1s0.1,0,0.2,0.1
					s0.1,0.3,0,0.4C494.4-1339.4,494.3-1339.4,494.2-1339.4 M495.4-1338.4c-0.1,0-0.1,0-0.2-0.1s-0.1-0.3,0-0.4s0.1-0.1,0.2-0.1
					s0.1,0,0.2,0.1s0.1,0.3,0,0.4S495.4-1338.4,495.4-1338.4 M496.5-1337.3c-0.1,0-0.1,0-0.2-0.1s-0.1-0.3,0-0.4s0.1-0.1,0.2-0.1
					s0.1,0,0.2,0.1s0.1,0.3,0,0.4C496.7-1337.4,496.6-1337.3,496.5-1337.3 M497.6-1336.3c-0.1,0-0.1,0-0.2-0.1s-0.1-0.3,0-0.4
					s0.1-0.1,0.2-0.1s0.1,0,0.2,0.1s0.1,0.3,0,0.4C497.8-1336.3,497.7-1336.3,497.6-1336.3 M498.8-1335.3c-0.1,0-0.1,0-0.2-0.1
					s-0.1-0.3,0-0.4s0.1-0.1,0.2-0.1s0.1,0,0.2,0.1s0.1,0.3,0,0.4S498.8-1335.3,498.8-1335.3 M499.9-1334.3c-0.1,0-0.1,0-0.2-0.1
					s-0.1-0.3,0-0.4s0.1-0.1,0.2-0.1s0.1,0,0.2,0.1s0.1,0.3,0,0.4S500-1334.3,499.9-1334.3 M501-1333.2c-0.1,0-0.1,0-0.2-0.1
					s-0.1-0.3,0-0.4c0.1-0.1,0.1-0.1,0.2-0.1s0.1,0,0.2,0.1c0.1,0.1,0.1,0.3,0,0.4C501.2-1333.3,501.1-1333.2,501-1333.2
					 M502.1-1332.2c-0.1,0-0.1,0-0.2-0.1s-0.1-0.3,0-0.4c0.1-0.1,0.1-0.1,0.2-0.1s0.1,0,0.2,0.1c0.1,0.1,0.1,0.3,0,0.4
					C502.3-1332.2,502.2-1332.2,502.1-1332.2 M503.3-1331.2c-0.1,0-0.1,0-0.2-0.1s-0.1-0.3,0-0.4c0.1-0.1,0.1-0.1,0.2-0.1
					s0.1,0,0.2,0.1c0.1,0.1,0.1,0.3,0,0.4S503.4-1331.2,503.3-1331.2 M504.4-1330.1c-0.1,0-0.1,0-0.2-0.1c-0.1-0.1-0.1-0.3,0-0.4
					c0.1-0.1,0.1-0.1,0.2-0.1s0.1,0,0.2,0.1c0.1,0.1,0.1,0.3,0,0.4C504.6-1330.2,504.5-1330.1,504.4-1330.1 M505.5-1329.1
					c-0.1,0-0.1,0-0.2-0.1c-0.1-0.1-0.1-0.3,0-0.4c0.1-0.1,0.1-0.1,0.2-0.1s0.1,0,0.2,0.1c0.1,0.1,0.1,0.3,0,0.4
					C505.7-1329.1,505.6-1329.1,505.5-1329.1 M506.7-1328.1c-0.1,0-0.1,0-0.2-0.1c-0.1-0.1-0.1-0.3,0-0.4c0.1-0.1,0.1-0.1,0.2-0.1
					s0.1,0,0.2,0.1c0.1,0.1,0.1,0.3,0,0.4C506.8-1328.1,506.7-1328.1,506.7-1328.1 M507.8-1327c-0.1,0-0.1,0-0.2-0.1
					c-0.1-0.1-0.1-0.3,0-0.4s0.1-0.1,0.2-0.1s0.1,0,0.2,0.1s0.1,0.3,0,0.4C508-1327.1,507.9-1327,507.8-1327 M508.9-1326
					c-0.1,0-0.1,0-0.2-0.1c-0.1-0.1-0.1-0.3,0-0.4s0.1-0.1,0.2-0.1s0.1,0,0.2,0.1s0.1,0.3,0,0.4C509.1-1326,509-1326,508.9-1326
					 M510.1-1325c-0.1,0-0.1,0-0.2-0.1c-0.1-0.1-0.1-0.3,0-0.4s0.1-0.1,0.2-0.1s0.1,0,0.2,0.1s0.1,0.3,0,0.4
					C510.2-1325,510.1-1325,510.1-1325 M511.2-1323.9c-0.1,0-0.1,0-0.2-0.1s-0.1-0.3,0-0.4s0.1-0.1,0.2-0.1s0.1,0,0.2,0.1
					s0.1,0.3,0,0.4C511.3-1324,511.3-1323.9,511.2-1323.9 M512.3-1322.9c-0.1,0-0.1,0-0.2-0.1c-0.1-0.1-0.1-0.3,0-0.4
					c0.1-0.1,0.1-0.1,0.2-0.1c0.1,0,0.1,0,0.2,0.1c0.1,0.1,0.1,0.3,0,0.4C512.5-1322.9,512.4-1322.9,512.3-1322.9"/>
			</g>
		</g>
		<g id="XMLID_7901_" class="st1">
			<g id="XMLID_7902_">
				<path id="XMLID_7903_" class="st13" d="M493.1-1340.4c-0.1,0-0.2,0-0.2-0.1c-0.1-0.1-0.1-0.1-0.1-0.2c0-0.1,0-0.2,0.1-0.2
					c0.1-0.1,0.1-0.1,0.2-0.1s0.2,0,0.2,0.1c0.1,0.1,0.1,0.1,0.1,0.2c0,0.1,0,0.2-0.1,0.2C493.3-1340.5,493.2-1340.4,493.1-1340.4"
					/>
			</g>
		</g>
		<g id="XMLID_7895_" class="st1">
			<g id="XMLID_7896_">
				<path id="XMLID_7897_" class="st13" d="M492.6-1339.1L492.6-1339.1c-0.3-0.1-0.3-0.2-0.3-0.4c0-0.1,0.2-0.2,0.3-0.2h0.1
					c0.2,0.1,0.2,0.2,0.2,0.4C492.9-1339.2,492.7-1339.1,492.6-1339.1 M492.1-1337.8L492.1-1337.8c-0.3-0.1-0.3-0.2-0.3-0.4
					c0-0.1,0.2-0.2,0.3-0.2h0.1c0.2,0.1,0.2,0.2,0.2,0.4C492.4-1337.8,492.3-1337.8,492.1-1337.8 M491.7-1336.4
					C491.6-1336.4,491.6-1336.4,491.7-1336.4c-0.3-0.1-0.3-0.2-0.3-0.4c0-0.1,0.2-0.2,0.3-0.2h0.1c0.2,0.1,0.2,0.2,0.2,0.4
					C491.9-1336.5,491.8-1336.4,491.7-1336.4"/>
			</g>
		</g>
		<g id="XMLID_7892_" class="st1">
			<g id="XMLID_7893_">
				<path id="XMLID_7894_" class="st13" d="M491.2-1335.1c-0.1,0-0.2,0-0.2-0.1c-0.1-0.1-0.1-0.1-0.1-0.2s0-0.2,0.1-0.2
					c0.1-0.1,0.1-0.1,0.2-0.1s0.2,0,0.2,0.1c0.1,0.1,0.1,0.1,0.1,0.2s0,0.2-0.1,0.2C491.3-1335.1,491.3-1335.1,491.2-1335.1"/>
			</g>
		</g>
		<g id="XMLID_7846_" class="st1">
			<g id="XMLID_7847_">
				<path id="XMLID_7848_" class="st13" d="M489.6-1335c-0.2,0-0.3-0.1-0.3-0.3c0-0.2,0.1-0.3,0.3-0.3l0,0c0.2,0,0.3,0.1,0.3,0.3
					C489.9-1335.2,489.8-1335,489.6-1335L489.6-1335 M488-1335c-0.2,0-0.3-0.1-0.3-0.3c0-0.2,0.1-0.3,0.3-0.3l0,0
					c0.2,0,0.3,0.1,0.3,0.3C488.3-1335.1,488.2-1335,488-1335L488-1335 M486.5-1334.9c-0.2,0-0.3-0.1-0.3-0.3c0-0.2,0.1-0.3,0.3-0.3
					l0,0c0.2,0,0.3,0.1,0.3,0.3C486.8-1335.1,486.6-1334.9,486.5-1334.9L486.5-1334.9 M484.9-1334.9c-0.2,0-0.3-0.1-0.3-0.3
					c0-0.2,0.1-0.3,0.3-0.3l0,0c0.2,0,0.3,0.1,0.3,0.3C485.2-1335,485.1-1334.9,484.9-1334.9L484.9-1334.9 M483.3-1334.8
					c-0.2,0-0.3-0.1-0.3-0.3c0-0.2,0.1-0.3,0.3-0.3l0,0c0.2,0,0.3,0.1,0.3,0.3C483.6-1335,483.5-1334.8,483.3-1334.8L483.3-1334.8
					 M481.8-1334.8c-0.2,0-0.3-0.1-0.3-0.3c0-0.2,0.1-0.3,0.3-0.3l0,0c0.2,0,0.3,0.1,0.3,0.3
					C482.1-1334.9,481.9-1334.8,481.8-1334.8L481.8-1334.8 M480.2-1334.7c-0.2,0-0.3-0.1-0.3-0.3c0-0.2,0.1-0.3,0.3-0.3l0,0
					c0.2,0,0.3,0.1,0.3,0.3C480.5-1334.9,480.4-1334.7,480.2-1334.7L480.2-1334.7 M478.6-1334.7c-0.2,0-0.3-0.1-0.3-0.3
					c0-0.2,0.1-0.3,0.3-0.3l0,0c0.2,0,0.3,0.1,0.3,0.3S478.8-1334.7,478.6-1334.7L478.6-1334.7 M477.1-1334.6
					c-0.2,0-0.3-0.1-0.3-0.3s0.1-0.3,0.3-0.3l0,0c0.2,0,0.3,0.1,0.3,0.3C477.4-1334.8,477.2-1334.6,477.1-1334.6L477.1-1334.6
					 M475.5-1334.6c-0.2,0-0.3-0.1-0.3-0.3s0.1-0.3,0.3-0.3l0,0c0.2,0,0.3,0.1,0.3,0.3S475.7-1334.6,475.5-1334.6L475.5-1334.6
					 M473.9-1334.5c-0.2,0-0.3-0.1-0.3-0.3c0-0.2,0.1-0.3,0.3-0.3l0,0c0.2,0,0.3,0.1,0.3,0.3
					C474.2-1334.7,474.1-1334.5,473.9-1334.5L473.9-1334.5 M472.4-1334.5c-0.2,0-0.3-0.1-0.3-0.3c0-0.2,0.1-0.3,0.3-0.3l0,0
					c0.2,0,0.3,0.1,0.3,0.3C472.7-1334.6,472.5-1334.5,472.4-1334.5L472.4-1334.5 M470.8-1334.4c-0.2,0-0.3-0.1-0.3-0.3
					c0-0.2,0.1-0.3,0.3-0.3l0,0c0.2,0,0.3,0.1,0.3,0.3C471.1-1334.6,471-1334.4,470.8-1334.4L470.8-1334.4 M469.2-1334.4
					c-0.2,0-0.3-0.1-0.3-0.3c0-0.2,0.1-0.3,0.3-0.3l0,0c0.2,0,0.3,0.1,0.3,0.3C469.5-1334.5,469.4-1334.4,469.2-1334.4L469.2-1334.4
					 M467.7-1334.3c-0.2,0-0.3-0.1-0.3-0.3c0-0.2,0.1-0.3,0.3-0.3l0,0c0.2,0,0.3,0.1,0.3,0.3C468-1334.5,467.8-1334.3,467.7-1334.3
					L467.7-1334.3 M466.1-1334.3c-0.2,0-0.3-0.1-0.3-0.3c0-0.2,0.1-0.3,0.3-0.3l0,0c0.2,0,0.3,0.1,0.3,0.3
					S466.3-1334.3,466.1-1334.3L466.1-1334.3 M464.5-1334.2c-0.2,0-0.3-0.1-0.3-0.3c0-0.2,0.1-0.3,0.3-0.3l0,0
					c0.2,0,0.3,0.1,0.3,0.3S464.7-1334.2,464.5-1334.2L464.5-1334.2 M462.9-1334.2c-0.2,0-0.3-0.1-0.3-0.3c0-0.2,0.1-0.3,0.3-0.3
					l0,0c0.2,0,0.3,0.1,0.3,0.3C463.2-1334.3,463.1-1334.2,462.9-1334.2L462.9-1334.2 M461.4-1334.1c-0.2,0-0.3-0.1-0.3-0.3
					s0.1-0.3,0.3-0.3l0,0c0.2,0,0.3,0.1,0.3,0.3C461.7-1334.2,461.5-1334.1,461.4-1334.1L461.4-1334.1 M459.8-1334.1
					c-0.2,0-0.3-0.1-0.3-0.3s0.1-0.3,0.3-0.3l0,0c0.2,0,0.3,0.1,0.3,0.3C460.1-1334.2,460-1334.1,459.8-1334.1L459.8-1334.1
					 M458.2-1334c-0.2,0-0.3-0.1-0.3-0.3c0-0.2,0.1-0.3,0.3-0.3l0,0c0.2,0,0.3,0.1,0.3,0.3C458.5-1334.1,458.4-1334,458.2-1334
					L458.2-1334 M456.7-1333.9c-0.2,0-0.3-0.1-0.3-0.3c0-0.2,0.1-0.3,0.3-0.3l0,0c0.2,0,0.3,0.1,0.3,0.3
					C457-1334.1,456.8-1334,456.7-1333.9L456.7-1333.9 M455.1-1333.9c-0.2,0-0.3-0.1-0.3-0.3c0-0.2,0.1-0.3,0.3-0.3l0,0
					c0.2,0,0.3,0.1,0.3,0.3C455.4-1334,455.3-1333.9,455.1-1333.9L455.1-1333.9 M453.5-1333.8c-0.2,0-0.3-0.1-0.3-0.3
					c0-0.2,0.1-0.3,0.3-0.3l0,0c0.2,0,0.3,0.1,0.3,0.3C453.8-1334,453.7-1333.9,453.5-1333.8L453.5-1333.8 M452-1333.8
					c-0.2,0-0.3-0.1-0.3-0.3c0-0.2,0.1-0.3,0.3-0.3l0,0c0.2,0,0.3,0.1,0.3,0.3S452.1-1333.8,452-1333.8L452-1333.8 M450.4-1333.7
					c-0.2,0-0.3-0.1-0.3-0.3c0-0.2,0.1-0.3,0.3-0.3l0,0c0.2,0,0.3,0.1,0.3,0.3C450.7-1333.9,450.6-1333.7,450.4-1333.7L450.4-1333.7
					 M448.8-1333.7c-0.2,0-0.3-0.1-0.3-0.3c0-0.2,0.1-0.3,0.3-0.3l0,0c0.2,0,0.3,0.1,0.3,0.3C449.1-1333.8,449-1333.7,448.8-1333.7
					L448.8-1333.7 M447.3-1333.6c-0.2,0-0.3-0.1-0.3-0.3s0.1-0.3,0.3-0.3l0,0c0.2,0,0.3,0.1,0.3,0.3
					C447.6-1333.8,447.4-1333.6,447.3-1333.6L447.3-1333.6 M445.7-1333.6c-0.2,0-0.3-0.1-0.3-0.3s0.1-0.3,0.3-0.3l0,0
					c0.2,0,0.3,0.1,0.3,0.3S445.9-1333.6,445.7-1333.6L445.7-1333.6 M444.1-1333.5c-0.2,0-0.3-0.1-0.3-0.3c0-0.2,0.1-0.3,0.3-0.3
					l0,0c0.2,0,0.3,0.1,0.3,0.3C444.4-1333.7,444.3-1333.5,444.1-1333.5L444.1-1333.5 M442.5-1333.5c-0.2,0-0.3-0.1-0.3-0.3
					c0-0.2,0.1-0.3,0.3-0.3l0,0c0.2,0,0.3,0.1,0.3,0.3C442.8-1333.6,442.7-1333.5,442.5-1333.5L442.5-1333.5 M441-1333.4
					c-0.2,0-0.3-0.1-0.3-0.3c0-0.2,0.1-0.3,0.3-0.3l0,0c0.2,0,0.3,0.1,0.3,0.3C441.3-1333.6,441.2-1333.4,441-1333.4L441-1333.4
					 M439.4-1333.4c-0.2,0-0.3-0.1-0.3-0.3c0-0.2,0.1-0.3,0.3-0.3l0,0c0.2,0,0.3,0.1,0.3,0.3
					C439.7-1333.5,439.6-1333.4,439.4-1333.4L439.4-1333.4 M437.8-1333.3c-0.2,0-0.3-0.1-0.3-0.3c0-0.2,0.1-0.3,0.3-0.3l0,0
					c0.2,0,0.3,0.1,0.3,0.3C438.1-1333.5,438-1333.3,437.8-1333.3L437.8-1333.3 M436.3-1333.3c-0.2,0-0.3-0.1-0.3-0.3
					c0-0.2,0.1-0.3,0.3-0.3l0,0c0.2,0,0.3,0.1,0.3,0.3C436.6-1333.4,436.4-1333.3,436.3-1333.3L436.3-1333.3 M434.7-1333.2
					c-0.2,0-0.3-0.1-0.3-0.3c0-0.2,0.1-0.3,0.3-0.3l0,0c0.2,0,0.3,0.1,0.3,0.3C435-1333.4,434.9-1333.2,434.7-1333.2L434.7-1333.2
					 M433.1-1333.2c-0.2,0-0.3-0.1-0.3-0.3c0-0.2,0.1-0.3,0.3-0.3l0,0c0.2,0,0.3,0.1,0.3,0.3S433.3-1333.2,433.1-1333.2
					L433.1-1333.2 M431.6-1333.1c-0.2,0-0.3-0.1-0.3-0.3s0.1-0.3,0.3-0.3l0,0c0.2,0,0.3,0.1,0.3,0.3
					C431.9-1333.3,431.7-1333.1,431.6-1333.1L431.6-1333.1 M430-1333.1c-0.2,0-0.3-0.1-0.3-0.3s0.1-0.3,0.3-0.3l0,0
					c0.2,0,0.3,0.1,0.3,0.3S430.2-1333.1,430-1333.1L430-1333.1 M428.4-1333c-0.2,0-0.3-0.1-0.3-0.3c0-0.2,0.1-0.3,0.3-0.3l0,0
					c0.2,0,0.3,0.1,0.3,0.3C428.7-1333.2,428.6-1333,428.4-1333L428.4-1333 M426.9-1333c-0.2,0-0.3-0.1-0.3-0.3
					c0-0.2,0.1-0.3,0.3-0.3l0,0c0.2,0,0.3,0.1,0.3,0.3C427.2-1333.1,427-1333,426.9-1333L426.9-1333 M425.3-1332.9
					c-0.2,0-0.3-0.1-0.3-0.3c0-0.2,0.1-0.3,0.3-0.3l0,0c0.2,0,0.3,0.1,0.3,0.3C425.6-1333.1,425.5-1332.9,425.3-1332.9L425.3-1332.9
					 M423.7-1332.9c-0.2,0-0.3-0.1-0.3-0.3c0-0.2,0.1-0.3,0.3-0.3l0,0c0.2,0,0.3,0.1,0.3,0.3C424-1333,423.9-1332.9,423.7-1332.9
					L423.7-1332.9"/>
			</g>
		</g>
		<g id="XMLID_7843_" class="st1">
			<g id="XMLID_7844_">
				<path id="XMLID_7845_" class="st13" d="M422.2-1332.8c-0.1,0-0.2,0-0.2-0.1c-0.1-0.1-0.1-0.1-0.1-0.2c0-0.1,0-0.2,0.1-0.2
					c0.1-0.1,0.1-0.1,0.2-0.1s0.2,0,0.2,0.1c0.1,0.1,0.1,0.1,0.1,0.2c0,0.1,0,0.2-0.1,0.2C422.3-1332.8,422.2-1332.8,422.2-1332.8"
					/>
			</g>
		</g>
		<g id="XMLID_7823_" class="st1">
			<g id="XMLID_7824_">
				<path id="XMLID_7825_" class="st13" d="M421.5-1331.3h-0.1c-0.1-0.1-0.2-0.2-0.2-0.4c0-0.1,0.2-0.2,0.3-0.2h0.1
					c0.2,0.1,0.2,0.2,0.2,0.4C421.8-1331.4,421.6-1331.3,421.5-1331.3 M420.9-1329.9h-0.1c-0.1-0.1-0.2-0.2-0.2-0.4
					c0-0.1,0.2-0.2,0.3-0.2h0.1c0.2,0.1,0.2,0.2,0.2,0.4C421.1-1329.9,421-1329.9,420.9-1329.9 M420.3-1328.4h-0.1
					c-0.2-0.1-0.2-0.2-0.2-0.4c0-0.1,0.2-0.2,0.3-0.2h0.1c0.1,0.1,0.2,0.2,0.2,0.4C420.5-1328.5,420.4-1328.4,420.3-1328.4
					 M419.7-1327h-0.1c-0.1-0.1-0.2-0.2-0.2-0.4c0-0.1,0.2-0.2,0.3-0.2h0.1c0.2,0.1,0.2,0.2,0.2,0.4
					C419.9-1327,419.8-1327,419.7-1327 M419-1325.5h-0.1c-0.1-0.1-0.2-0.2-0.2-0.4c0-0.1,0.2-0.2,0.3-0.2h0.1
					c0.2,0.1,0.2,0.2,0.2,0.4C419.3-1325.6,419.1-1325.5,419-1325.5 M418.4-1324h-0.1c-0.2-0.1-0.2-0.2-0.2-0.4
					c0-0.1,0.2-0.2,0.3-0.2h0.1c0.1,0.1,0.2,0.2,0.2,0.4C418.6-1324.1,418.5-1324,418.4-1324 M417.8-1322.6h-0.1
					c-0.1-0.1-0.2-0.2-0.2-0.4c0-0.1,0.2-0.2,0.3-0.2h0.1c0.2,0.1,0.2,0.2,0.2,0.4C418-1322.6,417.9-1322.6,417.8-1322.6
					 M417.2-1321.1h-0.1c-0.1-0.1-0.2-0.2-0.2-0.4c0-0.1,0.2-0.2,0.3-0.2h0.1c0.2,0.1,0.2,0.2,0.2,0.4
					C417.4-1321.2,417.3-1321.1,417.2-1321.1 M416.5-1319.6h-0.1c-0.1-0.1-0.2-0.2-0.2-0.4c0-0.1,0.2-0.2,0.3-0.2h0.1
					c0.2,0.1,0.2,0.2,0.2,0.4C416.8-1319.7,416.6-1319.6,416.5-1319.6 M415.9-1318.2h-0.1c-0.2-0.1-0.2-0.2-0.2-0.4
					c0-0.1,0.2-0.2,0.3-0.2h0.1c0.2,0.1,0.2,0.2,0.2,0.4C416.1-1318.2,416-1318.2,415.9-1318.2 M415.3-1316.7h-0.1
					c-0.2-0.1-0.2-0.2-0.2-0.4c0-0.1,0.2-0.2,0.3-0.2h0.1c0.1,0.1,0.2,0.2,0.2,0.4C415.5-1316.8,415.4-1316.7,415.3-1316.7
					 M414.7-1315.2h-0.1c-0.2-0.1-0.2-0.2-0.2-0.4c0-0.1,0.2-0.2,0.3-0.2h0.1c0.1,0.1,0.2,0.2,0.2,0.4
					C414.9-1315.3,414.8-1315.2,414.7-1315.2 M414-1313.8h-0.1c-0.2-0.1-0.2-0.2-0.2-0.4c0-0.1,0.2-0.2,0.3-0.2h0.1
					c0.2,0.1,0.2,0.2,0.2,0.4C414.3-1313.8,414.1-1313.8,414-1313.8 M413.4-1312.3h-0.1c-0.2-0.1-0.2-0.2-0.2-0.4
					c0-0.1,0.2-0.2,0.3-0.2h0.1c0.1,0.1,0.2,0.2,0.2,0.4C413.6-1312.4,413.5-1312.3,413.4-1312.3 M412.8-1310.8h-0.1
					c-0.1-0.1-0.2-0.2-0.2-0.4c0.1-0.1,0.2-0.2,0.3-0.2h0.1c0.1,0.1,0.2,0.2,0.2,0.4C413-1310.9,412.9-1310.8,412.8-1310.8
					 M412.2-1309.4h-0.1c-0.1-0.1-0.2-0.2-0.2-0.4c0-0.1,0.2-0.2,0.3-0.2h0.1c0.1,0.1,0.2,0.2,0.2,0.4
					C412.4-1309.5,412.3-1309.4,412.2-1309.4 M411.5-1307.9h-0.1c-0.1-0.1-0.2-0.2-0.2-0.4c0-0.1,0.2-0.2,0.3-0.2h0.1
					c0.1,0.1,0.2,0.2,0.2,0.4C411.8-1308,411.6-1307.9,411.5-1307.9"/>
			</g>
		</g>
		<g id="XMLID_7820_" class="st1">
			<g id="XMLID_7821_">
				<path id="XMLID_7822_" class="st13" d="M410.9-1306.5c-0.1,0-0.2,0-0.2-0.1c-0.1-0.1-0.1-0.1-0.1-0.2s0-0.1,0.1-0.2
					s0.1-0.1,0.2-0.1s0.2,0,0.2,0.1c0.1,0.1,0.1,0.1,0.1,0.2s0,0.2-0.1,0.2C411.1-1306.5,411-1306.5,410.9-1306.5"/>
			</g>
		</g>
		<g id="XMLID_7773_" class="st1">
			<g id="XMLID_7774_">
				<path id="XMLID_7775_" class="st13" d="M480.3-1308.8c-0.2,0-0.3-0.1-0.3-0.3c0-0.2,0.1-0.3,0.3-0.3l0,0c0.2,0,0.3,0.1,0.3,0.3
					C480.6-1308.9,480.5-1308.8,480.3-1308.8L480.3-1308.8 M478.7-1308.7c-0.2,0-0.3-0.1-0.3-0.3c0-0.2,0.1-0.3,0.3-0.3l0,0
					c0.2,0,0.3,0.1,0.3,0.3S478.9-1308.7,478.7-1308.7L478.7-1308.7 M477.1-1308.7c-0.2,0-0.3-0.1-0.3-0.3c0-0.2,0.1-0.3,0.3-0.3
					l0,0c0.2,0,0.3,0.1,0.3,0.3S477.3-1308.7,477.1-1308.7L477.1-1308.7 M475.6-1308.6c-0.2,0-0.3-0.1-0.3-0.3s0.1-0.3,0.3-0.3l0,0
					c0.2,0,0.3,0.1,0.3,0.3S475.7-1308.6,475.6-1308.6L475.6-1308.6 M474-1308.5c-0.2,0-0.3-0.1-0.3-0.3c0-0.2,0.1-0.3,0.3-0.3l0,0
					c0.2,0,0.3,0.1,0.3,0.3C474.3-1308.7,474.2-1308.6,474-1308.5L474-1308.5 M472.4-1308.5c-0.2,0-0.3-0.1-0.3-0.3
					c0-0.2,0.1-0.3,0.3-0.3l0,0c0.2,0,0.3,0.1,0.3,0.3C472.7-1308.6,472.6-1308.5,472.4-1308.5L472.4-1308.5 M470.8-1308.4
					c-0.2,0-0.3-0.1-0.3-0.3c0-0.2,0.1-0.3,0.3-0.3l0,0c0.2,0,0.3,0.1,0.3,0.3C471.1-1308.6,471-1308.4,470.8-1308.4L470.8-1308.4
					 M469.3-1308.4c-0.2,0-0.3-0.1-0.3-0.3c0-0.2,0.1-0.3,0.3-0.3l0,0c0.2,0,0.3,0.1,0.3,0.3
					C469.6-1308.5,469.4-1308.4,469.3-1308.4L469.3-1308.4 M467.7-1308.3c-0.2,0-0.3-0.1-0.3-0.3c0-0.2,0.1-0.3,0.3-0.3l0,0
					c0.2,0,0.3,0.1,0.3,0.3C468-1308.5,467.9-1308.3,467.7-1308.3L467.7-1308.3 M466.1-1308.3c-0.2,0-0.3-0.1-0.3-0.3
					c0-0.2,0.1-0.3,0.3-0.3l0,0c0.2,0,0.3,0.1,0.3,0.3S466.3-1308.3,466.1-1308.3L466.1-1308.3 M464.5-1308.2
					c-0.2,0-0.3-0.1-0.3-0.3c0-0.2,0.1-0.3,0.3-0.3l0,0c0.2,0,0.3,0.1,0.3,0.3C464.8-1308.4,464.7-1308.2,464.5-1308.2L464.5-1308.2
					 M462.9-1308.2c-0.2,0-0.3-0.1-0.3-0.3c0-0.2,0.1-0.3,0.3-0.3l0,0c0.2,0,0.3,0.1,0.3,0.3
					C463.2-1308.3,463.1-1308.2,462.9-1308.2L462.9-1308.2 M461.4-1308.1c-0.2,0-0.3-0.1-0.3-0.3s0.1-0.3,0.3-0.3l0,0
					c0.2,0,0.3,0.1,0.3,0.3C461.7-1308.3,461.5-1308.1,461.4-1308.1L461.4-1308.1 M459.8-1308.1c-0.2,0-0.3-0.1-0.3-0.3
					s0.1-0.3,0.3-0.3l0,0c0.2,0,0.3,0.1,0.3,0.3C460.1-1308.2,460-1308.1,459.8-1308.1L459.8-1308.1 M458.2-1308
					c-0.2,0-0.3-0.1-0.3-0.3c0-0.2,0.1-0.3,0.3-0.3l0,0c0.2,0,0.3,0.1,0.3,0.3C458.5-1308.2,458.4-1308,458.2-1308L458.2-1308
					 M456.6-1308c-0.2,0-0.3-0.1-0.3-0.3c0-0.2,0.1-0.3,0.3-0.3l0,0c0.2,0,0.3,0.1,0.3,0.3C456.9-1308.1,456.8-1308,456.6-1308
					L456.6-1308 M455.1-1307.9c-0.2,0-0.3-0.1-0.3-0.3c0-0.2,0.1-0.3,0.3-0.3l0,0c0.2,0,0.3,0.1,0.3,0.3
					C455.4-1308.1,455.2-1307.9,455.1-1307.9L455.1-1307.9 M453.5-1307.9c-0.2,0-0.3-0.1-0.3-0.3c0-0.2,0.1-0.3,0.3-0.3l0,0
					c0.2,0,0.3,0.1,0.3,0.3C453.8-1308,453.7-1307.9,453.5-1307.9L453.5-1307.9 M451.9-1307.8c-0.2,0-0.3-0.1-0.3-0.3
					c0-0.2,0.1-0.3,0.3-0.3l0,0c0.2,0,0.3,0.1,0.3,0.3C452.2-1308,452.1-1307.8,451.9-1307.8L451.9-1307.8 M450.3-1307.8
					c-0.2,0-0.3-0.1-0.3-0.3c0-0.2,0.1-0.3,0.3-0.3l0,0c0.2,0,0.3,0.1,0.3,0.3C450.6-1307.9,450.5-1307.8,450.3-1307.8L450.3-1307.8
					 M448.8-1307.7c-0.2,0-0.3-0.1-0.3-0.3c0-0.2,0.1-0.3,0.3-0.3l0,0c0.2,0,0.3,0.1,0.3,0.3
					C449.1-1307.9,448.9-1307.7,448.8-1307.7L448.8-1307.7 M447.2-1307.7c-0.2,0-0.3-0.1-0.3-0.3c0-0.2,0.1-0.3,0.3-0.3l0,0
					c0.2,0,0.3,0.1,0.3,0.3S447.4-1307.7,447.2-1307.7L447.2-1307.7 M445.6-1307.6c-0.2,0-0.3-0.1-0.3-0.3s0.1-0.3,0.3-0.3l0,0
					c0.2,0,0.3,0.1,0.3,0.3S445.8-1307.6,445.6-1307.6L445.6-1307.6 M444-1307.6c-0.2,0-0.3-0.1-0.3-0.3s0.1-0.3,0.3-0.3l0,0
					c0.2,0,0.3,0.1,0.3,0.3S444.2-1307.6,444-1307.6L444-1307.6 M442.4-1307.5c-0.2,0-0.3-0.1-0.3-0.3c0-0.2,0.1-0.3,0.3-0.3l0,0
					c0.2,0,0.3,0.1,0.3,0.3C442.7-1307.6,442.6-1307.5,442.4-1307.5L442.4-1307.5 M440.9-1307.5c-0.2,0-0.3-0.1-0.3-0.3
					c0-0.2,0.1-0.3,0.3-0.3l0,0c0.2,0,0.3,0.1,0.3,0.3C441.2-1307.6,441-1307.5,440.9-1307.5L440.9-1307.5 M439.3-1307.4
					c-0.2,0-0.3-0.1-0.3-0.3c0-0.2,0.1-0.3,0.3-0.3l0,0c0.2,0,0.3,0.1,0.3,0.3C439.6-1307.5,439.5-1307.4,439.3-1307.4L439.3-1307.4
					 M437.7-1307.3c-0.2,0-0.3-0.1-0.3-0.3c0-0.2,0.1-0.3,0.3-0.3l0,0c0.2,0,0.3,0.1,0.3,0.3C438-1307.5,437.9-1307.3,437.7-1307.3
					L437.7-1307.3 M436.1-1307.3c-0.2,0-0.3-0.1-0.3-0.3c0-0.2,0.1-0.3,0.3-0.3l0,0c0.2,0,0.3,0.1,0.3,0.3
					S436.3-1307.3,436.1-1307.3L436.1-1307.3 M434.6-1307.2c-0.2,0-0.3-0.1-0.3-0.3c0-0.2,0.1-0.3,0.3-0.3l0,0
					c0.2,0,0.3,0.1,0.3,0.3C434.9-1307.4,434.7-1307.2,434.6-1307.2L434.6-1307.2 M433-1307.2c-0.2,0-0.3-0.1-0.3-0.3
					c0-0.2,0.1-0.3,0.3-0.3l0,0c0.2,0,0.3,0.1,0.3,0.3S433.2-1307.2,433-1307.2L433-1307.2 M431.4-1307.1c-0.2,0-0.3-0.1-0.3-0.3
					s0.1-0.3,0.3-0.3l0,0c0.2,0,0.3,0.1,0.3,0.3C431.7-1307.3,431.6-1307.1,431.4-1307.1L431.4-1307.1 M429.8-1307.1
					c-0.2,0-0.3-0.1-0.3-0.3s0.1-0.3,0.3-0.3l0,0c0.2,0,0.3,0.1,0.3,0.3C430.1-1307.2,430-1307.1,429.8-1307.1L429.8-1307.1
					 M428.3-1307c-0.2,0-0.3-0.1-0.3-0.3c0-0.2,0.1-0.3,0.3-0.3l0,0c0.2,0,0.3,0.1,0.3,0.3C428.6-1307.2,428.4-1307,428.3-1307
					L428.3-1307 M426.7-1307c-0.2,0-0.3-0.1-0.3-0.3c0-0.2,0.1-0.3,0.3-0.3l0,0c0.2,0,0.3,0.1,0.3,0.3
					C427-1307.1,426.9-1307,426.7-1307L426.7-1307 M425.1-1306.9c-0.2,0-0.3-0.1-0.3-0.3c0-0.2,0.1-0.3,0.3-0.3l0,0
					c0.2,0,0.3,0.1,0.3,0.3C425.4-1307.1,425.3-1306.9,425.1-1306.9L425.1-1306.9 M423.5-1306.9c-0.2,0-0.3-0.1-0.3-0.3
					c0-0.2,0.1-0.3,0.3-0.3l0,0c0.2,0,0.3,0.1,0.3,0.3C423.8-1307,423.7-1306.9,423.5-1306.9L423.5-1306.9 M421.9-1306.8
					c-0.2,0-0.3-0.1-0.3-0.3c0-0.2,0.1-0.3,0.3-0.3l0,0c0.2,0,0.3,0.1,0.3,0.3C422.2-1307,422.1-1306.8,421.9-1306.8L421.9-1306.8
					 M420.4-1306.8c-0.2,0-0.3-0.1-0.3-0.3c0-0.2,0.1-0.3,0.3-0.3l0,0c0.2,0,0.3,0.1,0.3,0.3
					C420.7-1306.9,420.5-1306.8,420.4-1306.8L420.4-1306.8 M418.8-1306.7c-0.2,0-0.3-0.1-0.3-0.3c0-0.2,0.1-0.3,0.3-0.3l0,0
					c0.2,0,0.3,0.1,0.3,0.3C419.1-1306.9,419-1306.7,418.8-1306.7L418.8-1306.7 M417.2-1306.7c-0.2,0-0.3-0.1-0.3-0.3
					c0-0.2,0.1-0.3,0.3-0.3l0,0c0.2,0,0.3,0.1,0.3,0.3S417.4-1306.7,417.2-1306.7L417.2-1306.7 M415.6-1306.6
					c-0.2,0-0.3-0.1-0.3-0.3s0.1-0.3,0.3-0.3l0,0c0.2,0,0.3,0.1,0.3,0.3C415.9-1306.8,415.8-1306.6,415.6-1306.6L415.6-1306.6
					 M414.1-1306.6c-0.2,0-0.3-0.1-0.3-0.3s0.1-0.3,0.3-0.3l0,0c0.2,0,0.3,0.1,0.3,0.3S414.2-1306.6,414.1-1306.6L414.1-1306.6
					 M412.5-1306.5c-0.2,0-0.3-0.1-0.3-0.3c0-0.2,0.1-0.3,0.3-0.3l0,0c0.2,0,0.3,0.1,0.3,0.3
					C412.8-1306.7,412.7-1306.5,412.5-1306.5L412.5-1306.5"/>
			</g>
		</g>
		<g id="XMLID_7770_" class="st1">
			<g id="XMLID_7771_">
				<polygon id="XMLID_7772_" class="st14" points="428.3,-1330.6 425.3,-1323.1 425.4,-1323.1 425.7,-1323.4 431.1,-1330.7 
					434,-1330.8 428.5,-1323.6 426,-1309.2 423,-1309.1 424.5,-1318.4 424.6,-1318.9 424.5,-1318.9 424.2,-1318.4 422.8,-1316.6 
					419.8,-1309 416.8,-1308.9 425.2,-1330.5 				"/>
			</g>
		</g>
		<g id="XMLID_7767_" class="st1">
			<g id="XMLID_7768_">
				<polygon id="XMLID_7769_" class="st14" points="436.1,-1330.9 439.2,-1331 430.7,-1309.4 427.7,-1309.3 				"/>
			</g>
		</g>
		<g id="XMLID_7764_" class="st1">
			<g id="XMLID_7765_">
				<path id="XMLID_7766_" class="st14" d="M444.1-1317.2l-1.2,3c-0.4,0.9-0.9,1.7-1.4,2.4c-0.5,0.6-1.1,1.2-1.8,1.6
					c-0.7,0.5-1.6,0.8-2.6,0.8s-1.7-0.2-2.1-0.7c-0.4-0.4-0.5-1-0.6-1.5c0-0.7,0.1-1.5,0.4-2.3l5-12.8c0.4-0.9,0.8-1.7,1.4-2.3
					c0.5-0.6,1.1-1.2,1.8-1.7c0.7-0.5,1.6-0.8,2.7-0.8c1,0,1.7,0.2,2.1,0.7c0.4,0.4,0.6,1,0.6,1.6c0,0.7-0.1,1.5-0.4,2.3l-1.2,3
					l-2.9,0.1l1.2-3c0.2-0.6,0.2-1,0.1-1.3c-0.1-0.1-0.3-0.2-0.6-0.2c-0.5,0-1,0.4-1.2,0.8c-0.2,0.2-0.3,0.5-0.5,0.8l-5,12.8
					c-0.2,0.6-0.2,1,0,1.3c0.1,0.1,0.2,0.2,0.5,0.2c0.6,0,1-0.4,1.4-0.8c0.2-0.2,0.3-0.5,0.4-0.8l1.2-3L444.1-1317.2z"/>
			</g>
		</g>
		<g id="XMLID_7761_" class="st1">
			<g id="XMLID_7762_">
				<polygon id="XMLID_7763_" class="st14" points="454.8,-1331.6 451.9,-1324 452,-1324 452.3,-1324.4 457.6,-1331.7 
					460.6,-1331.8 455,-1324.5 452.5,-1310.1 449.6,-1310 451.1,-1319.4 451.2,-1319.8 451.1,-1319.8 450.8,-1319.4 449.4,-1317.6 
					446.4,-1309.9 443.3,-1309.8 451.8,-1331.5 				"/>
			</g>
		</g>
		<g id="XMLID_7758_" class="st1">
			<g id="XMLID_7759_">
				<polygon id="XMLID_7760_" class="st14" points="459.4,-1320.8 463.5,-1320.9 462.4,-1318.1 458.3,-1318 				"/>
			</g>
		</g>
		<g id="XMLID_7753_" class="st1">
			<g id="XMLID_7754_">
				<path id="XMLID_7755_" class="st14" d="M472.6-1315.2c-0.4,0.9-0.9,1.7-1.4,2.4c-0.5,0.6-1.1,1.2-1.8,1.6
					c-0.7,0.5-1.6,0.8-2.6,0.8s-1.7-0.2-2.1-0.7c-0.4-0.4-0.5-1-0.6-1.5c0-0.7,0.1-1.5,0.4-2.3l5-12.8c0.4-0.9,0.8-1.7,1.4-2.3
					c0.5-0.6,1.1-1.2,1.8-1.7c0.7-0.5,1.6-0.8,2.7-0.8c1,0,1.7,0.2,2.1,0.7c0.4,0.4,0.6,1,0.6,1.6c0,0.7-0.1,1.5-0.4,2.3
					L472.6-1315.2z M474.5-1327.9c0.2-0.6,0.3-1,0.1-1.3c-0.1-0.1-0.3-0.2-0.5-0.2c-0.5,0-1,0.4-1.2,0.8c-0.2,0.2-0.3,0.5-0.4,0.8
					l-5,12.8c-0.2,0.6-0.3,1-0.1,1.3c0.1,0.1,0.2,0.2,0.5,0.2c0.5,0,0.9-0.4,1.2-0.8c0.2-0.2,0.3-0.5,0.4-0.8L474.5-1327.9z"/>
			</g>
		</g>
		<g id="XMLID_7750_" class="st1">
			<g id="XMLID_7751_">
				<polygon id="XMLID_7752_" class="st14" points="487.7,-1329.5 483.5,-1329.4 481.2,-1323.7 484.1,-1323.8 482.8,-1320.5 
					480,-1320.4 476.3,-1311 473.2,-1310.9 481.7,-1332.5 488.9,-1332.8 				"/>
			</g>
		</g>
		<g id="XMLID_7747_" class="st1">
			<g id="XMLID_7748_">
				<polygon id="XMLID_7749_" class="st14" points="496.4,-1329.8 492.2,-1329.7 490,-1324 492.8,-1324.1 491.6,-1320.8 
					488.7,-1320.7 485.1,-1311.3 482,-1311.2 490.4,-1332.8 497.7,-1333.1 				"/>
			</g>
		</g>
		<g id="XMLID_7744_" class="st1">
			<g id="XMLID_7745_">
				<polygon id="XMLID_7746_" class="st9" points="427.7,-1330.6 424.7,-1323.1 424.8,-1323.1 425.1,-1323.4 430.5,-1330.7 
					433.5,-1330.8 427.9,-1323.6 425.4,-1309.2 422.4,-1309.1 424,-1318.4 424.1,-1318.9 424,-1318.9 423.6,-1318.4 422.2,-1316.6 
					419.2,-1309 416.2,-1308.9 424.6,-1330.5 				"/>
			</g>
		</g>
		<g id="XMLID_7741_" class="st1">
			<g id="XMLID_7742_">
				<polygon id="XMLID_7743_" class="st9" points="435.5,-1330.9 438.6,-1331 430.1,-1309.4 427.1,-1309.3 				"/>
			</g>
		</g>
		<g id="XMLID_7738_" class="st1">
			<g id="XMLID_7739_">
				<path id="XMLID_7740_" class="st9" d="M443.5-1317.2l-1.2,3c-0.4,0.9-0.8,1.7-1.4,2.4c-0.5,0.6-1.1,1.2-1.8,1.6
					c-0.7,0.5-1.6,0.8-2.6,0.8s-1.7-0.2-2.1-0.6s-0.5-1-0.6-1.6c0-0.7,0.1-1.5,0.4-2.3l5-12.8c0.4-0.9,0.8-1.7,1.4-2.3
					c0.5-0.6,1.1-1.2,1.8-1.7c0.7-0.5,1.6-0.8,2.7-0.8c1,0,1.7,0.2,2.1,0.7c0.4,0.4,0.6,1,0.6,1.6c0,0.7-0.1,1.5-0.4,2.3l-1.2,3
					l-2.9,0.1l1.2-3c0.2-0.6,0.2-1,0.1-1.3c-0.1-0.1-0.3-0.2-0.6-0.2c-0.5,0-1,0.4-1.2,0.8c-0.2,0.2-0.3,0.5-0.5,0.8l-5,12.8
					c-0.2,0.6-0.2,1,0,1.3c0.1,0.1,0.3,0.2,0.5,0.2c0.6,0,1-0.4,1.4-0.8c0.2-0.2,0.3-0.5,0.4-0.8l1.2-3L443.5-1317.2z"/>
			</g>
		</g>
		<g id="XMLID_7735_" class="st1">
			<g id="XMLID_7736_">
				<polygon id="XMLID_7737_" class="st9" points="454.3,-1331.6 451.3,-1324 451.4,-1324 451.7,-1324.4 457.1,-1331.7 460,-1331.8 
					454.5,-1324.6 452,-1310.1 449,-1310 450.5,-1319.4 450.6,-1319.8 450.5,-1319.8 450.2,-1319.4 448.8,-1317.6 445.8,-1309.9 
					442.8,-1309.8 451.2,-1331.5 				"/>
			</g>
		</g>
		<g id="XMLID_7732_" class="st1">
			<g id="XMLID_7733_">
				<polygon id="XMLID_7734_" class="st9" points="458.8,-1320.8 462.9,-1320.9 461.8,-1318.1 457.7,-1318 				"/>
			</g>
		</g>
		<g id="XMLID_7727_" class="st1">
			<g id="XMLID_7728_">
				<path id="XMLID_7729_" class="st9" d="M472-1315.2c-0.4,0.9-0.9,1.7-1.4,2.4c-0.5,0.6-1.1,1.2-1.8,1.6c-0.7,0.5-1.6,0.8-2.6,0.8
					s-1.7-0.2-2.1-0.6s-0.5-1-0.6-1.5c0-0.7,0.1-1.5,0.4-2.3l5-12.8c0.4-0.9,0.8-1.7,1.4-2.3c0.5-0.6,1.1-1.2,1.8-1.7
					c0.7-0.5,1.6-0.8,2.7-0.8c1,0,1.7,0.2,2.1,0.7c0.4,0.4,0.6,1,0.6,1.6c0,0.7-0.1,1.5-0.4,2.3L472-1315.2z M474-1327.9
					c0.2-0.6,0.3-1,0.1-1.3c-0.1-0.1-0.3-0.2-0.5-0.2c-0.5,0-1,0.4-1.2,0.8c-0.2,0.2-0.3,0.5-0.4,0.8l-5,12.8
					c-0.2,0.6-0.3,1-0.1,1.3c0.1,0.1,0.2,0.2,0.5,0.2c0.5,0,0.9-0.4,1.2-0.8c0.2-0.2,0.3-0.5,0.4-0.8L474-1327.9z"/>
			</g>
		</g>
		<g id="XMLID_7724_" class="st1">
			<g id="XMLID_7725_">
				<polygon id="XMLID_7726_" class="st9" points="487.1,-1329.5 482.9,-1329.4 480.7,-1323.7 483.5,-1323.8 482.2,-1320.5 
					479.4,-1320.4 475.7,-1311 472.7,-1310.9 481.1,-1332.5 488.4,-1332.8 				"/>
			</g>
		</g>
		<g id="XMLID_7721_" class="st1">
			<g id="XMLID_7722_">
				<polygon id="XMLID_7723_" class="st9" points="495.9,-1329.8 491.6,-1329.7 489.4,-1324 492.3,-1324.1 491,-1320.8 
					488.2,-1320.7 484.5,-1311.3 481.4,-1311.2 489.9,-1332.8 497.1,-1333.1 				"/>
			</g>
		</g>
		<g id="XMLID_7718_" class="st1">
			<g id="XMLID_7719_">
				<path id="XMLID_7720_" class="st14" d="M436.8-1357c0.2-0.6,0.4-1.2,0.4-1.7s-0.1-0.8-0.5-0.8c-0.6,0-1.1,0.7-1.4,1.7
					c-0.2,0.6-0.2,1.2-0.1,1.8s0.3,1.3,0.5,2c0.2,0.8,0.4,1.7,0.5,2.5s0.1,1.7-0.3,2.6c-0.4,1.1-1,2.2-1.8,3c-0.8,0.8-1.8,1.3-3,1.4
					c-1.5,0-2.1-0.5-2.3-1.4c-0.1-0.9,0.2-2.1,0.7-3.4l2.4-0.3c-0.3,0.7-0.5,1.4-0.5,2c-0.1,0.6,0.1,0.9,0.6,0.9
					c0.7,0,1.2-0.8,1.6-1.9c0.2-0.6,0.2-1.2,0.1-1.9c-0.1-0.3-0.1-0.7-0.2-1c-0.2-0.7-0.4-1.5-0.6-2.3c-0.2-0.8-0.3-1.7-0.2-2.6
					c0-0.4,0.1-0.9,0.3-1.4c0.3-0.9,0.9-1.9,1.7-2.7c0.8-0.8,1.7-1.3,2.8-1.4c1.4-0.1,2,0.5,2.1,1.4s-0.2,2-0.5,3L436.8-1357z"/>
			</g>
		</g>
		<g id="XMLID_7715_" class="st1">
			<g id="XMLID_7716_">
				<polygon id="XMLID_7717_" class="st14" points="440.5,-1359.1 441.4,-1361.6 448.2,-1361.8 447.2,-1359.3 445,-1359.2 
					439.8,-1344.8 437.4,-1344.7 442.7,-1359.1 				"/>
			</g>
		</g>
		<g id="XMLID_7712_" class="st1">
			<g id="XMLID_7713_">
				<path id="XMLID_7714_" class="st14" d="M455.5-1362.1l-4.9,13.5c-0.3,0.7-0.6,1.3-1.1,1.9c-0.4,0.5-0.8,0.9-1.4,1.3
					s-1.2,0.6-2,0.6s-1.3-0.2-1.6-0.5c-0.3-0.3-0.4-0.8-0.5-1.2c0-0.5,0.1-1.1,0.3-1.8l4.9-13.5l2.3-0.1l-4.9,13.5
					c-0.2,0.5-0.2,0.8-0.1,1.1c0.1,0.1,0.2,0.2,0.4,0.2c0.4,0,0.7-0.3,0.9-0.6c0.1-0.2,0.2-0.4,0.3-0.6l4.9-13.5L455.5-1362.1z"/>
			</g>
		</g>
		<g id="XMLID_7707_" class="st1">
			<g id="XMLID_7708_">
				<path id="XMLID_7709_" class="st14" d="M451.2-1345.1l6.2-17l1.8-0.1c2.2-0.1,3.2,0.4,3.3,1.6c0.1,1.3-0.6,3.4-1.8,6.7
					c-1.2,3.3-2.1,5.4-3.1,6.8c-1.1,1.3-2.4,1.8-4.6,1.9L451.2-1345.1z M454.5-1347.7c0.8,0,1.3-0.1,1.8-1c0.3-0.4,0.6-1,0.9-1.8
					s0.7-1.9,1.2-3.3c0.5-1.4,0.9-2.5,1.2-3.3c0.3-0.8,0.4-1.4,0.4-1.8c0.1-0.8-0.4-0.9-1.2-0.9L454.5-1347.7z"/>
			</g>
		</g>
		<g id="XMLID_7704_" class="st1">
			<g id="XMLID_7705_">
				<polygon id="XMLID_7706_" class="st14" points="465.7,-1362.4 471.1,-1362.5 470.1,-1360 467.1,-1359.9 465.5,-1355.4 
					467.7,-1355.5 466.7,-1352.7 464.5,-1352.7 462.8,-1348 465.8,-1348.1 464.9,-1345.5 459.5,-1345.4 				"/>
			</g>
		</g>
		<g id="XMLID_7701_" class="st1">
			<g id="XMLID_7702_">
				<polygon id="XMLID_7703_" class="st14" points="472.1,-1354.5 472.2,-1355.3 472,-1355.3 468.5,-1345.6 466.4,-1345.6 
					472.6,-1362.6 474.7,-1362.6 473.7,-1353.8 473.6,-1353.1 473.7,-1353.1 477.3,-1362.7 479.4,-1362.8 473.2,-1345.8 
					471.1,-1345.7 				"/>
			</g>
		</g>
		<g id="XMLID_7698_" class="st1">
			<g id="XMLID_7699_">
				<polygon id="XMLID_7700_" class="st14" points="479.6,-1360.2 480.5,-1362.8 487.3,-1363 486.3,-1360.4 484.1,-1360.4 
					478.9,-1345.9 476.5,-1345.9 481.8,-1360.3 				"/>
			</g>
		</g>
		<g id="XMLID_7695_" class="st1">
			<g id="XMLID_7696_">
				<path id="XMLID_7697_" class="st9" d="M436.3-1357c0.2-0.6,0.4-1.2,0.4-1.7s-0.1-0.8-0.5-0.8c-0.6,0-1.1,0.7-1.4,1.7
					c-0.2,0.6-0.2,1.2-0.1,1.8s0.3,1.3,0.5,2c0.2,0.8,0.4,1.7,0.5,2.5s0.1,1.7-0.3,2.6c-0.4,1.1-1,2.2-1.8,3c-0.8,0.8-1.8,1.3-3,1.4
					c-1.5,0-2.1-0.5-2.3-1.4c-0.1-0.9,0.2-2.1,0.7-3.4l2.4-0.3c-0.3,0.7-0.5,1.4-0.5,2c-0.1,0.6,0.1,0.9,0.6,0.9
					c0.7,0,1.2-0.8,1.6-1.9c0.2-0.6,0.2-1.2,0.1-1.9c-0.1-0.3-0.1-0.7-0.2-1c-0.2-0.7-0.4-1.5-0.6-2.3c-0.2-0.8-0.3-1.7-0.2-2.6
					c0-0.4,0.1-0.9,0.3-1.4c0.3-0.9,0.9-1.9,1.7-2.7c0.8-0.8,1.7-1.3,2.8-1.4c1.4-0.1,2,0.5,2.1,1.4s-0.2,2-0.5,3L436.3-1357z"/>
			</g>
		</g>
		<g id="XMLID_7692_" class="st1">
			<g id="XMLID_7693_">
				<polygon id="XMLID_7694_" class="st9" points="440,-1359.1 440.9,-1361.7 447.7,-1361.9 446.8,-1359.3 444.5,-1359.2 
					439.3,-1344.8 436.9,-1344.7 442.2,-1359.1 				"/>
			</g>
		</g>
		<g id="XMLID_7689_" class="st1">
			<g id="XMLID_7690_">
				<path id="XMLID_7691_" class="st9" d="M455-1362.1l-4.9,13.5c-0.3,0.7-0.6,1.3-1.1,1.9c-0.4,0.5-0.8,0.9-1.4,1.3s-1.2,0.6-2,0.6
					s-1.3-0.2-1.6-0.5c-0.3-0.3-0.4-0.8-0.5-1.2c0-0.5,0.1-1.1,0.3-1.8l4.9-13.5l2.3-0.1l-4.9,13.5c-0.2,0.5-0.2,0.8-0.1,1.1
					c0.1,0.1,0.2,0.2,0.4,0.2c0.4,0,0.7-0.3,0.9-0.6c0.1-0.2,0.2-0.4,0.3-0.6l4.9-13.5L455-1362.1z"/>
			</g>
		</g>
		<g id="XMLID_7684_" class="st1">
			<g id="XMLID_7685_">
				<path id="XMLID_7686_" class="st9" d="M450.8-1345.1l6.2-17l1.8-0.1c2.2-0.1,3.2,0.4,3.3,1.6c0.1,1.3-0.6,3.4-1.8,6.7
					c-1.2,3.3-2.1,5.4-3.1,6.8c-1.1,1.3-2.4,1.8-4.6,1.9L450.8-1345.1z M454-1347.7c0.8,0,1.3-0.1,1.8-1c0.3-0.4,0.6-1,0.9-1.8
					s0.7-1.9,1.2-3.3c0.5-1.4,0.9-2.5,1.2-3.3c0.3-0.8,0.4-1.4,0.4-1.8c0.1-0.8-0.4-0.9-1.2-0.9L454-1347.7z"/>
			</g>
		</g>
		<g id="XMLID_7681_" class="st1">
			<g id="XMLID_7682_">
				<polygon id="XMLID_7683_" class="st9" points="465.2,-1362.4 470.6,-1362.5 469.6,-1360 466.6,-1359.9 465,-1355.4 
					467.2,-1355.5 466.2,-1352.7 464,-1352.7 462.3,-1348 465.3,-1348.1 464.4,-1345.5 459,-1345.4 				"/>
			</g>
		</g>
		<g id="XMLID_7678_" class="st1">
			<g id="XMLID_7679_">
				<polygon id="XMLID_7680_" class="st9" points="471.6,-1354.5 471.7,-1355.3 471.6,-1355.3 468,-1345.6 465.9,-1345.6 
					472.1,-1362.6 474.2,-1362.6 473.2,-1353.8 473.1,-1353.1 473.2,-1353.1 476.8,-1362.7 478.9,-1362.8 472.7,-1345.8 
					470.6,-1345.7 				"/>
			</g>
		</g>
		<g id="XMLID_7675_" class="st1">
			<g id="XMLID_7676_">
				<polygon id="XMLID_7677_" class="st9" points="479.1,-1360.3 480,-1362.8 486.8,-1363 485.9,-1360.5 483.6,-1360.4 
					478.4,-1345.9 476,-1345.9 481.3,-1360.3 				"/>
			</g>
		</g>
		<g id="XMLID_7672_" class="st1">
			<g id="XMLID_7673_">
				<path id="XMLID_7674_" class="st13" d="M492.1-1364.8c-0.1,0-0.2,0-0.2-0.1c-0.1-0.1-0.1-0.1-0.1-0.2c0-0.1,0-0.1,0.1-0.2
					s0.1-0.1,0.2-0.1s0.2,0,0.2,0.1c0.1,0.1,0.1,0.1,0.1,0.2c0,0.1,0,0.2-0.1,0.2C492.2-1364.8,492.1-1364.8,492.1-1364.8"/>
			</g>
		</g>
		<g id="XMLID_7656_" class="st1">
			<g id="XMLID_7657_">
				<path id="XMLID_7658_" class="st13" d="M491.5-1363.3h-0.1c-0.2-0.1-0.2-0.2-0.2-0.4c0-0.1,0.2-0.2,0.3-0.2h0.1
					c0.2,0.1,0.2,0.2,0.2,0.4C491.7-1363.4,491.6-1363.3,491.5-1363.3 M491-1361.8h-0.1c-0.2-0.1-0.2-0.2-0.2-0.4
					c0-0.1,0.2-0.2,0.3-0.2h0.1c0.2,0.1,0.2,0.2,0.2,0.4C491.2-1361.9,491.1-1361.8,491-1361.8 M490.4-1360.3h-0.1
					c-0.2-0.1-0.2-0.2-0.2-0.4c0-0.1,0.2-0.2,0.3-0.2h0.1c0.2,0.1,0.2,0.2,0.2,0.4C490.6-1360.4,490.5-1360.3,490.4-1360.3
					 M489.9-1358.9h-0.1c-0.2-0.1-0.2-0.2-0.2-0.4c0-0.1,0.2-0.2,0.3-0.2h0.1c0.2,0.1,0.2,0.2,0.2,0.4
					C490.1-1358.9,490-1358.9,489.9-1358.9 M489.3-1357.4h-0.1c-0.2-0.1-0.2-0.2-0.2-0.4c0-0.1,0.2-0.2,0.3-0.2h0.1
					c0.2,0.1,0.2,0.2,0.2,0.4C489.5-1357.5,489.4-1357.4,489.3-1357.4 M488.8-1355.9h-0.1c-0.2-0.1-0.2-0.2-0.2-0.4
					c0-0.1,0.2-0.2,0.3-0.2h0.1c0.2,0.1,0.2,0.2,0.2,0.4C489-1356,488.9-1355.9,488.8-1355.9 M488.2-1354.4h-0.1
					c-0.2-0.1-0.2-0.2-0.2-0.4c0-0.1,0.2-0.2,0.3-0.2h0.1c0.2,0.1,0.2,0.2,0.2,0.4C488.4-1354.5,488.3-1354.4,488.2-1354.4
					 M487.7-1353h-0.1c-0.2-0.1-0.2-0.2-0.2-0.4c0-0.1,0.2-0.2,0.3-0.2h0.1c0.2,0.1,0.2,0.2,0.2,0.4
					C487.9-1353,487.8-1353,487.7-1353 M487.1-1351.5H487c-0.2-0.1-0.2-0.2-0.2-0.4c0-0.1,0.2-0.2,0.3-0.2h0.1
					c0.1,0.1,0.2,0.2,0.2,0.4C487.3-1351.6,487.2-1351.5,487.1-1351.5 M486.6-1350h-0.1c-0.2-0.1-0.2-0.2-0.2-0.4
					c0-0.1,0.2-0.2,0.3-0.2h0.1c0.2,0.1,0.2,0.2,0.2,0.4C486.8-1350.1,486.7-1350,486.6-1350 M486-1348.5h-0.1
					c-0.2-0.1-0.2-0.2-0.2-0.4c0-0.1,0.2-0.2,0.3-0.2h0.1c0.2,0.1,0.2,0.2,0.2,0.4C486.2-1348.6,486.1-1348.5,486-1348.5
					 M485.5-1347.1h-0.1c-0.2-0.1-0.2-0.2-0.2-0.4c0-0.1,0.2-0.2,0.3-0.2h0.1c0.2,0.1,0.2,0.2,0.2,0.4
					C485.7-1347.1,485.6-1347.1,485.5-1347.1 M484.9-1345.6h-0.1c-0.2-0.1-0.2-0.2-0.2-0.4c0-0.1,0.2-0.2,0.3-0.2h0.1
					c0.2,0.1,0.2,0.2,0.2,0.4C485.2-1345.7,485-1345.6,484.9-1345.6"/>
			</g>
		</g>
		<g id="XMLID_7653_" class="st1">
			<g id="XMLID_7654_">
				<path id="XMLID_7655_" class="st13" d="M484.4-1344.1c-0.1,0-0.2,0-0.2-0.1c-0.1-0.1-0.1-0.1-0.1-0.2s0-0.2,0.1-0.2
					c0.1-0.1,0.1-0.1,0.2-0.1s0.2,0,0.2,0.1c0.1,0.1,0.1,0.1,0.1,0.2s0,0.2-0.1,0.2C484.5-1344.1,484.4-1344.1,484.4-1344.1"/>
			</g>
		</g>
		<g id="XMLID_7608_" class="st1">
			<g id="XMLID_7609_">
				<path id="XMLID_7610_" class="st13" d="M482.8-1344.1c-0.2,0-0.3-0.1-0.3-0.3s0.1-0.3,0.3-0.3l0,0c0.2,0,0.3,0.1,0.3,0.3
					C483.1-1344.2,483-1344.1,482.8-1344.1L482.8-1344.1 M481.2-1344c-0.2,0-0.3-0.1-0.3-0.3c0-0.2,0.1-0.3,0.3-0.3l0,0
					c0.2,0,0.3,0.1,0.3,0.3C481.5-1344.2,481.4-1344,481.2-1344L481.2-1344 M479.6-1344c-0.2,0-0.3-0.1-0.3-0.3
					c0-0.2,0.1-0.3,0.3-0.3l0,0c0.2,0,0.3,0.1,0.3,0.3C479.9-1344.1,479.8-1344,479.6-1344L479.6-1344 M478-1343.9
					c-0.2,0-0.3-0.1-0.3-0.3c0-0.2,0.1-0.3,0.3-0.3l0,0c0.2,0,0.3,0.1,0.3,0.3C478.3-1344.1,478.2-1343.9,478-1343.9L478-1343.9
					 M476.4-1343.9c-0.2,0-0.3-0.1-0.3-0.3c0-0.2,0.1-0.3,0.3-0.3l0,0c0.2,0,0.3,0.1,0.3,0.3C476.7-1344,476.6-1343.9,476.4-1343.9
					L476.4-1343.9 M474.8-1343.8c-0.2,0-0.3-0.1-0.3-0.3c0-0.2,0.1-0.3,0.3-0.3l0,0c0.2,0,0.3,0.1,0.3,0.3
					C475.1-1344,475-1343.8,474.8-1343.8L474.8-1343.8 M473.3-1343.8c-0.2,0-0.3-0.1-0.3-0.3c0-0.2,0.1-0.3,0.3-0.3l0,0
					c0.2,0,0.3,0.1,0.3,0.3C473.6-1343.9,473.4-1343.8,473.3-1343.8L473.3-1343.8 M471.7-1343.7c-0.2,0-0.3-0.1-0.3-0.3
					c0-0.2,0.1-0.3,0.3-0.3l0,0c0.2,0,0.3,0.1,0.3,0.3C472-1343.9,471.8-1343.7,471.7-1343.7L471.7-1343.7 M470.1-1343.7
					c-0.2,0-0.3-0.1-0.3-0.3c0-0.2,0.1-0.3,0.3-0.3l0,0c0.2,0,0.3,0.1,0.3,0.3S470.3-1343.7,470.1-1343.7L470.1-1343.7
					 M468.5-1343.6c-0.2,0-0.3-0.1-0.3-0.3s0.1-0.3,0.3-0.3l0,0c0.2,0,0.3,0.1,0.3,0.3C468.8-1343.8,468.7-1343.6,468.5-1343.6
					L468.5-1343.6 M466.9-1343.6c-0.2,0-0.3-0.1-0.3-0.3s0.1-0.3,0.3-0.3l0,0c0.2,0,0.3,0.1,0.3,0.3
					C467.2-1343.7,467.1-1343.6,466.9-1343.6L466.9-1343.6 M465.3-1343.5c-0.2,0-0.3-0.1-0.3-0.3c0-0.2,0.1-0.3,0.3-0.3l0,0
					c0.2,0,0.3,0.1,0.3,0.3C465.6-1343.7,465.5-1343.5,465.3-1343.5L465.3-1343.5 M463.7-1343.5c-0.2,0-0.3-0.1-0.3-0.3
					c0-0.2,0.1-0.3,0.3-0.3l0,0c0.2,0,0.3,0.1,0.3,0.3C464-1343.6,463.9-1343.5,463.7-1343.5L463.7-1343.5 M462.1-1343.4
					c-0.2,0-0.3-0.1-0.3-0.3c0-0.2,0.1-0.3,0.3-0.3l0,0c0.2,0,0.3,0.1,0.3,0.3C462.4-1343.6,462.3-1343.5,462.1-1343.4L462.1-1343.4
					 M460.6-1343.4c-0.2,0-0.3-0.1-0.3-0.3c0-0.2,0.1-0.3,0.3-0.3l0,0c0.2,0,0.3,0.1,0.3,0.3
					C460.9-1343.5,460.7-1343.4,460.6-1343.4L460.6-1343.4 M459-1343.4c-0.2,0-0.3-0.1-0.3-0.3c0-0.2,0.1-0.3,0.3-0.3l0,0
					c0.2,0,0.3,0.1,0.3,0.3C459.3-1343.5,459.1-1343.4,459-1343.4L459-1343.4 M457.4-1343.3c-0.2,0-0.3-0.1-0.3-0.3
					c0-0.2,0.1-0.3,0.3-0.3l0,0c0.2,0,0.3,0.1,0.3,0.3C457.7-1343.4,457.6-1343.3,457.4-1343.3L457.4-1343.3 M455.8-1343.3
					c-0.2,0-0.3-0.1-0.3-0.3c0-0.2,0.1-0.3,0.3-0.3l0,0c0.2,0,0.3,0.1,0.3,0.3C456.1-1343.4,456-1343.3,455.8-1343.3L455.8-1343.3
					 M454.2-1343.2c-0.2,0-0.3-0.1-0.3-0.3c0-0.2,0.1-0.3,0.3-0.3l0,0c0.2,0,0.3,0.1,0.3,0.3
					C454.5-1343.4,454.4-1343.2,454.2-1343.2L454.2-1343.2 M452.6-1343.2c-0.2,0-0.3-0.1-0.3-0.3c0-0.2,0.1-0.3,0.3-0.3l0,0
					c0.2,0,0.3,0.1,0.3,0.3S452.8-1343.2,452.6-1343.2L452.6-1343.2 M451-1343.1c-0.2,0-0.3-0.1-0.3-0.3s0.1-0.3,0.3-0.3l0,0
					c0.2,0,0.3,0.1,0.3,0.3C451.3-1343.3,451.2-1343.1,451-1343.1L451-1343.1 M449.4-1343.1c-0.2,0-0.3-0.1-0.3-0.3s0.1-0.3,0.3-0.3
					l0,0c0.2,0,0.3,0.1,0.3,0.3C449.7-1343.2,449.6-1343.1,449.4-1343.1L449.4-1343.1 M447.9-1343c-0.2,0-0.3-0.1-0.3-0.3
					c0-0.2,0.1-0.3,0.3-0.3l0,0c0.2,0,0.3,0.1,0.3,0.3C448.2-1343.2,448-1343,447.9-1343L447.9-1343 M446.3-1343
					c-0.2,0-0.3-0.1-0.3-0.3c0-0.2,0.1-0.3,0.3-0.3l0,0c0.2,0,0.3,0.1,0.3,0.3C446.6-1343.1,446.4-1343,446.3-1343L446.3-1343
					 M444.7-1342.9c-0.2,0-0.3-0.1-0.3-0.3c0-0.2,0.1-0.3,0.3-0.3l0,0c0.2,0,0.3,0.1,0.3,0.3C445-1343.1,444.9-1342.9,444.7-1342.9
					L444.7-1342.9 M443.1-1342.9c-0.2,0-0.3-0.1-0.3-0.3c0-0.2,0.1-0.3,0.3-0.3l0,0c0.2,0,0.3,0.1,0.3,0.3
					C443.4-1343,443.3-1342.9,443.1-1342.9L443.1-1342.9 M441.5-1342.8c-0.2,0-0.3-0.1-0.3-0.3c0-0.2,0.1-0.3,0.3-0.3l0,0
					c0.2,0,0.3,0.1,0.3,0.3C441.8-1343,441.7-1342.8,441.5-1342.8L441.5-1342.8 M439.9-1342.8c-0.2,0-0.3-0.1-0.3-0.3
					c0-0.2,0.1-0.3,0.3-0.3l0,0c0.2,0,0.3,0.1,0.3,0.3C440.2-1342.9,440.1-1342.8,439.9-1342.8L439.9-1342.8 M438.3-1342.7
					c-0.2,0-0.3-0.1-0.3-0.3c0-0.2,0.1-0.3,0.3-0.3l0,0c0.2,0,0.3,0.1,0.3,0.3C438.6-1342.9,438.5-1342.7,438.3-1342.7L438.3-1342.7
					 M436.7-1342.7c-0.2,0-0.3-0.1-0.3-0.3c0-0.2,0.1-0.3,0.3-0.3l0,0c0.2,0,0.3,0.1,0.3,0.3S436.9-1342.7,436.7-1342.7
					C436.8-1342.7,436.7-1342.7,436.7-1342.7 M435.2-1342.6c-0.2,0-0.3-0.1-0.3-0.3s0.1-0.3,0.3-0.3l0,0c0.2,0,0.3,0.1,0.3,0.3
					C435.5-1342.8,435.3-1342.7,435.2-1342.6L435.2-1342.6 M433.6-1342.6c-0.2,0-0.3-0.1-0.3-0.3s0.1-0.3,0.3-0.3l0,0
					c0.2,0,0.3,0.1,0.3,0.3S433.7-1342.6,433.6-1342.6L433.6-1342.6 M432-1342.6c-0.2,0-0.3-0.1-0.3-0.3s0.1-0.3,0.3-0.3l0,0
					c0.2,0,0.3,0.1,0.3,0.3S432.2-1342.6,432-1342.6L432-1342.6 M430.4-1342.5c-0.2,0-0.3-0.1-0.3-0.3c0-0.2,0.1-0.3,0.3-0.3l0,0
					c0.2,0,0.3,0.1,0.3,0.3C430.7-1342.6,430.6-1342.5,430.4-1342.5L430.4-1342.5 M428.8-1342.5c-0.2,0-0.3-0.1-0.3-0.3
					c0-0.2,0.1-0.3,0.3-0.3l0,0c0.2,0,0.3,0.1,0.3,0.3C429.1-1342.6,429-1342.5,428.8-1342.5L428.8-1342.5 M427.2-1342.4
					c-0.2,0-0.3-0.1-0.3-0.3c0-0.2,0.1-0.3,0.3-0.3l0,0c0.2,0,0.3,0.1,0.3,0.3C427.5-1342.6,427.4-1342.4,427.2-1342.4L427.2-1342.4
					 M425.6-1342.4c-0.2,0-0.3-0.1-0.3-0.3c0-0.2,0.1-0.3,0.3-0.3l0,0c0.2,0,0.3,0.1,0.3,0.3
					C425.9-1342.5,425.8-1342.4,425.6-1342.4L425.6-1342.4 M424-1342.3c-0.2,0-0.3-0.1-0.3-0.3c0-0.2,0.1-0.3,0.3-0.3l0,0
					c0.2,0,0.3,0.1,0.3,0.3C424.4-1342.5,424.2-1342.3,424-1342.3L424-1342.3 M422.5-1342.3c-0.2,0-0.3-0.1-0.3-0.3
					c0-0.2,0.1-0.3,0.3-0.3l0,0c0.2,0,0.3,0.1,0.3,0.3S422.6-1342.3,422.5-1342.3L422.5-1342.3 M420.9-1342.2
					c-0.2,0-0.3-0.1-0.3-0.3c0-0.2,0.1-0.3,0.3-0.3l0,0c0.2,0,0.3,0.1,0.3,0.3C421.2-1342.4,421-1342.2,420.9-1342.2L420.9-1342.2
					 M419.3-1342.2c-0.2,0-0.3-0.1-0.3-0.3c0-0.2,0.1-0.3,0.3-0.3l0,0c0.2,0,0.3,0.1,0.3,0.3
					C419.6-1342.3,419.5-1342.2,419.3-1342.2L419.3-1342.2 M417.7-1342.1c-0.2,0-0.3-0.1-0.3-0.3s0.1-0.3,0.3-0.3l0,0
					c0.2,0,0.3,0.1,0.3,0.3C418-1342.3,417.9-1342.1,417.7-1342.1L417.7-1342.1"/>
			</g>
		</g>
		<g id="XMLID_7605_" class="st1">
			<g id="XMLID_7606_">
				<path id="XMLID_7607_" class="st13" d="M416.1-1342.1c-0.1,0-0.2,0-0.2-0.1c-0.1-0.1-0.1-0.1-0.1-0.2s0-0.2,0.1-0.2
					c0.1-0.1,0.1-0.1,0.2-0.1s0.2,0,0.2,0.1c0.1,0.1,0.1,0.1,0.1,0.2s0,0.2-0.1,0.2C416.3-1342.1,416.2-1342.1,416.1-1342.1"/>
			</g>
		</g>
		<g id="XMLID_7593_" class="st1">
			<g id="XMLID_7594_">
				<path id="XMLID_7595_" class="st13" d="M426-1351.2c-0.1,0-0.2,0-0.2-0.1c-0.1-0.1-0.1-0.3,0-0.4c0.1-0.1,0.1-0.1,0.2-0.1
					s0.2,0,0.2,0.1c0.1,0.1,0.1,0.3,0,0.4C426.2-1351.3,426.1-1351.2,426-1351.2 M424.9-1350.2c-0.1,0-0.2,0-0.2-0.1
					c-0.1-0.1-0.1-0.3,0-0.4c0.1-0.1,0.1-0.1,0.2-0.1s0.2,0,0.2,0.1c0.1,0.1,0.1,0.3,0,0.4C425.1-1350.3,425-1350.2,424.9-1350.2
					 M423.8-1349.2c-0.1,0-0.2,0-0.2-0.1c-0.1-0.1-0.1-0.3,0-0.4c0.1-0.1,0.1-0.1,0.2-0.1s0.2,0,0.2,0.1c0.1,0.1,0.1,0.3,0,0.4
					C424-1349.2,423.9-1349.2,423.8-1349.2 M422.7-1348.2c-0.1,0-0.2,0-0.2-0.1c-0.1-0.1-0.1-0.3,0-0.4c0.1-0.1,0.1-0.1,0.2-0.1
					s0.2,0,0.2,0.1c0.1,0.1,0.1,0.3,0,0.4C422.9-1348.2,422.8-1348.2,422.7-1348.2 M421.6-1347.2c-0.1,0-0.2,0-0.2-0.1
					c-0.1-0.1-0.1-0.3,0-0.4c0.1-0.1,0.1-0.1,0.2-0.1s0.2,0,0.2,0.1c0.1,0.1,0.1,0.3,0,0.4C421.8-1347.2,421.7-1347.2,421.6-1347.2
					 M420.5-1346.2c-0.1,0-0.2,0-0.2-0.1c-0.1-0.1-0.1-0.3,0-0.4c0.1-0.1,0.1-0.1,0.2-0.1s0.2,0,0.2,0.1c0.1,0.1,0.1,0.3,0,0.4
					C420.7-1346.2,420.6-1346.2,420.5-1346.2 M419.4-1345.1c-0.1,0-0.2,0-0.2-0.1c-0.1-0.1-0.1-0.3,0-0.4c0.1-0.1,0.1-0.1,0.2-0.1
					s0.2,0,0.2,0.1c0.1,0.1,0.1,0.3,0,0.4C419.6-1345.2,419.5-1345.1,419.4-1345.1 M418.3-1344.1c-0.1,0-0.2,0-0.2-0.1
					c-0.1-0.1-0.1-0.3,0-0.4c0.1-0.1,0.1-0.1,0.2-0.1s0.2,0,0.2,0.1c0.1,0.1,0.1,0.3,0,0.4C418.5-1344.1,418.4-1344.1,418.3-1344.1
					 M417.2-1343.1c-0.1,0-0.2,0-0.2-0.1c-0.1-0.1-0.1-0.3,0-0.4c0.1-0.1,0.1-0.1,0.2-0.1s0.2,0,0.2,0.1c0.1,0.1,0.1,0.3,0,0.4
					C417.4-1343.1,417.3-1343.1,417.2-1343.1"/>
			</g>
		</g>
		<g id="XMLID_7590_" class="st1">
			<g id="XMLID_7591_">
				<path id="XMLID_7592_" class="st13" d="M427.1-1352.3c-0.1,0-0.2,0-0.2-0.1c-0.1-0.1-0.1-0.1-0.1-0.2c0-0.1,0-0.2,0.1-0.2
					c0.1-0.1,0.1-0.1,0.2-0.1s0.2,0,0.2,0.1c0.1,0.1,0.1,0.1,0.1,0.2c0,0.1,0,0.2-0.1,0.2C427.3-1352.3,427.2-1352.3,427.1-1352.3"
					/>
			</g>
		</g>
		<g id="XMLID_7580_" class="st1">
			<g id="XMLID_7581_">
				<path id="XMLID_7582_" class="st13" d="M421.4-1361.1c-0.1,0-0.2,0-0.2-0.1c-0.1-0.1,0-0.3,0.1-0.4c0.1,0,0.1,0,0.2,0
					s0.2,0,0.2,0.1c0.1,0.1,0.1,0.3-0.1,0.4C421.5-1361.1,421.4-1361.1,421.4-1361.1 M422.2-1359.8c-0.1,0-0.2,0-0.2-0.1
					c-0.1-0.1-0.1-0.3,0.1-0.4c0,0,0.1,0,0.2,0s0.2,0,0.2,0.1c0.1,0.1,0.1,0.3-0.1,0.4C422.3-1359.8,422.3-1359.8,422.2-1359.8
					 M423-1358.6c-0.1,0-0.2,0-0.2-0.1c-0.1-0.1-0.1-0.3,0.1-0.4c0.1,0,0.1,0,0.2,0s0.2,0,0.2,0.1c0.1,0.1,0,0.3-0.1,0.4
					C423.1-1358.6,423.1-1358.6,423-1358.6 M423.8-1357.3c-0.1,0-0.2,0-0.2-0.1c-0.1-0.1-0.1-0.3,0.1-0.4c0,0,0.1,0,0.2,0
					s0.2,0,0.2,0.1c0.1,0.1,0,0.3-0.1,0.4C424-1357.3,423.9-1357.3,423.8-1357.3 M424.7-1356c-0.1,0-0.2,0-0.2-0.1
					c-0.1-0.1-0.1-0.3,0.1-0.4c0,0,0.1,0,0.2,0s0.2,0,0.2,0.1c0.1,0.1,0.1,0.3-0.1,0.4C424.8-1356.1,424.7-1356,424.7-1356
					 M425.5-1354.8c-0.1,0-0.2,0-0.2-0.1c-0.1-0.1-0.1-0.3,0.1-0.4c0.1,0,0.1,0,0.2,0s0.2,0,0.2,0.1c0.1,0.1,0.1,0.3-0.1,0.4
					C425.6-1354.8,425.5-1354.8,425.5-1354.8 M426.3-1353.5c-0.1,0-0.2,0-0.2-0.1c-0.1-0.1-0.1-0.3,0.1-0.4c0,0,0.1,0,0.2,0
					s0.2,0,0.2,0.1c0.1,0.1,0.1,0.3-0.1,0.4C426.4-1353.5,426.4-1353.5,426.3-1353.5"/>
			</g>
		</g>
		<g id="XMLID_7577_" class="st1">
			<g id="XMLID_7578_">
				<path id="XMLID_7579_" class="st13" d="M420.6-1362.3c-0.1,0-0.2,0-0.2-0.1c-0.1-0.1-0.1-0.1-0.1-0.2c0-0.1,0-0.2,0.1-0.2
					c0.1-0.1,0.1-0.1,0.2-0.1s0.2,0,0.2,0.1c0.1,0.1,0.1,0.1,0.1,0.2c0,0.1,0,0.2-0.1,0.2S420.6-1362.3,420.6-1362.3"/>
			</g>
		</g>
		<g id="XMLID_7529_" class="st1">
			<g id="XMLID_7530_">
				<path id="XMLID_7531_" class="st13" d="M490.5-1364.7c-0.2,0-0.3-0.1-0.3-0.3c0-0.2,0.1-0.3,0.3-0.3l0,0c0.2,0,0.3,0.1,0.3,0.3
					C490.8-1364.8,490.7-1364.7,490.5-1364.7L490.5-1364.7 M489-1364.7c-0.2,0-0.3-0.1-0.3-0.3c0-0.2,0.1-0.3,0.3-0.3l0,0
					c0.2,0,0.3,0.1,0.3,0.3C489.3-1364.8,489.1-1364.7,489-1364.7L489-1364.7 M487.4-1364.6c-0.2,0-0.3-0.1-0.3-0.3s0.1-0.3,0.3-0.3
					l0,0c0.2,0,0.3,0.1,0.3,0.3C487.7-1364.7,487.6-1364.6,487.4-1364.6L487.4-1364.6 M485.8-1364.5c-0.2,0-0.3-0.1-0.3-0.3
					c0-0.2,0.1-0.3,0.3-0.3l0,0c0.2,0,0.3,0.1,0.3,0.3C486.1-1364.7,486-1364.5,485.8-1364.5L485.8-1364.5 M484.3-1364.5
					c-0.2,0-0.3-0.1-0.3-0.3c0-0.2,0.1-0.3,0.3-0.3l0,0c0.2,0,0.3,0.1,0.3,0.3C484.6-1364.6,484.5-1364.5,484.3-1364.5L484.3-1364.5
					 M482.7-1364.4c-0.2,0-0.3-0.1-0.3-0.3c0-0.2,0.1-0.3,0.3-0.3l0,0c0.2,0,0.3,0.1,0.3,0.3C483-1364.6,482.9-1364.4,482.7-1364.4
					L482.7-1364.4 M481.2-1364.4c-0.2,0-0.3-0.1-0.3-0.3c0-0.2,0.1-0.3,0.3-0.3l0,0c0.2,0,0.3,0.1,0.3,0.3
					C481.5-1364.5,481.4-1364.4,481.2-1364.4L481.2-1364.4 M479.6-1364.3c-0.2,0-0.3-0.1-0.3-0.3c0-0.2,0.1-0.3,0.3-0.3l0,0
					c0.2,0,0.3,0.1,0.3,0.3C479.9-1364.5,479.8-1364.3,479.6-1364.3L479.6-1364.3 M478.1-1364.3c-0.2,0-0.3-0.1-0.3-0.3
					c0-0.2,0.1-0.3,0.3-0.3l0,0c0.2,0,0.3,0.1,0.3,0.3C478.4-1364.4,478.2-1364.3,478.1-1364.3L478.1-1364.3 M476.5-1364.2
					c-0.2,0-0.3-0.1-0.3-0.3c0-0.2,0.1-0.3,0.3-0.3l0,0c0.2,0,0.3,0.1,0.3,0.3C476.8-1364.4,476.7-1364.2,476.5-1364.2L476.5-1364.2
					 M475-1364.2c-0.2,0-0.3-0.1-0.3-0.3c0-0.2,0.1-0.3,0.3-0.3l0,0c0.2,0,0.3,0.1,0.3,0.3C475.3-1364.3,475.1-1364.2,475-1364.2
					L475-1364.2 M473.4-1364.1c-0.2,0-0.3-0.1-0.3-0.3s0.1-0.3,0.3-0.3l0,0c0.2,0,0.3,0.1,0.3,0.3
					C473.7-1364.3,473.6-1364.1,473.4-1364.1L473.4-1364.1 M471.9-1364.1c-0.2,0-0.3-0.1-0.3-0.3s0.1-0.3,0.3-0.3l0,0
					c0.2,0,0.3,0.1,0.3,0.3C472.2-1364.2,472-1364.1,471.9-1364.1L471.9-1364.1 M470.3-1364c-0.2,0-0.3-0.1-0.3-0.3
					c0-0.2,0.1-0.3,0.3-0.3l0,0c0.2,0,0.3,0.1,0.3,0.3C470.6-1364.2,470.5-1364,470.3-1364L470.3-1364 M468.7-1364
					c-0.2,0-0.3-0.1-0.3-0.3c0-0.2,0.1-0.3,0.3-0.3l0,0c0.2,0,0.3,0.1,0.3,0.3C469-1364.1,468.9-1364,468.7-1364L468.7-1364
					 M467.2-1363.9c-0.2,0-0.3-0.1-0.3-0.3c0-0.2,0.1-0.3,0.3-0.3l0,0c0.2,0,0.3,0.1,0.3,0.3
					C467.5-1364.1,467.4-1363.9,467.2-1363.9L467.2-1363.9 M465.6-1363.9c-0.2,0-0.3-0.1-0.3-0.3c0-0.2,0.1-0.3,0.3-0.3l0,0
					c0.2,0,0.3,0.1,0.3,0.3C465.9-1364,465.8-1363.9,465.6-1363.9L465.6-1363.9 M464.1-1363.8c-0.2,0-0.3-0.1-0.3-0.3
					c0-0.2,0.1-0.3,0.3-0.3l0,0c0.2,0,0.3,0.1,0.3,0.3C464.4-1364,464.3-1363.8,464.1-1363.8L464.1-1363.8 M462.5-1363.8
					c-0.2,0-0.3-0.1-0.3-0.3c0-0.2,0.1-0.3,0.3-0.3l0,0c0.2,0,0.3,0.1,0.3,0.3C462.8-1363.9,462.7-1363.8,462.5-1363.8L462.5-1363.8
					 M461-1363.7c-0.2,0-0.3-0.1-0.3-0.3c0-0.2,0.1-0.3,0.3-0.3l0,0c0.2,0,0.3,0.1,0.3,0.3C461.3-1363.8,461.1-1363.7,461-1363.7
					L461-1363.7 M459.4-1363.7c-0.2,0-0.3-0.1-0.3-0.3c0-0.2,0.1-0.3,0.3-0.3l0,0c0.2,0,0.3,0.1,0.3,0.3
					C459.7-1363.8,459.6-1363.7,459.4-1363.7L459.4-1363.7 M457.9-1363.6c-0.2,0-0.3-0.1-0.3-0.3s0.1-0.3,0.3-0.3l0,0
					c0.2,0,0.3,0.1,0.3,0.3C458.2-1363.7,458-1363.6,457.9-1363.6L457.9-1363.6 M456.3-1363.5c-0.2,0-0.3-0.1-0.3-0.3
					c0-0.2,0.1-0.3,0.3-0.3l0,0c0.2,0,0.3,0.1,0.3,0.3C456.6-1363.7,456.5-1363.6,456.3-1363.5L456.3-1363.5 M454.8-1363.5
					c-0.2,0-0.3-0.1-0.3-0.3c0-0.2,0.1-0.3,0.3-0.3l0,0c0.2,0,0.3,0.1,0.3,0.3C455.1-1363.6,454.9-1363.5,454.8-1363.5L454.8-1363.5
					 M453.2-1363.4c-0.2,0-0.3-0.1-0.3-0.3c0-0.2,0.1-0.3,0.3-0.3l0,0c0.2,0,0.3,0.1,0.3,0.3
					C453.5-1363.6,453.4-1363.4,453.2-1363.4L453.2-1363.4 M451.6-1363.4c-0.2,0-0.3-0.1-0.3-0.3c0-0.2,0.1-0.3,0.3-0.3l0,0
					c0.2,0,0.3,0.1,0.3,0.3C451.9-1363.5,451.8-1363.4,451.6-1363.4L451.6-1363.4 M450.1-1363.3c-0.2,0-0.3-0.1-0.3-0.3
					c0-0.2,0.1-0.3,0.3-0.3l0,0c0.2,0,0.3,0.1,0.3,0.3C450.4-1363.5,450.3-1363.3,450.1-1363.3L450.1-1363.3 M448.5-1363.3
					c-0.2,0-0.3-0.1-0.3-0.3c0-0.2,0.1-0.3,0.3-0.3l0,0c0.2,0,0.3,0.1,0.3,0.3C448.8-1363.4,448.7-1363.3,448.5-1363.3L448.5-1363.3
					 M447-1363.2c-0.2,0-0.3-0.1-0.3-0.3c0-0.2,0.1-0.3,0.3-0.3l0,0c0.2,0,0.3,0.1,0.3,0.3C447.3-1363.4,447.2-1363.2,447-1363.2
					L447-1363.2 M445.4-1363.2c-0.2,0-0.3-0.1-0.3-0.3c0-0.2,0.1-0.3,0.3-0.3l0,0c0.2,0,0.3,0.1,0.3,0.3
					C445.7-1363.3,445.6-1363.2,445.4-1363.2L445.4-1363.2 M443.9-1363.1c-0.2,0-0.3-0.1-0.3-0.3s0.1-0.3,0.3-0.3l0,0
					c0.2,0,0.3,0.1,0.3,0.3C444.2-1363.3,444-1363.1,443.9-1363.1L443.9-1363.1 M442.3-1363.1c-0.2,0-0.3-0.1-0.3-0.3
					s0.1-0.3,0.3-0.3l0,0c0.2,0,0.3,0.1,0.3,0.3C442.6-1363.2,442.5-1363.1,442.3-1363.1L442.3-1363.1 M440.8-1363
					c-0.2,0-0.3-0.1-0.3-0.3c0-0.2,0.1-0.3,0.3-0.3l0,0c0.2,0,0.3,0.1,0.3,0.3C441.1-1363.2,440.9-1363,440.8-1363L440.8-1363
					 M439.2-1363c-0.2,0-0.3-0.1-0.3-0.3c0-0.2,0.1-0.3,0.3-0.3l0,0c0.2,0,0.3,0.1,0.3,0.3C439.5-1363.1,439.4-1363,439.2-1363
					L439.2-1363 M437.7-1362.9c-0.2,0-0.3-0.1-0.3-0.3c0-0.2,0.1-0.3,0.3-0.3l0,0c0.2,0,0.3,0.1,0.3,0.3
					C438-1363.1,437.8-1362.9,437.7-1362.9L437.7-1362.9 M436.1-1362.9c-0.2,0-0.3-0.1-0.3-0.3c0-0.2,0.1-0.3,0.3-0.3l0,0
					c0.2,0,0.3,0.1,0.3,0.3C436.4-1363,436.3-1362.9,436.1-1362.9L436.1-1362.9 M434.5-1362.8c-0.2,0-0.3-0.1-0.3-0.3
					c0-0.2,0.1-0.3,0.3-0.3l0,0c0.2,0,0.3,0.1,0.3,0.3C434.8-1362.9,434.7-1362.8,434.5-1362.8L434.5-1362.8 M433-1362.8
					c-0.2,0-0.3-0.1-0.3-0.3c0-0.2,0.1-0.3,0.3-0.3l0,0c0.2,0,0.3,0.1,0.3,0.3C433.3-1362.9,433.2-1362.8,433-1362.8L433-1362.8
					 M431.4-1362.7c-0.2,0-0.3-0.1-0.3-0.3c0-0.2,0.1-0.3,0.3-0.3l0,0c0.2,0,0.3,0.1,0.3,0.3
					C431.7-1362.8,431.6-1362.7,431.4-1362.7L431.4-1362.7 M429.9-1362.7c-0.2,0-0.3-0.1-0.3-0.3c0-0.2,0.1-0.3,0.3-0.3l0,0
					c0.2,0,0.3,0.1,0.3,0.3C430.2-1362.8,430.1-1362.7,429.9-1362.7L429.9-1362.7 M428.3-1362.6c-0.2,0-0.3-0.1-0.3-0.3
					s0.1-0.3,0.3-0.3l0,0c0.2,0,0.3,0.1,0.3,0.3C428.6-1362.7,428.5-1362.6,428.3-1362.6L428.3-1362.6 M426.8-1362.5
					c-0.2,0-0.3-0.1-0.3-0.3c0-0.2,0.1-0.3,0.3-0.3l0,0c0.2,0,0.3,0.1,0.3,0.3C427.1-1362.7,426.9-1362.6,426.8-1362.5L426.8-1362.5
					 M425.2-1362.5c-0.2,0-0.3-0.1-0.3-0.3c0-0.2,0.1-0.3,0.3-0.3l0,0c0.2,0,0.3,0.1,0.3,0.3
					C425.5-1362.6,425.4-1362.5,425.2-1362.5L425.2-1362.5 M423.7-1362.4c-0.2,0-0.3-0.1-0.3-0.3c0-0.2,0.1-0.3,0.3-0.3l0,0
					c0.2,0,0.3,0.1,0.3,0.3C424-1362.6,423.8-1362.4,423.7-1362.4L423.7-1362.4 M422.1-1362.4c-0.2,0-0.3-0.1-0.3-0.3
					c0-0.2,0.1-0.3,0.3-0.3l0,0c0.2,0,0.3,0.1,0.3,0.3C422.4-1362.5,422.3-1362.4,422.1-1362.4L422.1-1362.4"/>
			</g>
		</g>
		<g id="XMLID_7526_" class="st1">
			<g id="XMLID_7527_">
				<polygon id="XMLID_7528_" class="st12" points="419.1,-1260.6 414.7,-1257.6 419.4,-1271.2 415.4,-1269.2 420.3,-1287.3 
					438.3,-1288.2 450.5,-1274.9 438.9,-1258.4 437.7,-1262.8 430.5,-1250.4 430,-1255.6 416,-1239.7 				"/>
			</g>
		</g>
		<g id="XMLID_7521_" class="st1">
			<g id="XMLID_7522_">
				<path id="XMLID_7523_" class="st12" d="M438-1287.4l11.5,12.6l-10.3,14.6l-1.2-4.5l-7,11.9l-0.5-4.7l-13.4,15.3l2.9-20.1
					l-3.9,2.7l4.6-13.1l-4.2,2l4.3-15.9L438-1287.4z M438.6-1289h-0.7l-17.1,0.8l-1.1,0.1l-5.6,20.3l3.1-1.5l0.8-0.4l-4.9,14
					l4.9-3.4l-3.2,21.8l14.5-16.6l0.6,5.9l7.5-12.8l1.1,4.1l12.9-18.4L438.6-1289z"/>
			</g>
		</g>
		<g id="XMLID_7518_" class="st1">
			<g id="XMLID_7519_">
				<polygon id="XMLID_7520_" class="st8" points="450.4,-1276.1 439.3,-1260.4 438.1,-1265 431.1,-1253 430.7,-1257.7 
					417.3,-1242.4 420.2,-1262.5 416.4,-1259.8 420.9,-1272.9 416.7,-1270.8 421.3,-1288.2 438.7,-1289 				"/>
			</g>
		</g>
		<g id="XMLID_7515_" class="st1">
			<g id="XMLID_7516_">
				<polygon id="XMLID_7517_" class="st9" points="445.4,-1277.1 437.7,-1286.7 425.6,-1286 422.1,-1273.8 425.8,-1275.5 
					421.5,-1262.6 425,-1265.4 422.8,-1254.3 429.8,-1263.1 430.3,-1259.5 437,-1270.3 438.1,-1266.5 				"/>
			</g>
		</g>
	</g>
	<path class="st15" d="M243.2-1322.3h-85.3c-6.6,0-12-5.4-12-12v-44.8c0-6.6,5.4-12,12-12h85.2c6.6,0,12,5.4,12,12v44.8
		C255.2-1327.7,249.8-1322.3,243.2-1322.3z"/>
	<path class="st15" d="M243.2-1252.8h-85.3c-6.6,0-12-5.4-12-12v-44.8c0-6.6,5.4-12,12-12h85.2c6.6,0,12,5.4,12,12v44.8
		C255.2-1258.2,249.8-1252.8,243.2-1252.8z"/>
	<path class="st15" d="M369.6-1322.3h-85.2c-6.6,0-12-5.4-12-12v-44.8c0-6.6,5.4-12,12-12h85.2c6.6,0,12,5.4,12,12v44.8
		C381.6-1327.7,376.2-1322.3,369.6-1322.3z"/>
	<path class="st15" d="M369.6-1252.8h-85.2c-6.6,0-12-5.4-12-12v-44.8c0-6.6,5.4-12,12-12h85.2c6.6,0,12,5.4,12,12v44.8
		C381.6-1258.2,376.2-1252.8,369.6-1252.8z"/>
	<path class="st15" d="M634-1322.2h-85.2c-6.6,0-12-5.4-12-12v-44.8c0-6.6,5.4-12,12-12H634c6.6,0,12,5.4,12,12v44.8
		C646-1327.6,640.6-1322.2,634-1322.2z"/>
	<path class="st15" d="M634-1252.7h-85.2c-6.6,0-12-5.4-12-12v-44.8c0-6.6,5.4-12,12-12H634c6.6,0,12,5.4,12,12v44.8
		C646-1258.1,640.6-1252.7,634-1252.7z"/>
	<path class="st15" d="M763.7-1322.2h-85.2c-6.6,0-12-5.4-12-12v-45.6c0-6.2,5-11.1,11.1-11.1h86.1c6.6,0,12,5.4,12,12v44.8
		C775.7-1327.6,770.3-1322.2,763.7-1322.2z"/>
	<path class="st15" d="M763.7-1252.7h-85.2c-6.6,0-12-5.4-12-12v-44.8c0-6.6,5.4-12,12-12h85.2c6.6,0,12,5.4,12,12v44.8
		C775.7-1258.1,770.3-1252.7,763.7-1252.7z"/>
	<g>
		<path class="st15" d="M670-1408.2c0-0.4,0-0.9-0.1-1.3s-0.3-0.6-0.6-0.6c-0.5,0-0.7,0.5-0.7,1.3c0,0.4,0.2,0.9,0.5,1.4
			s0.7,1,1,1.6c0.4,0.7,0.9,1.3,1.2,2c0.3,0.7,0.6,1.3,0.6,2c0,0.9-0.1,1.7-0.6,2.3c-0.4,0.6-1.1,1-2.1,1c-1.2,0-1.9-0.5-2.3-1.2
			c-0.4-0.7-0.5-1.7-0.5-2.6l1.9-0.2c0,0.6,0,1.1,0.2,1.5c0.1,0.4,0.3,0.7,0.7,0.7c0.6,0,0.8-0.6,0.8-1.4c0-0.4-0.2-0.9-0.5-1.4
			c-0.2-0.2-0.3-0.5-0.5-0.8c-0.4-0.5-0.8-1.1-1.2-1.8c-0.4-0.7-0.7-1.3-0.9-2c-0.1-0.3-0.2-0.7-0.2-1c0-0.7,0.2-1.5,0.6-2.1
			c0.4-0.6,1-1,1.9-1c1.2,0,1.8,0.5,2.2,1.2c0.4,0.7,0.5,1.6,0.5,2.3L670-1408.2z"/>
		<path class="st15" d="M672.9-1411.7h4.4v2h-2.5v3.4h1.8v2.1h-1.8v3.6h2.5v2h-4.4V-1411.7z"/>
		<path class="st15" d="M683.4-1403.2v1.8c0,0.5-0.1,1-0.3,1.4s-0.4,0.7-0.8,1c-0.4,0.3-0.8,0.4-1.5,0.4c-0.6,0-1.1-0.2-1.5-0.4
			c-0.4-0.3-0.6-0.6-0.7-1c-0.2-0.4-0.3-0.9-0.3-1.4v-7.7c0-0.5,0.1-1,0.3-1.4s0.4-0.7,0.7-1c0.4-0.3,0.9-0.4,1.5-0.4
			s1.1,0.2,1.5,0.4c0.4,0.3,0.6,0.6,0.8,1s0.3,0.9,0.3,1.4v1.8h-1.8v-1.8c0-0.4-0.1-0.6-0.3-0.8c-0.1-0.1-0.2-0.1-0.4-0.1
			c-0.3,0-0.5,0.2-0.6,0.5c-0.1,0.1-0.1,0.3-0.1,0.5v7.7c0,0.4,0.1,0.6,0.3,0.8c0.1,0.1,0.2,0.1,0.4,0.1c0.4,0,0.6-0.2,0.7-0.5
			c0.1-0.1,0.1-0.3,0.1-0.5v-1.8H683.4z"/>
		<path class="st15" d="M689.5-1401.4c0,0.5-0.1,1-0.3,1.4s-0.4,0.7-0.8,1c-0.4,0.3-0.8,0.4-1.5,0.4c-0.6,0-1.1-0.2-1.5-0.4
			c-0.4-0.3-0.6-0.6-0.7-1c-0.2-0.4-0.3-0.9-0.3-1.4v-7.7c0-0.5,0.1-1,0.3-1.4s0.4-0.7,0.7-1c0.4-0.3,0.9-0.4,1.5-0.4
			s1.1,0.2,1.5,0.4c0.4,0.3,0.6,0.6,0.8,1s0.3,0.9,0.3,1.4V-1401.4z M687.6-1409.1c0-0.4-0.1-0.6-0.2-0.8c-0.1-0.1-0.2-0.1-0.4-0.1
			c-0.3,0-0.5,0.2-0.6,0.5c-0.1,0.1-0.1,0.3-0.1,0.5v7.7c0,0.4,0.1,0.6,0.3,0.8c0.1,0.1,0.2,0.1,0.4,0.1c0.3,0,0.5-0.2,0.6-0.5
			c0.1-0.1,0.1-0.3,0.1-0.5L687.6-1409.1L687.6-1409.1z"/>
		<path class="st15" d="M692.8-1405.5l-0.2-0.6h-0.1v7.4h-1.8v-13h1.7l1.9,6.8l0.2,0.6h0.1v-7.4h1.8v13h-1.7L692.8-1405.5z"/>
		<path class="st15" d="M697.8-1398.7v-13h1.5c1.8,0,2.7,0.4,3.2,1.3c0.5,1,0.6,2.6,0.6,5.2c0,2.6-0.1,4.2-0.6,5.2s-1.5,1.3-3.2,1.3
			H697.8z M699.7-1400.6c0.7,0,1-0.1,1.2-0.7c0.1-0.3,0.2-0.8,0.2-1.4c0-0.6,0-1.5,0-2.5c0-1.1,0-1.9,0-2.5c0-0.6-0.1-1.1-0.2-1.4
			c-0.2-0.6-0.6-0.7-1.2-0.7V-1400.6z"/>
		<path class="st15" d="M707.6-1408.2c0-0.4,0-0.9-0.1-1.3s-0.3-0.6-0.6-0.6c-0.5,0-0.7,0.5-0.7,1.3c0,0.4,0.2,0.9,0.5,1.4
			s0.7,1,1,1.6c0.4,0.7,0.9,1.3,1.2,2c0.3,0.7,0.6,1.3,0.6,2c0,0.9-0.1,1.7-0.6,2.3c-0.4,0.6-1.1,1-2.1,1c-1.2,0-1.9-0.5-2.3-1.2
			c-0.4-0.7-0.5-1.7-0.5-2.6l1.9-0.2c0,0.6,0,1.1,0.2,1.5c0.1,0.4,0.3,0.7,0.7,0.7c0.6,0,0.8-0.6,0.8-1.4c0-0.4-0.2-0.9-0.5-1.4
			c-0.2-0.2-0.3-0.5-0.5-0.8c-0.4-0.5-0.8-1.1-1.2-1.8c-0.4-0.7-0.7-1.3-0.9-2c-0.1-0.3-0.2-0.7-0.2-1c0-0.7,0.2-1.5,0.6-2.1
			c0.4-0.6,1-1,1.9-1c1.2,0,1.8,0.5,2.2,1.2c0.4,0.7,0.5,1.6,0.5,2.3L707.6-1408.2z"/>
	</g>
	<g>
		<path class="st15" d="M146.6-1398.8v-13.1h1.5c1.8,0,2.7,0.4,3.2,1.3c0.5,1,0.6,2.6,0.6,5.2s-0.1,4.2-0.6,5.2s-1.5,1.3-3.2,1.3
			L146.6-1398.8L146.6-1398.8z M148.5-1400.7c0.7,0,1-0.1,1.2-0.7c0.1-0.3,0.2-0.8,0.2-1.4s0-1.5,0-2.5c0-1.1,0-1.9,0-2.5
			c0-0.6-0.1-1.1-0.2-1.4c-0.2-0.6-0.6-0.7-1.2-0.7V-1400.7z"/>
		<path class="st15" d="M152.7-1398.8l2-13.1h2.3l2,13.1h-1.9l-0.4-2.7h-1.8l-0.4,2.7H152.7z M156-1407.6l-0.1-0.3h-0.1l-0.1,0.3
			l-0.6,4.1h1.3L156-1407.6z"/>
		<path class="st15" d="M161.7-1407.7l0.1,0.1l0,0l0.1-0.1l1-4.2h1.9l-2,7.5v5.6h-1.9v-5.6l-2-7.5h1.9L161.7-1407.7z"/>
		<path class="st15" d="M168.7-1408.4c0-0.4,0-0.9-0.1-1.3c-0.1-0.4-0.3-0.6-0.6-0.6c-0.5,0-0.7,0.5-0.7,1.3c0,0.4,0.2,0.9,0.5,1.4
			c0.3,0.5,0.7,1,1,1.6c0.4,0.7,0.9,1.3,1.2,2c0.3,0.7,0.6,1.3,0.6,2c0,0.9-0.1,1.7-0.6,2.3c-0.4,0.6-1.1,1-2.1,1
			c-1.2,0-1.9-0.5-2.3-1.2s-0.5-1.7-0.5-2.6l1.9-0.2c0,0.6,0,1.1,0.2,1.5c0.1,0.4,0.3,0.7,0.7,0.7c0.6,0,0.8-0.6,0.8-1.4
			c0-0.4-0.2-0.9-0.5-1.4c-0.2-0.2-0.3-0.5-0.5-0.8c-0.4-0.5-0.8-1.1-1.2-1.8c-0.4-0.7-0.7-1.3-0.9-2c-0.1-0.3-0.2-0.7-0.2-1
			c0-0.7,0.2-1.5,0.6-2.1c0.4-0.6,1-1,1.9-1c1.2,0,1.8,0.5,2.2,1.2c0.4,0.7,0.5,1.6,0.5,2.3L168.7-1408.4z"/>
	</g>
	<g>
		<path class="st15" d="M277.6-1404.5h-1.5v5.7h-1.9v-13.1h1.9v5.4h1.5v-5.4h1.9v13.1h-1.9V-1404.5z"/>
		<path class="st15" d="M285.9-1401.5c0,0.5-0.1,1-0.3,1.4c-0.2,0.4-0.4,0.7-0.8,1c-0.4,0.3-0.8,0.4-1.5,0.4c-0.6,0-1.1-0.2-1.5-0.4
			c-0.4-0.3-0.6-0.6-0.7-1c-0.2-0.4-0.3-0.9-0.3-1.4v-7.7c0-0.5,0.1-1,0.3-1.4c0.2-0.4,0.4-0.7,0.7-1c0.4-0.3,0.9-0.4,1.5-0.4
			s1.1,0.2,1.5,0.4c0.4,0.3,0.6,0.6,0.8,1c0.2,0.4,0.3,0.9,0.3,1.4V-1401.5z M284-1409.2c0-0.4-0.1-0.6-0.2-0.8
			c-0.1-0.1-0.2-0.1-0.4-0.1c-0.3,0-0.5,0.2-0.6,0.5c-0.1,0.1-0.1,0.3-0.1,0.5v7.7c0,0.4,0.1,0.6,0.3,0.8c0.1,0.1,0.2,0.1,0.4,0.1
			c0.3,0,0.5-0.2,0.6-0.5c0.1-0.1,0.1-0.3,0.1-0.5v-7.7H284z"/>
		<path class="st15" d="M292.3-1411.9v10.4c0,0.5-0.1,1-0.3,1.4c-0.2,0.4-0.4,0.7-0.8,1c-0.4,0.3-0.8,0.4-1.5,0.4
			c-0.7,0-1.1-0.2-1.5-0.4c-0.4-0.3-0.6-0.6-0.7-1c-0.2-0.4-0.3-0.9-0.3-1.4v-10.4h1.9v10.4c0,0.4,0.1,0.6,0.3,0.8
			c0.1,0.1,0.2,0.1,0.4,0.1c0.3,0,0.5-0.2,0.6-0.5c0.1-0.1,0.1-0.3,0.1-0.5v-10.4L292.3-1411.9L292.3-1411.9z"/>
		<path class="st15" d="M297.2-1398.8l-1-5.5h-0.5v5.5h-1.9v-13.1h1.9c2.3,0,3.3,1.3,3.3,3.8c0,1.3-0.3,2.5-1.1,3l1.2,6.3H297.2z
			 M295.6-1406.1c0.3,0,0.6,0,0.9-0.3c0.3-0.2,0.5-0.7,0.5-1.7c0-0.9-0.2-1.4-0.5-1.7c-0.3-0.2-0.6-0.3-0.9-0.3V-1406.1z"/>
		<path class="st15" d="M303.3-1408.4c0-0.4,0-0.9-0.1-1.3c-0.1-0.4-0.3-0.6-0.6-0.6c-0.5,0-0.7,0.5-0.7,1.3c0,0.4,0.2,0.9,0.5,1.4
			c0.3,0.5,0.7,1,1,1.6c0.4,0.7,0.9,1.3,1.2,2c0.3,0.7,0.6,1.3,0.6,2c0,0.9-0.1,1.7-0.6,2.3c-0.4,0.6-1.1,1-2.1,1
			c-1.2,0-1.9-0.5-2.3-1.2s-0.5-1.7-0.5-2.6l1.9-0.2c0,0.6,0,1.1,0.2,1.5c0.1,0.4,0.3,0.7,0.7,0.7c0.6,0,0.8-0.6,0.8-1.4
			c0-0.4-0.2-0.9-0.5-1.4c-0.2-0.2-0.3-0.5-0.5-0.8c-0.4-0.5-0.8-1.1-1.2-1.8s-0.7-1.3-0.9-2c-0.1-0.3-0.2-0.7-0.2-1
			c0-0.7,0.2-1.5,0.6-2.1s1-1,1.9-1c1.2,0,1.8,0.5,2.2,1.2c0.4,0.7,0.5,1.6,0.5,2.3L303.3-1408.4z"/>
	</g>
	<g>
		<path class="st15" d="M543.4-1398.7l-1.2-8.2l-0.1-0.6H542v8.8h-1.8v-13h2.3l1.1,6l0.1,0.7l0,0l0.1-0.7l1.1-6h2.3v13h-1.8v-8.8
			h-0.1l-0.1,0.6l-1.2,8.2H543.4z"/>
		<path class="st15" d="M548.8-1411.7h1.9v13h-1.9V-1411.7z"/>
		<path class="st15" d="M554.2-1405.5l-0.2-0.6h-0.1v7.4h-1.8v-13h1.7l1.9,6.8l0.2,0.6h0.1v-7.4h1.8v13h-1.7L554.2-1405.5z"/>
		<path class="st15" d="M564.3-1411.7v10.4c0,0.5-0.1,1-0.3,1.4c-0.2,0.4-0.4,0.7-0.8,1c-0.4,0.3-0.8,0.4-1.5,0.4s-1.1-0.2-1.5-0.4
			c-0.4-0.3-0.6-0.6-0.7-1c-0.2-0.4-0.3-0.9-0.3-1.4v-10.4h1.9v10.4c0,0.4,0.1,0.6,0.3,0.8c0.1,0.1,0.2,0.1,0.4,0.1
			c0.3,0,0.5-0.2,0.6-0.5c0.1-0.1,0.1-0.3,0.1-0.5v-10.3H564.3z"/>
		<path class="st15" d="M565-1409.8v-2h5.5v2h-1.8v11.1h-1.9v-11.1H565z"/>
		<path class="st15" d="M571.3-1411.7h4.4v2h-2.5v3.4h1.8v2.1h-1.8v3.6h2.5v2h-4.4V-1411.7z"/>
		<path class="st15" d="M579.9-1408.2c0-0.4,0-0.9-0.1-1.3c-0.1-0.4-0.3-0.6-0.6-0.6c-0.5,0-0.7,0.5-0.7,1.3c0,0.4,0.2,0.9,0.5,1.4
			s0.7,1,1,1.6c0.4,0.7,0.9,1.3,1.2,2c0.3,0.7,0.6,1.3,0.6,2c0,0.9-0.1,1.7-0.6,2.3c-0.4,0.6-1.1,1-2.1,1c-1.2,0-1.9-0.5-2.3-1.2
			c-0.4-0.7-0.5-1.7-0.5-2.6l1.9-0.2c0,0.6,0,1.1,0.2,1.5c0.1,0.4,0.3,0.7,0.7,0.7c0.6,0,0.8-0.6,0.8-1.4c0-0.4-0.2-0.9-0.5-1.4
			c-0.2-0.2-0.3-0.5-0.5-0.8c-0.4-0.5-0.8-1.1-1.2-1.8c-0.4-0.7-0.7-1.3-0.9-2c-0.1-0.3-0.2-0.7-0.2-1c0-0.7,0.2-1.5,0.6-2.1
			c0.4-0.6,1-1,1.9-1c1.2,0,1.8,0.5,2.2,1.2c0.4,0.7,0.5,1.6,0.5,2.3L579.9-1408.2z"/>
	</g>
	<g class="st0">
		<path class="st16" d="M175.2-1314.4v-10.8c5.4-0.4,7.9-1.4,9-4c0.6-1.2,0.8-2.8,0.8-4.7s0-4.3,0-7.1c0-2.5,0-5.3-0.5-7.6
			c-0.5-2.3-1.6-3.9-3.6-3.9c-1.6,0-2.5,0.7-3,3c-0.6,2.4-0.8,6.1-0.8,12h-12.8c0-4.9,0.1-11.7,2.3-17.1c2.2-5.3,6.1-9.4,14.3-9.4
			c8.2,0,12.4,4.2,14.6,8.7s2.3,9.3,2.3,10.3c0,13.1-2.3,19.4-6.3,23.3l-0.1,0.1c6.3,4.9,7.5,14.1,7.5,24.3c0,0.4,0,1.2-0.1,2.5
			c-0.1,2.5-0.8,6.3-2.2,10.1c-1.4,3.9-3.9,7.3-7.6,9.4c-1.9,1.1-4.2,1.6-7,1.6c-8.2,0-12.4-4.1-14.7-9.5c-2.3-5.3-2.5-12-2.5-17
			h12.8c0,5.9,0.4,9.6,1.1,11.9c0.7,2.4,1.8,3.1,3.4,3.1c2,0,3.1-1.6,3.6-3.7c0.5-2.2,0.5-4.9,0.5-7.5c0-2.8,0-5.3,0.1-7.6
			c0-4.3-0.8-7.3-3.6-9.1c-1.4-0.8-3.6-1.4-6.4-1.6h-1.1V-1314.4z"/>
		<path class="st16" d="M215.5-1314.4v-10.8c5.4-0.4,7.9-1.4,9-4c0.6-1.2,0.8-2.8,0.8-4.7s0-4.3,0-7.1c0-2.5,0-5.3-0.5-7.6
			c-0.5-2.3-1.6-3.9-3.6-3.9c-1.6,0-2.5,0.7-3,3c-0.6,2.4-0.8,6.1-0.8,12h-12.8c0-4.9,0.1-11.7,2.3-17.1c2.2-5.3,6.1-9.4,14.3-9.4
			c8.2,0,12.4,4.2,14.6,8.7s2.3,9.3,2.3,10.3c0,13.1-2.3,19.4-6.3,23.3l-0.1,0.1c6.3,4.9,7.5,14.1,7.5,24.3c0,0.4,0,1.2-0.1,2.5
			c-0.1,2.5-0.8,6.3-2.2,10.1c-1.4,3.9-3.9,7.3-7.6,9.4c-1.9,1.1-4.2,1.6-7,1.6c-8.2,0-12.4-4.1-14.7-9.5c-2.3-5.3-2.5-12-2.5-17
			h12.8c0,5.9,0.4,9.6,1.1,11.9c0.7,2.4,1.8,3.1,3.4,3.1c2,0,3.1-1.6,3.6-3.7c0.5-2.2,0.5-4.9,0.5-7.5c0-2.8,0-5.3,0.1-7.6
			c0-4.3-0.8-7.3-3.6-9.1c-1.4-0.8-3.6-1.4-6.4-1.6h-1.1V-1314.4z"/>
	</g>
	<g class="st0">
		<path class="st16" d="M286.8-1336.9v-6.3c0-6.1,0.9-12.1,3.5-16.4c2.6-4.4,7.1-7.2,14.4-7.2c6.8,0,11.5,2.6,14.2,6.6
			c2.7,4.1,3.7,9.8,3.7,16.2c0,9.3-3.5,20.4-7.8,30.7c-4.5,10.5-9.7,19.8-13.2,25.6h21.3v13.3h-36.5v-13.3
			c4.1-6.3,7.8-12.8,11.2-19.3c2.9-5.5,5.6-11.7,7.7-18c2.1-6.3,3.7-12.6,3.9-18.2c0-2.5-0.1-5.4-0.7-7.5s-1.7-3.7-3.7-3.7
			c-1.9,0-3,1.4-3.6,3.4c-0.6,2.1-0.9,4.9-0.9,7.8v6.3H286.8z"/>
		<path class="st16" d="M367.5-1293.3c-0.1,3.7-0.9,7.1-2.2,10c-1.1,2.5-2.9,4.9-5.4,6.7c-2.5,2-5.9,3.1-10.3,3.1
			c-4.5,0-8-1.1-10.5-3.1c-2.5-1.9-4.1-4.2-5.2-6.7c-1.4-2.9-2.1-6.2-2.2-10v-53.9c0.1-3.6,0.9-7,2.2-9.8c1.1-2.5,2.7-5,5.2-6.8
			c2.5-1.9,6-3.1,10.5-3.1s7.8,1.2,10.3,3.1s4.2,4.4,5.4,6.8c1.4,2.9,2.1,6.2,2.2,9.8V-1293.3z M354-1347.1c0-2.5-0.5-4.2-1.7-5.7
			c-0.6-0.6-1.6-1-2.7-1c-2.4,0-3.5,1.7-4,3.4c-0.4,1-0.5,2.1-0.5,3.4v53.9c0,2.6,0.6,4.4,1.9,5.7c0.6,0.6,1.5,1,2.6,1
			c2.4,0,3.5-1.5,4-3.4c0.4-0.9,0.5-2,0.5-3.4L354-1347.1L354-1347.1z"/>
	</g>
	<g class="st0">
		<path class="st16" d="M552.3-1349.3v-9.2c6-1.2,9.6-4.3,12.1-6.9c1.3-1.6,2.4-3.3,3.2-5.1h8.7v97.9h-14.4v-76.7H552.3
			L552.3-1349.3z"/>
		<path class="st16" d="M609.6-1319c0-4.1-1.5-7.2-4.5-7.2c-1.6,0-2.9,1.2-4,2.7c-1.1,1.6-1.6,3.5-1.6,4.5h-12.1v-51.5h34.8v14.2
			h-22.4v20.4c1.6-1.2,3.3-2.3,5.3-2.9c0.9-0.4,2-0.5,2.9-0.4c7.5,0,11.5,4.3,13.6,8.9c2.1,4.7,2.4,9.7,2.4,11.3v21.8
			c0,4.7-0.3,10.9-2.8,16.1c-2.5,5.3-7.3,9.5-16,9.5c-8.9,0-13.4-4.1-16-10c-2.5-5.7-2.8-13-2.8-19.6h14.4v3.9
			c0,4.9,0.3,8.4,0.9,10.3c0.7,2,1.7,2.9,3.5,2.9c1.5,0,2.7-0.9,3.3-2.8c0.7-1.9,1.1-5.3,1.1-10.3L609.6-1319L609.6-1319z"/>
	</g>
	<g class="st0">
		<path class="st16" d="M678.7-1337v-6.7c0-6.5,0.9-12.9,3.7-17.6c2.8-4.7,7.6-7.7,15.4-7.7c7.3,0,12.3,2.8,15.2,7.1
			c2.9,4.4,4,10.5,4,17.3c0,10-3.7,21.8-8.4,32.9c-4.8,11.2-10.4,21.2-14.1,27.4h22.8v14.2h-39v-14.2c4.4-6.8,8.4-13.7,12-20.6
			c3.1-5.9,6-12.5,8.3-19.3c2.3-6.8,4-13.4,4.1-19.4c0-2.7-0.1-5.7-0.8-8c-0.7-2.3-1.9-4-4-4c-2,0-3.2,1.5-3.9,3.6
			c-0.7,2.3-0.9,5.2-0.9,8.4v6.8h-14.4V-1337z"/>
		<path class="st16" d="M737.1-1314.3v-12c6-0.4,8.8-1.6,10-4.4c0.7-1.3,0.9-3.1,0.9-5.2s0-4.8,0-7.9c0-2.8,0-5.9-0.5-8.4
			s-1.7-4.3-4-4.3c-1.7,0-2.8,0.8-3.3,3.3c-0.7,2.7-0.9,6.8-0.9,13.3h-14.1c0-5.5,0.1-12.9,2.5-18.9c2.4-5.9,6.8-10.4,15.8-10.4
			c9.1,0,13.7,4.7,16.1,9.6c2.4,4.9,2.5,10.3,2.5,11.5c0,14.5-2.5,21.4-6.9,25.8l-0.1,0.1c6.9,5.5,8.3,15.6,8.3,26.9
			c0,0.4,0,1.3-0.1,2.8c-0.1,2.8-0.9,6.9-2.4,11.2c-1.6,4.3-4.3,8.1-8.4,10.4c-2.1,1.2-4.7,1.7-7.7,1.7c-9.1,0-13.7-4.5-16.2-10.5
			c-2.5-5.9-2.8-13.3-2.8-18.8h14.1c0,6.5,0.4,10.7,1.2,13.2c0.8,2.7,2,3.5,3.7,3.5c2.3,0,3.5-1.7,4-4.1c0.5-2.4,0.5-5.5,0.5-8.3
			c0-3.1,0-5.9,0.1-8.4c0-4.8-0.9-8.1-4-10.1c-1.6-0.9-4-1.6-7.1-1.7L737.1-1314.3L737.1-1314.3z"/>
	</g>
</g>
</svg>
